<?xml version="1.0" encoding="UTF-8" standalone="no"?>
<!-- Created with Inkscape (http://www.inkscape.org/) -->

<svg
   width="210mm"
   height="297mm"
   viewBox="0 0 210 297"
   version="1.1"
   id="svg1"
   inkscape:version="1.3.2 (091e20ef0f, 2023-11-25)"
   sodipodi:docname="derivacni_krok_bkg.svg"
   inkscape:export-filename="derivacni_krok_bkg.pdf"
   inkscape:export-xdpi="96"
   inkscape:export-ydpi="96"
   xmlns:inkscape="http://www.inkscape.org/namespaces/inkscape"
   xmlns:sodipodi="http://sodipodi.sourceforge.net/DTD/sodipodi-0.dtd"
   xmlns="http://www.w3.org/2000/svg"
   xmlns:svg="http://www.w3.org/2000/svg">
  <sodipodi:namedview
     id="namedview1"
     pagecolor="#ffffff"
     bordercolor="#000000"
     borderopacity="0.25"
     inkscape:showpageshadow="2"
     inkscape:pageopacity="0.0"
     inkscape:pagecheckerboard="0"
     inkscape:deskcolor="#d1d1d1"
     inkscape:document-units="mm"
     inkscape:zoom="4"
     inkscape:cx="311.125"
     inkscape:cy="257"
     inkscape:window-width="1920"
     inkscape:window-height="1012"
     inkscape:window-x="0"
     inkscape:window-y="0"
     inkscape:window-maximized="1"
     inkscape:current-layer="layer1" />
  <defs
     id="defs1">
    <rect
       x="381.45649"
       y="257.30401"
       width="156.45428"
       height="35.729609"
       id="rect12" />
    <rect
       x="375.94465"
       y="248.20829"
       width="155.69331"
       height="68.506494"
       id="rect4" />
    <rect
       x="430.27065"
       y="191.55885"
       width="66.308832"
       height="54.029419"
       id="rect40" />
    <rect
       x="370.34711"
       y="462.6883"
       width="32.417651"
       height="24.558827"
       id="rect21" />
    <rect
       x="362.48828"
       y="136.54708"
       width="97.252954"
       height="65.817656"
       id="rect13" />
  </defs>
  <g
     inkscape:label="Layer 1"
     inkscape:groupmode="layer"
     id="layer1">
    <text
       xml:space="preserve"
       transform="scale(0.26458333)"
       id="text13"
       style="white-space:pre;shape-inside:url(#rect13);display:inline;fill:none;fill-opacity:1;stroke:#000000;stroke-opacity:1" />
    <text
       xml:space="preserve"
       transform="scale(0.26458333)"
       id="text21"
       style="white-space:pre;shape-inside:url(#rect21);display:inline;fill:none;fill-opacity:1;stroke:#000000;stroke-opacity:1" />
    <text
       xml:space="preserve"
       transform="scale(0.26458333)"
       id="text40"
       style="font-style:normal;font-variant:normal;font-weight:normal;font-stretch:normal;font-size:16px;font-family:sans-serif;-inkscape-font-specification:'sans-serif, Normal';font-variant-ligatures:normal;font-variant-caps:normal;font-variant-numeric:normal;font-variant-east-asian:normal;white-space:pre;shape-inside:url(#rect40);display:inline;fill:none;fill-opacity:1;stroke:#000000;stroke-width:1.00157;stroke-dasharray:none;stroke-dashoffset:0;stroke-opacity:1" />
    <path
       style="fill:#000000;fill-opacity:1;stroke:#000000;stroke-width:0.167;stroke-dasharray:0.334,0.167;stroke-opacity:1;stroke-dashoffset:0"
       d="m 79.943173,71.03445 -4.204945,8.452758"
       id="path17" />
    <path
       style="fill:#000000;fill-opacity:1;stroke:#000000;stroke-width:0.167;stroke-dasharray:0.334, 0.167;stroke-opacity:1;stroke-dashoffset:0;marker-end:"
       d="m 89.021523,71.081222 4.204945,8.452758"
       id="path18" />
    <g
       id="g9">
      <text
         xml:space="preserve"
         transform="scale(0.26458333)"
         id="text1"
         style="font-size:16px;font-family:sans-serif;-inkscape-font-specification:'sans-serif, Normal';white-space:pre;shape-inside:url(#rect4);display:inline;fill:#000000;stroke-width:0" />
    </g>
    <text
       xml:space="preserve"
       transform="scale(0.26458333)"
       id="text12"
       style="font-style:normal;font-variant:normal;font-weight:normal;font-stretch:normal;font-size:13.3333px;font-family:Sans;-inkscape-font-specification:'Sans, Normal';font-variant-ligatures:normal;font-variant-caps:normal;font-variant-numeric:normal;font-variant-east-asian:normal;white-space:pre;shape-inside:url(#rect12);display:inline;fill:#000000;stroke-width:0.253228;stroke-dasharray:0.506455, 0.253228;stroke-dashoffset:0" />
    <rect
       style="fill:none;stroke:#000000;stroke-width:0.3;stroke-dasharray:none;stroke-opacity:1"
       id="rect8"
       width="9.1619768"
       height="9.1619768"
       x="66.603027"
       y="79.501266" />
    <g
       id="g55">
      <g
         inkscape:label=""
         transform="translate(83.316624,65.554705)"
         id="g15">
        <g
           fill="#000000"
           fill-opacity="1"
           id="g11"
           transform="matrix(0.352778,0,0,0.352778,-0.873963,-0.660885)">
          <g
             id="use1"
             transform="translate(1.993,7.1389999)">
            <path
               d="m 5.53125,-3.03125 c 0,-1.15625 -0.65625,-2.234375 -1.921875,-2.234375 -1.5625,0 -3.125,1.703125 -3.125,3.40625 0,1.03125 0.640625,1.984375 1.859375,1.984375 0.734375,0 1.625,-0.296875 2.46875,-1.015625 C 4.984375,-0.21875 5.359375,0.125 5.875,0.125 c 0.640625,0 0.96875,-0.671875 0.96875,-0.828125 0,-0.109375 -0.09375,-0.109375 -0.125,-0.109375 -0.09375,0 -0.109375,0.03125 -0.140625,0.125 C 6.46875,-0.375 6.1875,-0.125 5.90625,-0.125 c -0.375,0 -0.375,-0.765625 -0.375,-1.484375 1.21875,-1.46875 1.515625,-2.96875 1.515625,-2.984375 0,-0.109375 -0.109375,-0.109375 -0.140625,-0.109375 -0.109375,0 -0.109375,0.046875 -0.171875,0.25 -0.140625,0.53125 -0.453125,1.46875 -1.203125,2.4375 z m -0.75,1.859375 c -1.046875,0.9375 -2,1.046875 -2.421875,1.046875 -0.84375,0 -1.078125,-0.75 -1.078125,-1.3125 0,-0.515625 0.265625,-1.734375 0.625,-2.390625 0.5,-0.828125 1.171875,-1.203125 1.703125,-1.203125 1.15625,0 1.15625,1.515625 1.15625,2.515625 0,0.296875 -0.015625,0.609375 -0.015625,0.90625 0,0.25 0.015625,0.3125 0.03125,0.4375 z m 0,0"
               id="path2" />
          </g>
        </g>
      </g>
      <rect
         style="fill:none;stroke:#000000;stroke-width:0.3;stroke-dasharray:none;stroke-opacity:1"
         id="rect2"
         width="9.1619768"
         height="9.1619768"
         x="79.893188"
         y="61.924564" />
    </g>
    <g
       id="g54">
      <rect
         style="fill:none;stroke:#000000;stroke-width:0.3;stroke-dasharray:none;stroke-opacity:1"
         id="rect1"
         width="9.1619768"
         height="9.1619768"
         x="70.730789"
         y="61.924564" />
      <g
         inkscape:label=""
         transform="translate(74.231394,65.124757)"
         id="g39">
        <g
           fill="#000000"
           fill-opacity="1"
           id="g38"
           transform="matrix(0.352778,0,0,0.352778,-0.785768,-0.661238)">
          <g
             id="g37"
             transform="translate(1.993,7.1399999)">
            <path
               d="M 4.515625,-1.453125 C 4.5,-2.046875 4.46875,-2.96875 4.015625,-4.046875 3.78125,-4.640625 3.375,-5.265625 2.5,-5.265625 c -1.46875,0 -2.265625,1.875 -2.265625,2.1875 0,0.109375 0.078125,0.109375 0.109375,0.109375 0.109375,0 0.109375,-0.03125 0.171875,-0.1875 0.25,-0.734375 1.015625,-1.328125 1.84375,-1.328125 1.65625,0 1.890625,1.859375 1.890625,3.03125 0,0.765625 -0.078125,1.015625 -0.15625,1.25 -0.21875,0.734375 -0.609375,2.21875 -0.609375,2.5625 0,0.09375 0.03125,0.203125 0.125,0.203125 0.1875,0 0.28125,-0.40625 0.421875,-0.875 0.28125,-1.046875 0.359375,-1.578125 0.421875,-2.0625 0.03125,-0.28125 0.703125,-2.25 1.65625,-4.125 0.078125,-0.203125 0.25,-0.515625 0.25,-0.5625 0,0 -0.015625,-0.09375 -0.125,-0.09375 -0.015625,0 -0.078125,0 -0.109375,0.046875 -0.015625,0.03125 -0.4375,0.84375 -0.796875,1.65625 -0.171875,0.40625 -0.421875,0.9375 -0.8125,2 z m 0,0"
               id="path36" />
          </g>
        </g>
      </g>
    </g>
    <g
       id="g56">
      <rect
         style="fill:none;stroke:#000000;stroke-width:0.3;stroke-dasharray:none;stroke-opacity:1"
         id="rect3"
         width="9.1619768"
         height="9.1619768"
         x="89.05558"
         y="61.924564" />
      <g
         inkscape:label=""
         transform="translate(92.78494,64.984197)"
         id="g42">
        <g
           fill="#000000"
           fill-opacity="1"
           id="g41"
           transform="matrix(0.352778,0,0,0.352778,-0.873963,-0.638395)">
          <g
             id="g40"
             transform="translate(1.993,10.294)">
            <path
               d="m 3.109375,-5.21875 c -1.53125,0.375 -2.625,1.96875 -2.625,3.359375 0,1.28125 0.859375,2 1.8125,2 1.40625,0 2.359375,-1.9375 2.359375,-3.515625 0,-1.078125 -0.5,-1.734375 -0.796875,-2.140625 C 3.421875,-6.078125 2.703125,-7 2.703125,-7.5625 c 0,-0.203125 0.15625,-0.5625 0.671875,-0.5625 0.375,0 0.609375,0.125 0.96875,0.328125 0.109375,0.078125 0.375,0.234375 0.53125,0.234375 0.25,0 0.4375,-0.25 0.4375,-0.453125 0,-0.21875 -0.1875,-0.25 -0.609375,-0.34375 -0.5625,-0.125 -0.71875,-0.125 -0.921875,-0.125 -0.203125,0 -1.375,0 -1.375,1.21875 0,0.578125 0.296875,1.265625 0.703125,2.046875 z m 0.125,0.234375 C 3.6875,-4.046875 3.875,-3.6875 3.875,-2.90625 c 0,0.9375 -0.5,2.8125 -1.5625,2.8125 -0.46875,0 -1.140625,-0.3125 -1.140625,-1.421875 0,-0.78125 0.4375,-3.03125 2.0625,-3.46875 z m 0,0"
               id="path39" />
          </g>
        </g>
      </g>
    </g>
    <g
       id="g59">
      <g
         id="g57">
        <rect
           style="fill:none;stroke:#000000;stroke-width:0.3;stroke-dasharray:none;stroke-opacity:1"
           id="rect9"
           width="17.416883"
           height="9.1685495"
           x="75.765732"
           y="79.497978" />
        <g
           inkscape:label=""
           transform="translate(83.340997,82.188827)"
           id="g45">
          <g
             fill="#000000"
             fill-opacity="1"
             id="g44"
             transform="matrix(0.352778,0,0,0.352778,-0.823497,-0.660797)">
            <g
               id="g43"
               transform="translate(1.993,10.295)">
              <path
                 d="m 6.765625,-6.953125 c 0,-0.71875 -0.609375,-1.46875 -1.703125,-1.46875 -1.53125,0 -2.515625,1.890625 -2.828125,3.125 l -1.890625,7.5 C 0.328125,2.296875 0.390625,2.3125 0.453125,2.3125 c 0.078125,0 0.140625,0 0.15625,-0.0625 l 0.84375,-3.34375 C 1.5625,-0.4375 2.21875,0.125 2.921875,0.125 4.640625,0.125 6.25,-1.21875 6.25,-3 6.25,-3.453125 6.140625,-3.90625 5.890625,-4.296875 5.75,-4.515625 5.5625,-4.6875 5.375,-4.828125 c 0.859375,-0.453125 1.390625,-1.1875 1.390625,-2.125 z M 4.6875,-4.84375 C 4.5,-4.765625 4.296875,-4.75 4.078125,-4.75 3.90625,-4.75 3.75,-4.734375 3.53125,-4.8125 c 0.125,-0.078125 0.3125,-0.09375 0.5625,-0.09375 0.203125,0 0.421875,0.015625 0.59375,0.0625 z M 6.140625,-7.0625 c 0,0.65625 -0.3125,1.609375 -1.09375,2.046875 C 4.8125,-5.09375 4.5,-5.15625 4.25,-5.15625 4,-5.15625 3.28125,-5.171875 3.28125,-4.796875 3.28125,-4.46875 3.9375,-4.5 4.140625,-4.5 c 0.3125,0 0.578125,-0.078125 0.875,-0.15625 0.375,0.3125 0.546875,0.71875 0.546875,1.3125 0,0.6875 -0.203125,1.25 -0.421875,1.765625 C 4.75,-0.6875 3.8125,-0.125 2.984375,-0.125 c -0.875,0 -1.328125,-0.6875 -1.328125,-1.5 0,-0.109375 0,-0.265625 0.046875,-0.4375 l 0.78125,-3.15625 c 0.390625,-1.5625 1.40625,-2.96875 2.5625,-2.96875 0.859375,0 1.09375,0.59375 1.09375,1.125 z m 0,0"
                 id="path42" />
            </g>
          </g>
        </g>
      </g>
    </g>
    <g
       id="g58">
      <rect
         style="fill:none;stroke:#000000;stroke-width:0.3;stroke-dasharray:none;stroke-opacity:1"
         id="rect10"
         width="9.1619768"
         height="9.1619768"
         x="93.183342"
         y="79.501266" />
      <g
         inkscape:label=""
         transform="translate(96.912702,82.560899)"
         id="g48">
        <g
           fill="#000000"
           fill-opacity="1"
           id="g47"
           transform="matrix(0.352778,0,0,0.352778,-0.873963,-0.638395)">
          <g
             id="g46"
             transform="translate(1.993,10.294)">
            <path
               d="m 3.109375,-5.21875 c -1.53125,0.375 -2.625,1.96875 -2.625,3.359375 0,1.28125 0.859375,2 1.8125,2 1.40625,0 2.359375,-1.9375 2.359375,-3.515625 0,-1.078125 -0.5,-1.734375 -0.796875,-2.140625 C 3.421875,-6.078125 2.703125,-7 2.703125,-7.5625 c 0,-0.203125 0.15625,-0.5625 0.671875,-0.5625 0.375,0 0.609375,0.125 0.96875,0.328125 0.109375,0.078125 0.375,0.234375 0.53125,0.234375 0.25,0 0.4375,-0.25 0.4375,-0.453125 0,-0.21875 -0.1875,-0.25 -0.609375,-0.34375 -0.5625,-0.125 -0.71875,-0.125 -0.921875,-0.125 -0.203125,0 -1.375,0 -1.375,1.21875 0,0.578125 0.296875,1.265625 0.703125,2.046875 z m 0.125,0.234375 C 3.6875,-4.046875 3.875,-3.6875 3.875,-2.90625 c 0,0.9375 -0.5,2.8125 -1.5625,2.8125 -0.46875,0 -1.140625,-0.3125 -1.140625,-1.421875 0,-0.78125 0.4375,-3.03125 2.0625,-3.46875 z m 0,0"
               id="path45" />
          </g>
        </g>
      </g>
    </g>
    <g
       inkscape:label=""
       transform="translate(70.103632,82.70146)"
       id="g51">
      <g
         fill="#000000"
         fill-opacity="1"
         id="g50"
         transform="matrix(0.352778,0,0,0.352778,-0.785768,-0.661238)">
        <g
           id="g49"
           transform="translate(1.993,7.1399999)">
          <path
             d="M 4.515625,-1.453125 C 4.5,-2.046875 4.46875,-2.96875 4.015625,-4.046875 3.78125,-4.640625 3.375,-5.265625 2.5,-5.265625 c -1.46875,0 -2.265625,1.875 -2.265625,2.1875 0,0.109375 0.078125,0.109375 0.109375,0.109375 0.109375,0 0.109375,-0.03125 0.171875,-0.1875 0.25,-0.734375 1.015625,-1.328125 1.84375,-1.328125 1.65625,0 1.890625,1.859375 1.890625,3.03125 0,0.765625 -0.078125,1.015625 -0.15625,1.25 -0.21875,0.734375 -0.609375,2.21875 -0.609375,2.5625 0,0.09375 0.03125,0.203125 0.125,0.203125 0.1875,0 0.28125,-0.40625 0.421875,-0.875 0.28125,-1.046875 0.359375,-1.578125 0.421875,-2.0625 0.03125,-0.28125 0.703125,-2.25 1.65625,-4.125 0.078125,-0.203125 0.25,-0.515625 0.25,-0.5625 0,0 -0.015625,-0.09375 -0.125,-0.09375 -0.015625,0 -0.078125,0 -0.109375,0.046875 -0.015625,0.03125 -0.4375,0.84375 -0.796875,1.65625 -0.171875,0.40625 -0.421875,0.9375 -0.8125,2 z m 0,0"
             id="path48" />
        </g>
      </g>
    </g>
    <g
       inkscape:label=""
       transform="translate(100.41639,72.662473)"
       id="g53">
      <g
         fill="#000000"
         fill-opacity="1"
         id="g6"
         transform="matrix(0.352778,0,0,0.352778,-1.19367,-0.702116)">
        <g
           id="use5"
           transform="translate(1.993,10.959)">
          <path
             d="m 2.984375,2.984375 v -0.4375 h -1.15625 v -11.0625 h 1.15625 V -8.96875 H 1.390625 V 2.984375 Z m 0,0"
             id="path10" />
        </g>
      </g>
      <g
         fill="#000000"
         fill-opacity="1"
         id="g7"
         transform="matrix(0.352778,0,0,0.352778,-1.19367,-0.702116)">
        <g
           id="use6"
           transform="translate(5.244,10.959)">
          <path
             d="m 5.53125,-3.03125 c 0,-1.15625 -0.65625,-2.234375 -1.921875,-2.234375 -1.5625,0 -3.125,1.703125 -3.125,3.40625 0,1.03125 0.640625,1.984375 1.859375,1.984375 0.734375,0 1.625,-0.296875 2.46875,-1.015625 C 4.984375,-0.21875 5.359375,0.125 5.875,0.125 c 0.640625,0 0.96875,-0.671875 0.96875,-0.828125 0,-0.109375 -0.09375,-0.109375 -0.125,-0.109375 -0.09375,0 -0.109375,0.03125 -0.140625,0.125 C 6.46875,-0.375 6.1875,-0.125 5.90625,-0.125 c -0.375,0 -0.375,-0.765625 -0.375,-1.484375 1.21875,-1.46875 1.515625,-2.96875 1.515625,-2.984375 0,-0.109375 -0.109375,-0.109375 -0.140625,-0.109375 -0.109375,0 -0.109375,0.046875 -0.171875,0.25 -0.140625,0.53125 -0.453125,1.46875 -1.203125,2.4375 z m -0.75,1.859375 c -1.046875,0.9375 -2,1.046875 -2.421875,1.046875 -0.84375,0 -1.078125,-0.75 -1.078125,-1.3125 0,-0.515625 0.265625,-1.734375 0.625,-2.390625 0.5,-0.828125 1.171875,-1.203125 1.703125,-1.203125 1.15625,0 1.15625,1.515625 1.15625,2.515625 0,0.296875 -0.015625,0.609375 -0.015625,0.90625 0,0.25 0.015625,0.3125 0.03125,0.4375 z m 0,0"
             id="path11" />
        </g>
      </g>
      <g
         fill="#000000"
         fill-opacity="1"
         id="g8"
         transform="matrix(0.352778,0,0,0.352778,-1.19367,-0.702116)">
        <g
           id="use7"
           transform="translate(16.087,10.959)">
          <path
             d="m 9.96875,-2.75 c -0.65625,0.5 -0.984375,1 -1.078125,1.140625 -0.53125,0.828125 -0.625,1.578125 -0.625,1.59375 C 8.265625,0.125 8.40625,0.125 8.5,0.125 c 0.203125,0 0.21875,-0.015625 0.265625,-0.234375 0.265625,-1.171875 0.96875,-2.171875 2.328125,-2.71875 0.140625,-0.046875 0.171875,-0.078125 0.171875,-0.15625 0,-0.09375 -0.0625,-0.125 -0.09375,-0.140625 C 10.65625,-3.328125 9.203125,-3.921875 8.75,-5.921875 c -0.03125,-0.15625 -0.046875,-0.1875 -0.25,-0.1875 -0.09375,0 -0.234375,0 -0.234375,0.140625 0,0.03125 0.09375,0.78125 0.609375,1.578125 0.234375,0.359375 0.578125,0.78125 1.09375,1.15625 h -8.875 c -0.21875,0 -0.4375,0 -0.4375,0.25 C 0.65625,-2.75 0.875,-2.75 1.09375,-2.75 Z m 0,0"
             id="path12" />
        </g>
      </g>
      <g
         fill="#000000"
         fill-opacity="1"
         id="g52"
         transform="matrix(0.352778,0,0,0.352778,-1.19367,-0.702116)">
        <g
           id="use8"
           transform="translate(31.363001,10.959)">
          <path
             d="m 6.765625,-6.953125 c 0,-0.71875 -0.609375,-1.46875 -1.703125,-1.46875 -1.53125,0 -2.515625,1.890625 -2.828125,3.125 l -1.890625,7.5 C 0.328125,2.296875 0.390625,2.3125 0.453125,2.3125 c 0.078125,0 0.140625,0 0.15625,-0.0625 l 0.84375,-3.34375 C 1.5625,-0.4375 2.21875,0.125 2.921875,0.125 4.640625,0.125 6.25,-1.21875 6.25,-3 6.25,-3.453125 6.140625,-3.90625 5.890625,-4.296875 5.75,-4.515625 5.5625,-4.6875 5.375,-4.828125 c 0.859375,-0.453125 1.390625,-1.1875 1.390625,-2.125 z M 4.6875,-4.84375 C 4.5,-4.765625 4.296875,-4.75 4.078125,-4.75 3.90625,-4.75 3.75,-4.734375 3.53125,-4.8125 c 0.125,-0.078125 0.3125,-0.09375 0.5625,-0.09375 0.203125,0 0.421875,0.015625 0.59375,0.0625 z M 6.140625,-7.0625 c 0,0.65625 -0.3125,1.609375 -1.09375,2.046875 C 4.8125,-5.09375 4.5,-5.15625 4.25,-5.15625 4,-5.15625 3.28125,-5.171875 3.28125,-4.796875 3.28125,-4.46875 3.9375,-4.5 4.140625,-4.5 c 0.3125,0 0.578125,-0.078125 0.875,-0.15625 0.375,0.3125 0.546875,0.71875 0.546875,1.3125 0,0.6875 -0.203125,1.25 -0.421875,1.765625 C 4.75,-0.6875 3.8125,-0.125 2.984375,-0.125 c -0.875,0 -1.328125,-0.6875 -1.328125,-1.5 0,-0.109375 0,-0.265625 0.046875,-0.4375 l 0.78125,-3.15625 c 0.390625,-1.5625 1.40625,-2.96875 2.5625,-2.96875 0.859375,0 1.09375,0.59375 1.09375,1.125 z m 0,0"
             id="path13" />
        </g>
      </g>
      <g
         fill="#000000"
         fill-opacity="1"
         id="g10"
         transform="matrix(0.352778,0,0,0.352778,-1.19367,-0.702116)">
        <g
           id="use9"
           transform="translate(38.633999,10.959)">
          <path
             d="M 1.859375,-8.96875 H 0.25 v 0.453125 h 1.15625 v 11.0625 H 0.25 v 0.4375 h 1.609375 z m 0,0"
             id="path14" />
        </g>
      </g>
    </g>
  </g>
</svg>
