<?xml version="1.0" encoding="UTF-8" standalone="no"?>
<!-- Created with Inkscape (http://www.inkscape.org/) -->

<svg
   width="210mm"
   height="297mm"
   viewBox="0 0 210 297"
   version="1.1"
   id="svg1"
   inkscape:version="1.3.2 (091e20ef0f, 2023-11-25)"
   sodipodi:docname="dva_derivacni_stromy.svg"
   xmlns:inkscape="http://www.inkscape.org/namespaces/inkscape"
   xmlns:sodipodi="http://sodipodi.sourceforge.net/DTD/sodipodi-0.dtd"
   xmlns="http://www.w3.org/2000/svg"
   xmlns:svg="http://www.w3.org/2000/svg">
  <sodipodi:namedview
     id="namedview1"
     pagecolor="#ffffff"
     bordercolor="#000000"
     borderopacity="0.25"
     inkscape:showpageshadow="2"
     inkscape:pageopacity="0.0"
     inkscape:pagecheckerboard="0"
     inkscape:deskcolor="#d1d1d1"
     inkscape:document-units="mm"
     inkscape:zoom="4"
     inkscape:cx="461"
     inkscape:cy="711.5"
     inkscape:window-width="1920"
     inkscape:window-height="1012"
     inkscape:window-x="0"
     inkscape:window-y="0"
     inkscape:window-maximized="1"
     inkscape:current-layer="layer1" />
  <defs
     id="defs1" />
  <g
     inkscape:label="Layer 1"
     inkscape:groupmode="layer"
     id="layer1">
    <g
       inkscape:label=""
       transform="translate(88.240027,148.45012)"
       id="g14">
      <g
         fill="#000000"
         fill-opacity="1"
         id="g13"
         transform="matrix(0.352778,0,0,0.352778,-1.03933,-0.722665)">
        <g
           id="g12"
           transform="translate(1.993,16.111)">
          <path
             d="M 14.359375,-4.796875 C 14.375,-4.859375 14.4375,-5 14.4375,-5.078125 c 0,-0.109375 -0.07813,-0.203125 -0.203125,-0.203125 -0.07813,0 -0.125,0.015625 -0.1875,0.078125 C 14,-5.1875 14,-5.140625 13.8125,-4.734375 12.59375,-1.84375 11.71875,-0.59375 8.40625,-0.59375 H 5.390625 c -0.28125,0 -0.328125,0 -0.453125,-0.03125 -0.234375,-0.015625 -0.25,-0.0625 -0.25,-0.21875 0,-0.140625 0.046875,-0.265625 0.078125,-0.453125 L 6.203125,-7 h 2.03125 c 1.625,0 1.75,0.34375 1.75,0.96875 0,0.203125 0,0.390625 -0.15625,1.015625 -0.03125,0.078125 -0.0625,0.15625 -0.0625,0.21875 0,0.15625 0.109375,0.21875 0.234375,0.21875 0.1875,0 0.203125,-0.15625 0.28125,-0.4375 l 1.1875,-4.796875 c 0,-0.109375 -0.09375,-0.203125 -0.21875,-0.203125 -0.171875,0 -0.203125,0.078125 -0.28125,0.375 C 10.5625,-8.0625 10.140625,-7.59375 8.296875,-7.59375 H 6.34375 L 7.625,-12.6875 c 0.1875,-0.71875 0.21875,-0.78125 1.078125,-0.78125 h 2.953125 c 2.53125,0 3.046875,0.6875 3.046875,2.25 0,0.01563 0,0.59375 -0.07813,1.28125 -0.01563,0.078125 -0.04687,0.203125 -0.04687,0.25 0,0.171875 0.109375,0.234375 0.234375,0.234375 0.140625,0 0.21875,-0.09375 0.265625,-0.46875 l 0.4375,-3.609375 c 0,-0.0625 0.03125,-0.265625 0.03125,-0.3125 C 15.546875,-14.0625 15.375,-14.0625 15,-14.0625 H 4.921875 c -0.390625,0 -0.609375,0 -0.609375,0.375 0,0.21875 0.15625,0.21875 0.5,0.21875 1.28125,0 1.28125,0.140625 1.28125,0.375 0,0.09375 -0.015625,0.1875 -0.078125,0.40625 L 3.21875,-1.53125 C 3.03125,-0.8125 3,-0.59375 1.546875,-0.59375 c -0.390625,0 -0.59375,0 -0.59375,0.359375 C 0.953125,0 1.078125,0 1.484375,0 h 10.375 c 0.453125,0 0.46875,-0.015625 0.609375,-0.34375 z m 0,0"
             id="path11" />
        </g>
      </g>
    </g>
    <g
       inkscape:label=""
       transform="translate(73.403776,162.74696)"
       id="g18">
      <g
         fill="#000000"
         fill-opacity="1"
         id="g17"
         transform="matrix(0.352778,0,0,0.352778,-1.03933,-0.722665)">
        <g
           id="g16"
           transform="translate(1.993,16.111)">
          <path
             d="M 14.359375,-4.796875 C 14.375,-4.859375 14.4375,-5 14.4375,-5.078125 c 0,-0.109375 -0.07813,-0.203125 -0.203125,-0.203125 -0.07813,0 -0.125,0.015625 -0.1875,0.078125 C 14,-5.1875 14,-5.140625 13.8125,-4.734375 12.59375,-1.84375 11.71875,-0.59375 8.40625,-0.59375 H 5.390625 c -0.28125,0 -0.328125,0 -0.453125,-0.03125 -0.234375,-0.015625 -0.25,-0.0625 -0.25,-0.21875 0,-0.140625 0.046875,-0.265625 0.078125,-0.453125 L 6.203125,-7 h 2.03125 c 1.625,0 1.75,0.34375 1.75,0.96875 0,0.203125 0,0.390625 -0.15625,1.015625 -0.03125,0.078125 -0.0625,0.15625 -0.0625,0.21875 0,0.15625 0.109375,0.21875 0.234375,0.21875 0.1875,0 0.203125,-0.15625 0.28125,-0.4375 l 1.1875,-4.796875 c 0,-0.109375 -0.09375,-0.203125 -0.21875,-0.203125 -0.171875,0 -0.203125,0.078125 -0.28125,0.375 C 10.5625,-8.0625 10.140625,-7.59375 8.296875,-7.59375 H 6.34375 L 7.625,-12.6875 c 0.1875,-0.71875 0.21875,-0.78125 1.078125,-0.78125 h 2.953125 c 2.53125,0 3.046875,0.6875 3.046875,2.25 0,0.01563 0,0.59375 -0.07813,1.28125 -0.01563,0.078125 -0.04687,0.203125 -0.04687,0.25 0,0.171875 0.109375,0.234375 0.234375,0.234375 0.140625,0 0.21875,-0.09375 0.265625,-0.46875 l 0.4375,-3.609375 c 0,-0.0625 0.03125,-0.265625 0.03125,-0.3125 C 15.546875,-14.0625 15.375,-14.0625 15,-14.0625 H 4.921875 c -0.390625,0 -0.609375,0 -0.609375,0.375 0,0.21875 0.15625,0.21875 0.5,0.21875 1.28125,0 1.28125,0.140625 1.28125,0.375 0,0.09375 -0.015625,0.1875 -0.078125,0.40625 L 3.21875,-1.53125 C 3.03125,-0.8125 3,-0.59375 1.546875,-0.59375 c -0.390625,0 -0.59375,0 -0.59375,0.359375 C 0.953125,0 1.078125,0 1.484375,0 h 10.375 c 0.453125,0 0.46875,-0.015625 0.609375,-0.34375 z m 0,0"
             id="path16" />
        </g>
      </g>
    </g>
    <g
       inkscape:label=""
       transform="translate(95.893603,162.74696)"
       id="g21"
       style="paint-order:markers fill stroke">
      <g
         fill="#000000"
         fill-opacity="1"
         id="g20"
         transform="matrix(0.352778,0,0,0.352778,-1.03933,-0.722665)"
         style="paint-order:markers fill stroke">
        <g
           id="g19"
           transform="translate(1.993,16.111)"
           style="paint-order:markers fill stroke">
          <path
             d="M 14.359375,-4.796875 C 14.375,-4.859375 14.4375,-5 14.4375,-5.078125 c 0,-0.109375 -0.07813,-0.203125 -0.203125,-0.203125 -0.07813,0 -0.125,0.015625 -0.1875,0.078125 C 14,-5.1875 14,-5.140625 13.8125,-4.734375 12.59375,-1.84375 11.71875,-0.59375 8.40625,-0.59375 H 5.390625 c -0.28125,0 -0.328125,0 -0.453125,-0.03125 -0.234375,-0.015625 -0.25,-0.0625 -0.25,-0.21875 0,-0.140625 0.046875,-0.265625 0.078125,-0.453125 L 6.203125,-7 h 2.03125 c 1.625,0 1.75,0.34375 1.75,0.96875 0,0.203125 0,0.390625 -0.15625,1.015625 -0.03125,0.078125 -0.0625,0.15625 -0.0625,0.21875 0,0.15625 0.109375,0.21875 0.234375,0.21875 0.1875,0 0.203125,-0.15625 0.28125,-0.4375 l 1.1875,-4.796875 c 0,-0.109375 -0.09375,-0.203125 -0.21875,-0.203125 -0.171875,0 -0.203125,0.078125 -0.28125,0.375 C 10.5625,-8.0625 10.140625,-7.59375 8.296875,-7.59375 H 6.34375 L 7.625,-12.6875 c 0.1875,-0.71875 0.21875,-0.78125 1.078125,-0.78125 h 2.953125 c 2.53125,0 3.046875,0.6875 3.046875,2.25 0,0.01563 0,0.59375 -0.07813,1.28125 -0.01563,0.078125 -0.04687,0.203125 -0.04687,0.25 0,0.171875 0.109375,0.234375 0.234375,0.234375 0.140625,0 0.21875,-0.09375 0.265625,-0.46875 l 0.4375,-3.609375 c 0,-0.0625 0.03125,-0.265625 0.03125,-0.3125 C 15.546875,-14.0625 15.375,-14.0625 15,-14.0625 H 4.921875 c -0.390625,0 -0.609375,0 -0.609375,0.375 0,0.21875 0.15625,0.21875 0.5,0.21875 1.28125,0 1.28125,0.140625 1.28125,0.375 0,0.09375 -0.015625,0.1875 -0.078125,0.40625 L 3.21875,-1.53125 C 3.03125,-0.8125 3,-0.59375 1.546875,-0.59375 c -0.390625,0 -0.59375,0 -0.59375,0.359375 C 0.953125,0 1.078125,0 1.484375,0 h 10.375 c 0.453125,0 0.46875,-0.015625 0.609375,-0.34375 z m 0,0"
             id="path18"
             style="paint-order:markers fill stroke" />
        </g>
      </g>
    </g>
    <path
       style="fill:none;stroke:#000000;stroke-width:0.2;stroke-dasharray:none;paint-order:markers fill stroke"
       d="m 68.371496,177.79888 7.713935,-7.60132 7.713931,7.60132"
       id="path21"
       sodipodi:nodetypes="ccc" />
    <g
       inkscape:label=""
       transform="translate(65.715596,179.56531)"
       id="g24">
      <g
         fill="#000000"
         fill-opacity="1"
         id="g23"
         transform="matrix(0.352778,0,0,0.352778,-1.03933,-0.722665)">
        <g
           id="g22"
           transform="translate(1.993,16.111)">
          <path
             d="M 14.359375,-4.796875 C 14.375,-4.859375 14.4375,-5 14.4375,-5.078125 c 0,-0.109375 -0.07813,-0.203125 -0.203125,-0.203125 -0.07813,0 -0.125,0.015625 -0.1875,0.078125 C 14,-5.1875 14,-5.140625 13.8125,-4.734375 12.59375,-1.84375 11.71875,-0.59375 8.40625,-0.59375 H 5.390625 c -0.28125,0 -0.328125,0 -0.453125,-0.03125 -0.234375,-0.015625 -0.25,-0.0625 -0.25,-0.21875 0,-0.140625 0.046875,-0.265625 0.078125,-0.453125 L 6.203125,-7 h 2.03125 c 1.625,0 1.75,0.34375 1.75,0.96875 0,0.203125 0,0.390625 -0.15625,1.015625 -0.03125,0.078125 -0.0625,0.15625 -0.0625,0.21875 0,0.15625 0.109375,0.21875 0.234375,0.21875 0.1875,0 0.203125,-0.15625 0.28125,-0.4375 l 1.1875,-4.796875 c 0,-0.109375 -0.09375,-0.203125 -0.21875,-0.203125 -0.171875,0 -0.203125,0.078125 -0.28125,0.375 C 10.5625,-8.0625 10.140625,-7.59375 8.296875,-7.59375 H 6.34375 L 7.625,-12.6875 c 0.1875,-0.71875 0.21875,-0.78125 1.078125,-0.78125 h 2.953125 c 2.53125,0 3.046875,0.6875 3.046875,2.25 0,0.01563 0,0.59375 -0.07813,1.28125 -0.01563,0.078125 -0.04687,0.203125 -0.04687,0.25 0,0.171875 0.109375,0.234375 0.234375,0.234375 0.140625,0 0.21875,-0.09375 0.265625,-0.46875 l 0.4375,-3.609375 c 0,-0.0625 0.03125,-0.265625 0.03125,-0.3125 C 15.546875,-14.0625 15.375,-14.0625 15,-14.0625 H 4.921875 c -0.390625,0 -0.609375,0 -0.609375,0.375 0,0.21875 0.15625,0.21875 0.5,0.21875 1.28125,0 1.28125,0.140625 1.28125,0.375 0,0.09375 -0.015625,0.1875 -0.078125,0.40625 L 3.21875,-1.53125 C 3.03125,-0.8125 3,-0.59375 1.546875,-0.59375 c -0.390625,0 -0.59375,0 -0.59375,0.359375 C 0.953125,0 1.078125,0 1.484375,0 h 10.375 c 0.453125,0 0.46875,-0.015625 0.609375,-0.34375 z m 0,0"
             id="path22" />
        </g>
      </g>
    </g>
    <g
       inkscape:label=""
       transform="translate(81.28384,179.56531)"
       id="g27">
      <g
         fill="#000000"
         fill-opacity="1"
         id="g26"
         transform="matrix(0.352778,0,0,0.352778,-1.03933,-0.722665)">
        <g
           id="g25"
           transform="translate(1.993,16.111)">
          <path
             d="M 14.359375,-4.796875 C 14.375,-4.859375 14.4375,-5 14.4375,-5.078125 c 0,-0.109375 -0.07813,-0.203125 -0.203125,-0.203125 -0.07813,0 -0.125,0.015625 -0.1875,0.078125 C 14,-5.1875 14,-5.140625 13.8125,-4.734375 12.59375,-1.84375 11.71875,-0.59375 8.40625,-0.59375 H 5.390625 c -0.28125,0 -0.328125,0 -0.453125,-0.03125 -0.234375,-0.015625 -0.25,-0.0625 -0.25,-0.21875 0,-0.140625 0.046875,-0.265625 0.078125,-0.453125 L 6.203125,-7 h 2.03125 c 1.625,0 1.75,0.34375 1.75,0.96875 0,0.203125 0,0.390625 -0.15625,1.015625 -0.03125,0.078125 -0.0625,0.15625 -0.0625,0.21875 0,0.15625 0.109375,0.21875 0.234375,0.21875 0.1875,0 0.203125,-0.15625 0.28125,-0.4375 l 1.1875,-4.796875 c 0,-0.109375 -0.09375,-0.203125 -0.21875,-0.203125 -0.171875,0 -0.203125,0.078125 -0.28125,0.375 C 10.5625,-8.0625 10.140625,-7.59375 8.296875,-7.59375 H 6.34375 L 7.625,-12.6875 c 0.1875,-0.71875 0.21875,-0.78125 1.078125,-0.78125 h 2.953125 c 2.53125,0 3.046875,0.6875 3.046875,2.25 0,0.01563 0,0.59375 -0.07813,1.28125 -0.01563,0.078125 -0.04687,0.203125 -0.04687,0.25 0,0.171875 0.109375,0.234375 0.234375,0.234375 0.140625,0 0.21875,-0.09375 0.265625,-0.46875 l 0.4375,-3.609375 c 0,-0.0625 0.03125,-0.265625 0.03125,-0.3125 C 15.546875,-14.0625 15.375,-14.0625 15,-14.0625 H 4.921875 c -0.390625,0 -0.609375,0 -0.609375,0.375 0,0.21875 0.15625,0.21875 0.5,0.21875 1.28125,0 1.28125,0.140625 1.28125,0.375 0,0.09375 -0.015625,0.1875 -0.078125,0.40625 L 3.21875,-1.53125 C 3.03125,-0.8125 3,-0.59375 1.546875,-0.59375 c -0.390625,0 -0.59375,0 -0.59375,0.359375 C 0.953125,0 1.078125,0 1.484375,0 h 10.375 c 0.453125,0 0.46875,-0.015625 0.609375,-0.34375 z m 0,0"
             id="path24" />
        </g>
      </g>
    </g>
    <g
       inkscape:label=""
       transform="translate(67.232613,192.48947)"
       id="g30">
      <g
         fill="#000000"
         fill-opacity="1"
         id="g29"
         transform="matrix(0.352778,0,0,0.352778,-0.901524,-0.6914)">
        <g
           id="g28"
           transform="translate(1.993,15.538)">
          <path
             d="m 5.84375,-2.953125 c 0,-0.109375 -0.078125,-0.1875 -0.203125,-0.1875 -0.1875,0 -0.203125,0.0625 -0.3125,0.40625 -0.53125,1.890625 -1.375,2.53125 -2.0625,2.53125 -0.25,0 -0.53125,-0.0625 -0.53125,-0.6875 0,-0.5625 0.234375,-1.171875 0.46875,-1.796875 l 1.4375,-3.84375 c 0.0625,-0.15625 0.21875,-0.53125 0.21875,-0.921875 0,-0.875 -0.625,-1.65625 -1.640625,-1.65625 -1.890625,0 -2.65625,3 -2.65625,3.15625 0,0.09375 0.078125,0.1875 0.21875,0.1875 0.1875,0 0.203125,-0.078125 0.296875,-0.375 0.484375,-1.734375 1.28125,-2.5625 2.078125,-2.5625 0.1875,0 0.546875,0.03125 0.546875,0.6875 0,0.53125 -0.28125,1.21875 -0.4375,1.671875 L 1.8125,-2.5 c -0.125,0.328125 -0.25,0.65625 -0.25,1.03125 0,0.9375 0.640625,1.671875 1.640625,1.671875 1.90625,0 2.640625,-3.015625 2.640625,-3.15625 z m -0.15625,-9.9375 c 0,-0.3125 -0.25,-0.6875 -0.703125,-0.6875 -0.484375,0 -1.015625,0.46875 -1.015625,1 0,0.515625 0.4375,0.6875 0.671875,0.6875 0.5625,0 1.046875,-0.546875 1.046875,-1 z m 0,0"
             id="path27" />
        </g>
      </g>
    </g>
    <g
       inkscape:label=""
       transform="translate(82.432094,192.48947)"
       id="g36">
      <g
         fill="#000000"
         fill-opacity="1"
         id="g35"
         transform="matrix(0.352778,0,0,0.352778,-0.901524,-0.6914)">
        <g
           id="g34"
           transform="translate(1.993,15.538)">
          <path
             d="m 5.84375,-2.953125 c 0,-0.109375 -0.078125,-0.1875 -0.203125,-0.1875 -0.1875,0 -0.203125,0.0625 -0.3125,0.40625 -0.53125,1.890625 -1.375,2.53125 -2.0625,2.53125 -0.25,0 -0.53125,-0.0625 -0.53125,-0.6875 0,-0.5625 0.234375,-1.171875 0.46875,-1.796875 l 1.4375,-3.84375 c 0.0625,-0.15625 0.21875,-0.53125 0.21875,-0.921875 0,-0.875 -0.625,-1.65625 -1.640625,-1.65625 -1.890625,0 -2.65625,3 -2.65625,3.15625 0,0.09375 0.078125,0.1875 0.21875,0.1875 0.1875,0 0.203125,-0.078125 0.296875,-0.375 0.484375,-1.734375 1.28125,-2.5625 2.078125,-2.5625 0.1875,0 0.546875,0.03125 0.546875,0.6875 0,0.53125 -0.28125,1.21875 -0.4375,1.671875 L 1.8125,-2.5 c -0.125,0.328125 -0.25,0.65625 -0.25,1.03125 0,0.9375 0.640625,1.671875 1.640625,1.671875 1.90625,0 2.640625,-3.015625 2.640625,-3.15625 z m -0.15625,-9.9375 c 0,-0.3125 -0.25,-0.6875 -0.703125,-0.6875 -0.484375,0 -1.015625,0.46875 -1.015625,1 0,0.515625 0.4375,0.6875 0.671875,0.6875 0.5625,0 1.046875,-0.546875 1.046875,-1 z m 0,0"
             id="path33" />
        </g>
      </g>
    </g>
    <path
       style="fill:none;stroke:#000000;stroke-width:0.200944;stroke-dasharray:none;paint-order:markers fill stroke"
       d="m 76.077952,170.16684 0.01763,20.37015"
       id="path36"
       sodipodi:nodetypes="cc" />
    <path
       style="fill:none;stroke:#000000;stroke-width:0.2;stroke-dasharray:none;paint-order:markers fill stroke"
       d="m 83.858015,185.67006 v 4.867"
       id="path38" />
    <path
       style="fill:none;stroke:#000000;stroke-width:0.2;stroke-dasharray:none;paint-order:markers fill stroke"
       d="m 68.064168,185.67006 v 4.867"
       id="path39" />
    <g
       inkscape:label=""
       transform="translate(96.504671,192.48947)"
       id="g46">
      <g
         fill="#000000"
         fill-opacity="1"
         id="g45"
         transform="matrix(0.352778,0,0,0.352778,-0.901524,-0.6914)">
        <g
           id="g44"
           transform="translate(1.993,15.538)">
          <path
             d="m 5.84375,-2.953125 c 0,-0.109375 -0.078125,-0.1875 -0.203125,-0.1875 -0.1875,0 -0.203125,0.0625 -0.3125,0.40625 -0.53125,1.890625 -1.375,2.53125 -2.0625,2.53125 -0.25,0 -0.53125,-0.0625 -0.53125,-0.6875 0,-0.5625 0.234375,-1.171875 0.46875,-1.796875 l 1.4375,-3.84375 c 0.0625,-0.15625 0.21875,-0.53125 0.21875,-0.921875 0,-0.875 -0.625,-1.65625 -1.640625,-1.65625 -1.890625,0 -2.65625,3 -2.65625,3.15625 0,0.09375 0.078125,0.1875 0.21875,0.1875 0.1875,0 0.203125,-0.078125 0.296875,-0.375 0.484375,-1.734375 1.28125,-2.5625 2.078125,-2.5625 0.1875,0 0.546875,0.03125 0.546875,0.6875 0,0.53125 -0.28125,1.21875 -0.4375,1.671875 L 1.8125,-2.5 c -0.125,0.328125 -0.25,0.65625 -0.25,1.03125 0,0.9375 0.640625,1.671875 1.640625,1.671875 1.90625,0 2.640625,-3.015625 2.640625,-3.15625 z m -0.15625,-9.9375 c 0,-0.3125 -0.25,-0.6875 -0.703125,-0.6875 -0.484375,0 -1.015625,0.46875 -1.015625,1 0,0.515625 0.4375,0.6875 0.671875,0.6875 0.5625,0 1.046875,-0.546875 1.046875,-1 z m 0,0"
             id="path43" />
        </g>
      </g>
    </g>
    <path
       style="fill:none;stroke:#000000;stroke-width:0.2;stroke-dasharray:none;paint-order:markers fill stroke"
       d="m 76.826012,160.45521 13.439659,-4.98458 m 0,0 0.222453,35.0658"
       id="path46"
       sodipodi:nodetypes="cccc" />
    <path
       style="fill:none;stroke:#000000;stroke-width:0.2;stroke-dasharray:none;paint-order:markers fill stroke"
       d="m 90.179848,155.46188 7.816926,4.84206"
       id="path47"
       sodipodi:nodetypes="cc" />
    <path
       style="fill:none;stroke:#000000;stroke-width:0.2;stroke-dasharray:none;paint-order:markers fill stroke"
       d="m 98.367778,170.05717 v 20.47989"
       id="path48" />
    <g
       inkscape:label=""
       transform="translate(133.65251,148.5659)"
       id="g51">
      <g
         fill="#000000"
         fill-opacity="1"
         id="g50"
         transform="matrix(0.352778,0,0,0.352778,-1.03933,-0.722665)">
        <g
           id="g49"
           transform="translate(1.993,16.111)">
          <path
             d="M 14.359375,-4.796875 C 14.375,-4.859375 14.4375,-5 14.4375,-5.078125 c 0,-0.109375 -0.07813,-0.203125 -0.203125,-0.203125 -0.07813,0 -0.125,0.015625 -0.1875,0.078125 C 14,-5.1875 14,-5.140625 13.8125,-4.734375 12.59375,-1.84375 11.71875,-0.59375 8.40625,-0.59375 H 5.390625 c -0.28125,0 -0.328125,0 -0.453125,-0.03125 -0.234375,-0.015625 -0.25,-0.0625 -0.25,-0.21875 0,-0.140625 0.046875,-0.265625 0.078125,-0.453125 L 6.203125,-7 h 2.03125 c 1.625,0 1.75,0.34375 1.75,0.96875 0,0.203125 0,0.390625 -0.15625,1.015625 -0.03125,0.078125 -0.0625,0.15625 -0.0625,0.21875 0,0.15625 0.109375,0.21875 0.234375,0.21875 0.1875,0 0.203125,-0.15625 0.28125,-0.4375 l 1.1875,-4.796875 c 0,-0.109375 -0.09375,-0.203125 -0.21875,-0.203125 -0.171875,0 -0.203125,0.078125 -0.28125,0.375 C 10.5625,-8.0625 10.140625,-7.59375 8.296875,-7.59375 H 6.34375 L 7.625,-12.6875 c 0.1875,-0.71875 0.21875,-0.78125 1.078125,-0.78125 h 2.953125 c 2.53125,0 3.046875,0.6875 3.046875,2.25 0,0.01563 0,0.59375 -0.07813,1.28125 -0.01563,0.078125 -0.04687,0.203125 -0.04687,0.25 0,0.171875 0.109375,0.234375 0.234375,0.234375 0.140625,0 0.21875,-0.09375 0.265625,-0.46875 l 0.4375,-3.609375 c 0,-0.0625 0.03125,-0.265625 0.03125,-0.3125 C 15.546875,-14.0625 15.375,-14.0625 15,-14.0625 H 4.921875 c -0.390625,0 -0.609375,0 -0.609375,0.375 0,0.21875 0.15625,0.21875 0.5,0.21875 1.28125,0 1.28125,0.140625 1.28125,0.375 0,0.09375 -0.015625,0.1875 -0.078125,0.40625 L 3.21875,-1.53125 C 3.03125,-0.8125 3,-0.59375 1.546875,-0.59375 c -0.390625,0 -0.59375,0 -0.59375,0.359375 C 0.953125,0 1.078125,0 1.484375,0 h 10.375 c 0.453125,0 0.46875,-0.015625 0.609375,-0.34375 z m 0,0"
             id="path49" />
        </g>
      </g>
    </g>
    <g
       id="g84"
       transform="translate(85.062589,5.6559318)">
      <g
         inkscape:label=""
         transform="translate(63.872058,157.23631)"
         id="g54">
        <g
           fill="#000000"
           fill-opacity="1"
           id="g53"
           transform="matrix(0.352778,0,0,0.352778,-1.03933,-0.722665)">
          <g
             id="g52"
             transform="translate(1.993,16.111)">
            <path
               d="M 14.359375,-4.796875 C 14.375,-4.859375 14.4375,-5 14.4375,-5.078125 c 0,-0.109375 -0.07813,-0.203125 -0.203125,-0.203125 -0.07813,0 -0.125,0.015625 -0.1875,0.078125 C 14,-5.1875 14,-5.140625 13.8125,-4.734375 12.59375,-1.84375 11.71875,-0.59375 8.40625,-0.59375 H 5.390625 c -0.28125,0 -0.328125,0 -0.453125,-0.03125 -0.234375,-0.015625 -0.25,-0.0625 -0.25,-0.21875 0,-0.140625 0.046875,-0.265625 0.078125,-0.453125 L 6.203125,-7 h 2.03125 c 1.625,0 1.75,0.34375 1.75,0.96875 0,0.203125 0,0.390625 -0.15625,1.015625 -0.03125,0.078125 -0.0625,0.15625 -0.0625,0.21875 0,0.15625 0.109375,0.21875 0.234375,0.21875 0.1875,0 0.203125,-0.15625 0.28125,-0.4375 l 1.1875,-4.796875 c 0,-0.109375 -0.09375,-0.203125 -0.21875,-0.203125 -0.171875,0 -0.203125,0.078125 -0.28125,0.375 C 10.5625,-8.0625 10.140625,-7.59375 8.296875,-7.59375 H 6.34375 L 7.625,-12.6875 c 0.1875,-0.71875 0.21875,-0.78125 1.078125,-0.78125 h 2.953125 c 2.53125,0 3.046875,0.6875 3.046875,2.25 0,0.01563 0,0.59375 -0.07813,1.28125 -0.01563,0.078125 -0.04687,0.203125 -0.04687,0.25 0,0.171875 0.109375,0.234375 0.234375,0.234375 0.140625,0 0.21875,-0.09375 0.265625,-0.46875 l 0.4375,-3.609375 c 0,-0.0625 0.03125,-0.265625 0.03125,-0.3125 C 15.546875,-14.0625 15.375,-14.0625 15,-14.0625 H 4.921875 c -0.390625,0 -0.609375,0 -0.609375,0.375 0,0.21875 0.15625,0.21875 0.5,0.21875 1.28125,0 1.28125,0.140625 1.28125,0.375 0,0.09375 -0.015625,0.1875 -0.078125,0.40625 L 3.21875,-1.53125 C 3.03125,-0.8125 3,-0.59375 1.546875,-0.59375 c -0.390625,0 -0.59375,0 -0.59375,0.359375 C 0.953125,0 1.078125,0 1.484375,0 h 10.375 c 0.453125,0 0.46875,-0.015625 0.609375,-0.34375 z m 0,0"
               id="path51" />
          </g>
        </g>
      </g>
      <path
         style="fill:none;stroke:#000000;stroke-width:0.2;stroke-dasharray:none;paint-order:markers fill stroke"
         d="m 58.839778,172.28823 7.713935,-7.60132 7.713931,7.60132"
         id="path57"
         sodipodi:nodetypes="ccc" />
      <g
         inkscape:label=""
         transform="translate(56.183878,174.05466)"
         id="g60">
        <g
           fill="#000000"
           fill-opacity="1"
           id="g59"
           transform="matrix(0.352778,0,0,0.352778,-1.03933,-0.722665)">
          <g
             id="g58"
             transform="translate(1.993,16.111)">
            <path
               d="M 14.359375,-4.796875 C 14.375,-4.859375 14.4375,-5 14.4375,-5.078125 c 0,-0.109375 -0.07813,-0.203125 -0.203125,-0.203125 -0.07813,0 -0.125,0.015625 -0.1875,0.078125 C 14,-5.1875 14,-5.140625 13.8125,-4.734375 12.59375,-1.84375 11.71875,-0.59375 8.40625,-0.59375 H 5.390625 c -0.28125,0 -0.328125,0 -0.453125,-0.03125 -0.234375,-0.015625 -0.25,-0.0625 -0.25,-0.21875 0,-0.140625 0.046875,-0.265625 0.078125,-0.453125 L 6.203125,-7 h 2.03125 c 1.625,0 1.75,0.34375 1.75,0.96875 0,0.203125 0,0.390625 -0.15625,1.015625 -0.03125,0.078125 -0.0625,0.15625 -0.0625,0.21875 0,0.15625 0.109375,0.21875 0.234375,0.21875 0.1875,0 0.203125,-0.15625 0.28125,-0.4375 l 1.1875,-4.796875 c 0,-0.109375 -0.09375,-0.203125 -0.21875,-0.203125 -0.171875,0 -0.203125,0.078125 -0.28125,0.375 C 10.5625,-8.0625 10.140625,-7.59375 8.296875,-7.59375 H 6.34375 L 7.625,-12.6875 c 0.1875,-0.71875 0.21875,-0.78125 1.078125,-0.78125 h 2.953125 c 2.53125,0 3.046875,0.6875 3.046875,2.25 0,0.01563 0,0.59375 -0.07813,1.28125 -0.01563,0.078125 -0.04687,0.203125 -0.04687,0.25 0,0.171875 0.109375,0.234375 0.234375,0.234375 0.140625,0 0.21875,-0.09375 0.265625,-0.46875 l 0.4375,-3.609375 c 0,-0.0625 0.03125,-0.265625 0.03125,-0.3125 C 15.546875,-14.0625 15.375,-14.0625 15,-14.0625 H 4.921875 c -0.390625,0 -0.609375,0 -0.609375,0.375 0,0.21875 0.15625,0.21875 0.5,0.21875 1.28125,0 1.28125,0.140625 1.28125,0.375 0,0.09375 -0.015625,0.1875 -0.078125,0.40625 L 3.21875,-1.53125 C 3.03125,-0.8125 3,-0.59375 1.546875,-0.59375 c -0.390625,0 -0.59375,0 -0.59375,0.359375 C 0.953125,0 1.078125,0 1.484375,0 h 10.375 c 0.453125,0 0.46875,-0.015625 0.609375,-0.34375 z m 0,0"
               id="path58" />
          </g>
        </g>
      </g>
      <g
         inkscape:label=""
         transform="translate(71.752122,174.05466)"
         id="g63">
        <g
           fill="#000000"
           fill-opacity="1"
           id="g62"
           transform="matrix(0.352778,0,0,0.352778,-1.03933,-0.722665)">
          <g
             id="g61"
             transform="translate(1.993,16.111)">
            <path
               d="M 14.359375,-4.796875 C 14.375,-4.859375 14.4375,-5 14.4375,-5.078125 c 0,-0.109375 -0.07813,-0.203125 -0.203125,-0.203125 -0.07813,0 -0.125,0.015625 -0.1875,0.078125 C 14,-5.1875 14,-5.140625 13.8125,-4.734375 12.59375,-1.84375 11.71875,-0.59375 8.40625,-0.59375 H 5.390625 c -0.28125,0 -0.328125,0 -0.453125,-0.03125 -0.234375,-0.015625 -0.25,-0.0625 -0.25,-0.21875 0,-0.140625 0.046875,-0.265625 0.078125,-0.453125 L 6.203125,-7 h 2.03125 c 1.625,0 1.75,0.34375 1.75,0.96875 0,0.203125 0,0.390625 -0.15625,1.015625 -0.03125,0.078125 -0.0625,0.15625 -0.0625,0.21875 0,0.15625 0.109375,0.21875 0.234375,0.21875 0.1875,0 0.203125,-0.15625 0.28125,-0.4375 l 1.1875,-4.796875 c 0,-0.109375 -0.09375,-0.203125 -0.21875,-0.203125 -0.171875,0 -0.203125,0.078125 -0.28125,0.375 C 10.5625,-8.0625 10.140625,-7.59375 8.296875,-7.59375 H 6.34375 L 7.625,-12.6875 c 0.1875,-0.71875 0.21875,-0.78125 1.078125,-0.78125 h 2.953125 c 2.53125,0 3.046875,0.6875 3.046875,2.25 0,0.01563 0,0.59375 -0.07813,1.28125 -0.01563,0.078125 -0.04687,0.203125 -0.04687,0.25 0,0.171875 0.109375,0.234375 0.234375,0.234375 0.140625,0 0.21875,-0.09375 0.265625,-0.46875 l 0.4375,-3.609375 c 0,-0.0625 0.03125,-0.265625 0.03125,-0.3125 C 15.546875,-14.0625 15.375,-14.0625 15,-14.0625 H 4.921875 c -0.390625,0 -0.609375,0 -0.609375,0.375 0,0.21875 0.15625,0.21875 0.5,0.21875 1.28125,0 1.28125,0.140625 1.28125,0.375 0,0.09375 -0.015625,0.1875 -0.078125,0.40625 L 3.21875,-1.53125 C 3.03125,-0.8125 3,-0.59375 1.546875,-0.59375 c -0.390625,0 -0.59375,0 -0.59375,0.359375 C 0.953125,0 1.078125,0 1.484375,0 h 10.375 c 0.453125,0 0.46875,-0.015625 0.609375,-0.34375 z m 0,0"
               id="path60" />
          </g>
        </g>
      </g>
      <path
         style="fill:none;stroke:#000000;stroke-width:0.2;stroke-dasharray:none;paint-order:markers fill stroke"
         d="m 66.546233,164.6562 0.01763,20.17657"
         id="path72"
         sodipodi:nodetypes="cc" />
      <path
         style="fill:none;stroke:#000000;stroke-width:0.195983;stroke-dasharray:none;paint-order:markers fill stroke"
         d="m 74.326297,180.15941 v 4.67345"
         id="path73" />
      <path
         style="fill:none;stroke:#000000;stroke-width:0.195495;stroke-dasharray:none;paint-order:markers fill stroke"
         d="m 58.53245,180.15941 v 4.65023"
         id="path74" />
    </g>
    <g
       inkscape:label=""
       transform="translate(127.07126,192.66035)"
       id="g66">
      <g
         fill="#000000"
         fill-opacity="1"
         id="g65"
         transform="matrix(0.352778,0,0,0.352778,-0.901524,-0.6914)">
        <g
           id="g64"
           transform="translate(1.993,15.538)">
          <path
             d="m 5.84375,-2.953125 c 0,-0.109375 -0.078125,-0.1875 -0.203125,-0.1875 -0.1875,0 -0.203125,0.0625 -0.3125,0.40625 -0.53125,1.890625 -1.375,2.53125 -2.0625,2.53125 -0.25,0 -0.53125,-0.0625 -0.53125,-0.6875 0,-0.5625 0.234375,-1.171875 0.46875,-1.796875 l 1.4375,-3.84375 c 0.0625,-0.15625 0.21875,-0.53125 0.21875,-0.921875 0,-0.875 -0.625,-1.65625 -1.640625,-1.65625 -1.890625,0 -2.65625,3 -2.65625,3.15625 0,0.09375 0.078125,0.1875 0.21875,0.1875 0.1875,0 0.203125,-0.078125 0.296875,-0.375 0.484375,-1.734375 1.28125,-2.5625 2.078125,-2.5625 0.1875,0 0.546875,0.03125 0.546875,0.6875 0,0.53125 -0.28125,1.21875 -0.4375,1.671875 L 1.8125,-2.5 c -0.125,0.328125 -0.25,0.65625 -0.25,1.03125 0,0.9375 0.640625,1.671875 1.640625,1.671875 1.90625,0 2.640625,-3.015625 2.640625,-3.15625 z m -0.15625,-9.9375 c 0,-0.3125 -0.25,-0.6875 -0.703125,-0.6875 -0.484375,0 -1.015625,0.46875 -1.015625,1 0,0.515625 0.4375,0.6875 0.671875,0.6875 0.5625,0 1.046875,-0.546875 1.046875,-1 z m 0,0"
             id="path63" />
        </g>
      </g>
    </g>
    <g
       inkscape:label=""
       transform="translate(143.5033,192.66035)"
       id="g72">
      <g
         fill="#000000"
         fill-opacity="1"
         id="g71"
         transform="matrix(0.352778,0,0,0.352778,-0.901524,-0.6914)">
        <g
           id="g70"
           transform="translate(1.993,15.538)">
          <path
             d="m 4.1026637,-2.953125 c 0,-0.109375 -0.078125,-0.1875 -0.203125,-0.1875 -0.1875,0 -0.203125,0.0625 -0.3125,0.40625 -0.53125,1.890625 -1.375,2.53125 -2.0625,2.53125 -0.25,0 -0.53125,-0.0625 -0.53125,-0.6875 0,-0.5625 0.234375,-1.171875 0.46875,-1.796875 l 1.4375,-3.84375 c 0.0625,-0.15625 0.21875,-0.53125 0.21875,-0.921875 0,-0.875 -0.625,-1.65625 -1.640625,-1.65625 -1.890625,0 -2.65625,3 -2.65625,3.15625 0,0.09375 0.078125,0.1875 0.21875,0.1875 0.1875,0 0.203125,-0.078125 0.296875,-0.375 0.484375,-1.734375 1.28125,-2.5625 2.078125,-2.5625 0.1875,0 0.546875,0.03125 0.546875,0.6875 0,0.53125 -0.28125,1.21875 -0.4375,1.671875 L 0.0714137,-2.5 c -0.125,0.328125 -0.25,0.65625 -0.25,1.03125 0,0.9375 0.640625,1.671875 1.640625,1.671875 1.90625,0 2.640625,-3.015625 2.640625,-3.15625 z m -0.15625,-9.9375 c 0,-0.3125 -0.25,-0.6875 -0.703125,-0.6875 -0.484375,0 -1.015625,0.46875 -1.015625,1 0,0.515625 0.4375,0.6875 0.671875,0.6875 0.5625,0 1.046875,-0.546875 1.046875,-1 z m 0,0"
             id="path69" />
        </g>
      </g>
    </g>
    <g
       inkscape:label=""
       transform="translate(158.0557,192.66035)"
       id="g80">
      <g
         fill="#000000"
         fill-opacity="1"
         id="g79"
         transform="matrix(0.352778,0,0,0.352778,-0.901524,-0.6914)">
        <g
           id="g78"
           transform="translate(1.993,15.538)">
          <path
             d="m 6.6987551,-2.953125 c 0,-0.109375 -0.078125,-0.1875 -0.203125,-0.1875 -0.1875,0 -0.203125,0.0625 -0.3125,0.40625 -0.53125,1.890625 -1.375,2.53125 -2.0625,2.53125 -0.25,0 -0.53125,-0.0625 -0.53125,-0.6875 0,-0.5625 0.234375,-1.171875 0.46875,-1.796875 l 1.4375,-3.84375 c 0.0625,-0.15625 0.21875,-0.53125 0.21875,-0.921875 0,-0.875 -0.625,-1.65625 -1.640625,-1.65625 -1.890625,0 -2.65625,3 -2.65625,3.15625 0,0.09375 0.078125,0.1875 0.21875,0.1875 0.1875,0 0.203125,-0.078125 0.296875,-0.375 0.484375,-1.734375 1.28125,-2.5625 2.078125,-2.5625 0.1875,0 0.546875,0.03125 0.546875,0.6875 0,0.53125 -0.28125,1.21875 -0.4375,1.671875 L 2.6675051,-2.5 c -0.125,0.328125 -0.25,0.65625 -0.25,1.03125 0,0.9375 0.640625,1.671875 1.640625,1.671875 1.90625,0 2.640625,-3.015625 2.640625,-3.15625 z m -0.15625,-9.9375 c 0,-0.3125 -0.25,-0.6875 -0.703125,-0.6875 -0.484375,0 -1.015625,0.46875 -1.015625,1 0,0.515625 0.4375,0.6875 0.671875,0.6875 0.5625,0 1.046875,-0.546875 1.046875,-1 z m 0,0"
             id="path77" />
        </g>
      </g>
    </g>
    <path
       style="fill:none;stroke:#000000;stroke-width:0.2;stroke-dasharray:none;paint-order:markers fill stroke"
       d="m 149.61369,160.38372 -13.43966,-4.98458 m 0,0 -0.22246,35.0658"
       id="path80"
       sodipodi:nodetypes="cccc" />
    <path
       style="fill:none;stroke:#000000;stroke-width:0.2;stroke-dasharray:none;paint-order:markers fill stroke"
       d="m 136.26,155.39039 -7.81692,4.84206"
       id="path81"
       sodipodi:nodetypes="cc" />
    <g
       id="g85"
       transform="translate(39.368383,4.9295991)">
      <g
         inkscape:label=""
         transform="translate(86.361885,157.23631)"
         id="g57"
         style="paint-order:markers fill stroke">
        <g
           fill="#000000"
           fill-opacity="1"
           id="g56"
           transform="matrix(0.352778,0,0,0.352778,-1.03933,-0.722665)"
           style="paint-order:markers fill stroke">
          <g
             id="g55"
             transform="translate(1.993,16.111)"
             style="paint-order:markers fill stroke">
            <path
               d="M 14.359375,-4.796875 C 14.375,-4.859375 14.4375,-5 14.4375,-5.078125 c 0,-0.109375 -0.07813,-0.203125 -0.203125,-0.203125 -0.07813,0 -0.125,0.015625 -0.1875,0.078125 C 14,-5.1875 14,-5.140625 13.8125,-4.734375 12.59375,-1.84375 11.71875,-0.59375 8.40625,-0.59375 H 5.390625 c -0.28125,0 -0.328125,0 -0.453125,-0.03125 -0.234375,-0.015625 -0.25,-0.0625 -0.25,-0.21875 0,-0.140625 0.046875,-0.265625 0.078125,-0.453125 L 6.203125,-7 h 2.03125 c 1.625,0 1.75,0.34375 1.75,0.96875 0,0.203125 0,0.390625 -0.15625,1.015625 -0.03125,0.078125 -0.0625,0.15625 -0.0625,0.21875 0,0.15625 0.109375,0.21875 0.234375,0.21875 0.1875,0 0.203125,-0.15625 0.28125,-0.4375 l 1.1875,-4.796875 c 0,-0.109375 -0.09375,-0.203125 -0.21875,-0.203125 -0.171875,0 -0.203125,0.078125 -0.28125,0.375 C 10.5625,-8.0625 10.140625,-7.59375 8.296875,-7.59375 H 6.34375 L 7.625,-12.6875 c 0.1875,-0.71875 0.21875,-0.78125 1.078125,-0.78125 h 2.953125 c 2.53125,0 3.046875,0.6875 3.046875,2.25 0,0.01563 0,0.59375 -0.07813,1.28125 -0.01563,0.078125 -0.04687,0.203125 -0.04687,0.25 0,0.171875 0.109375,0.234375 0.234375,0.234375 0.140625,0 0.21875,-0.09375 0.265625,-0.46875 l 0.4375,-3.609375 c 0,-0.0625 0.03125,-0.265625 0.03125,-0.3125 C 15.546875,-14.0625 15.375,-14.0625 15,-14.0625 H 4.921875 c -0.390625,0 -0.609375,0 -0.609375,0.375 0,0.21875 0.15625,0.21875 0.5,0.21875 1.28125,0 1.28125,0.140625 1.28125,0.375 0,0.09375 -0.015625,0.1875 -0.078125,0.40625 L 3.21875,-1.53125 C 3.03125,-0.8125 3,-0.59375 1.546875,-0.59375 c -0.390625,0 -0.59375,0 -0.59375,0.359375 C 0.953125,0 1.078125,0 1.484375,0 h 10.375 c 0.453125,0 0.46875,-0.015625 0.609375,-0.34375 z m 0,0"
               id="path54"
               style="paint-order:markers fill stroke" />
          </g>
        </g>
      </g>
      <path
         style="fill:none;stroke:#000000;stroke-width:0.202473;stroke-dasharray:none;paint-order:markers fill stroke"
         d="m 88.83606,164.54652 v 20.98945"
         id="path82" />
    </g>
    <g
       inkscape:label=""
       transform="translate(88.492557,192.66034)"
       id="g89">
      <g
         fill="#000000"
         fill-opacity="1"
         id="g2"
         transform="matrix(0.352778,0,0,0.352778,-1.10547,-0.392156)">
        <g
           id="use1"
           transform="translate(1.993,13.471)">
          <path
             d="m 12.46875,-11.53125 c 0.125,-0.265625 0.15625,-0.3125 0.15625,-0.40625 0,-0.234375 -0.1875,-0.421875 -0.421875,-0.421875 -0.203125,0 -0.328125,0.15625 -0.46875,0.46875 L 6.875,-0.96875 2.03125,-11.921875 c -0.171875,-0.390625 -0.34375,-0.4375 -0.484375,-0.4375 -0.21875,0 -0.40625,0.1875 -0.40625,0.421875 0,0.04687 0,0.07813 0.125,0.328125 l 5.140625,11.625 C 6.5625,0.375 6.6875,0.453125 6.875,0.453125 c 0.265625,0 0.328125,-0.140625 0.453125,-0.4375 z m 0,0"
             id="path2" />
        </g>
      </g>
    </g>
    <g
       inkscape:label=""
       transform="translate(74.170333,192.66034)"
       id="g92">
      <g
         fill="#000000"
         fill-opacity="1"
         id="g91"
         transform="matrix(0.352778,0,0,0.352778,-1.10547,-0.392156)">
        <g
           id="g90"
           transform="translate(1.993,13.471)">
          <path
             d="m 7.359375,-11.921875 c -0.171875,-0.34375 -0.296875,-0.4375 -0.484375,-0.4375 -0.265625,0 -0.328125,0.15625 -0.453125,0.4375 L 1.28125,-0.375 c -0.125,0.265625 -0.140625,0.3125 -0.140625,0.421875 0,0.21875 0.1875,0.40625 0.40625,0.40625 0.140625,0 0.3125,-0.046875 0.484375,-0.4375 l 4.84375,-10.9375 4.859375,10.9375 c 0.1875,0.4375 0.390625,0.4375 0.46875,0.4375 0.234375,0 0.421875,-0.1875 0.421875,-0.40625 0,-0.046875 0,-0.09375 -0.125,-0.34375 z m 0,0"
             id="path89" />
        </g>
      </g>
    </g>
    <g
       inkscape:label=""
       transform="translate(133.9286,192.83122)"
       id="g98">
      <g
         fill="#000000"
         fill-opacity="1"
         id="g97"
         transform="matrix(0.352778,0,0,0.352778,-1.10547,-0.392156)">
        <g
           id="g96"
           transform="translate(1.993,13.471)">
          <path
             d="m 7.359375,-11.921875 c -0.171875,-0.34375 -0.296875,-0.4375 -0.484375,-0.4375 -0.265625,0 -0.328125,0.15625 -0.453125,0.4375 L 1.28125,-0.375 c -0.125,0.265625 -0.140625,0.3125 -0.140625,0.421875 0,0.21875 0.1875,0.40625 0.40625,0.40625 0.140625,0 0.3125,-0.046875 0.484375,-0.4375 l 4.84375,-10.9375 4.859375,10.9375 c 0.1875,0.4375 0.390625,0.4375 0.46875,0.4375 0.234375,0 0.421875,-0.1875 0.421875,-0.40625 0,-0.046875 0,-0.09375 -0.125,-0.34375 z m 0,0"
             id="path95" />
        </g>
      </g>
    </g>
    <g
       inkscape:label=""
       transform="translate(149.66123,192.83122)"
       id="g101">
      <g
         fill="#000000"
         fill-opacity="1"
         id="g100"
         transform="matrix(0.352778,0,0,0.352778,-1.10547,-0.392156)">
        <g
           id="g99"
           transform="translate(1.993,13.471)">
          <path
             d="m 12.46875,-11.53125 c 0.125,-0.265625 0.15625,-0.3125 0.15625,-0.40625 0,-0.234375 -0.1875,-0.421875 -0.421875,-0.421875 -0.203125,0 -0.328125,0.15625 -0.46875,0.46875 L 6.875,-0.96875 2.03125,-11.921875 c -0.171875,-0.390625 -0.34375,-0.4375 -0.484375,-0.4375 -0.21875,0 -0.40625,0.1875 -0.40625,0.421875 0,0.04687 0,0.07813 0.125,0.328125 l 5.140625,11.625 C 6.5625,0.375 6.6875,0.453125 6.875,0.453125 c 0.265625,0 0.328125,-0.140625 0.453125,-0.4375 z m 0,0"
             id="path98" />
        </g>
      </g>
    </g>
  </g>
</svg>
