<?xml version="1.0" encoding="UTF-8" standalone="no"?>
<!-- Created with Inkscape (http://www.inkscape.org/) -->

<svg
   width="210mm"
   height="297mm"
   viewBox="0 0 210 297"
   version="1.1"
   id="svg1"
   inkscape:version="1.3.2 (091e20ef0f, 2023-11-25)"
   sodipodi:docname="empty.svg"
   xmlns:inkscape="http://www.inkscape.org/namespaces/inkscape"
   xmlns:sodipodi="http://sodipodi.sourceforge.net/DTD/sodipodi-0.dtd"
   xmlns="http://www.w3.org/2000/svg"
   xmlns:svg="http://www.w3.org/2000/svg">
  <sodipodi:namedview
     id="namedview1"
     pagecolor="#ffffff"
     bordercolor="#000000"
     borderopacity="0.25"
     inkscape:showpageshadow="2"
     inkscape:pageopacity="0.0"
     inkscape:pagecheckerboard="0"
     inkscape:deskcolor="#d1d1d1"
     inkscape:document-units="mm"
     inkscape:zoom="2.0359279"
     inkscape:cx="494.1236"
     inkscape:cy="348.73534"
     inkscape:window-width="1920"
     inkscape:window-height="1012"
     inkscape:window-x="0"
     inkscape:window-y="0"
     inkscape:window-maximized="1"
     inkscape:current-layer="layer1" />
  <defs
     id="defs1">
    <marker
       style="overflow:visible"
       id="ArrowWideRounded"
       refX="0"
       refY="0"
       orient="auto-start-reverse"
       inkscape:stockid="Wide, rounded arrow"
       markerWidth="1"
       markerHeight="1"
       viewBox="0 0 1 1"
       inkscape:isstock="true"
       inkscape:collect="always"
       preserveAspectRatio="xMidYMid">
      <path
         style="fill:none;stroke:context-stroke;stroke-width:1;stroke-linecap:round"
         d="M 3,-3 0,0 3,3"
         transform="rotate(180,0.125,0)"
         sodipodi:nodetypes="ccc"
         id="path11" />
    </marker>
  </defs>
  <g
     inkscape:label="Layer 1"
     inkscape:groupmode="layer"
     id="layer1">
    <g
       id="g60">
      <g
         id="g48"
         transform="translate(1.9435472)">
        <g
           id="g13"
           transform="translate(79.677101,-24.428553)">
          <path
             id="rect1"
             style="fill-opacity:0;stroke:#010000;stroke-width:0.2"
             d="m 59.485618,97.89824 -11.224701,-0.0064 m 0,0 -0.04337,-10.921621 H 59.485618 V 97.89824"
             sodipodi:nodetypes="cccccc" />
          <g
             inkscape:label=""
             transform="translate(49.965009,89.401367)"
             id="g5">
            <g
               fill="#000000"
               fill-opacity="1"
               id="g3"
               transform="matrix(0.352778,0,0,0.352778,-0.884987,-0.706481)">
              <g
                 id="use2"
                 transform="translate(1.993,16.112)">
                <path
                   d="M 9.8125,-8.390625 7.875,-12.90625 c 0.265625,-0.5 0.890625,-0.578125 1.125,-0.609375 0.125,0 0.359375,-0.01563 0.359375,-0.359375 0,-0.234375 -0.1875,-0.234375 -0.3125,-0.234375 -0.34375,0 -0.765625,0.04687 -1.109375,0.04687 H 6.734375 c -1.265625,0 -2.171875,-0.04687 -2.1875,-0.04687 -0.171875,0 -0.375,0 -0.375,0.390625 0,0.203125 0.1875,0.203125 0.453125,0.203125 1.203125,0 1.28125,0.21875 1.484375,0.703125 l 2.46875,5.75 -4.484375,4.796875 C 3.34375,-1.46875 2.453125,-0.6875 0.921875,-0.59375 0.6875,-0.578125 0.515625,-0.578125 0.515625,-0.203125 0.515625,-0.140625 0.53125,0 0.765625,0 1.046875,0 1.359375,-0.046875 1.65625,-0.046875 H 2.625 C 3.28125,-0.046875 4,0 4.640625,0 c 0.15625,0 0.40625,0 0.40625,-0.375 0,-0.203125 -0.15625,-0.21875 -0.28125,-0.21875 C 4.359375,-0.640625 4.09375,-0.875 4.09375,-1.203125 c 0,-0.34375 0.25,-0.59375 0.84375,-1.21875 l 1.84375,-2 c 0.453125,-0.46875 1.546875,-1.671875 2,-2.125 l 2.171875,5.078125 c 0.01563,0.046875 0.09375,0.25 0.09375,0.265625 0,0.1875 -0.453125,0.5625 -1.109375,0.609375 -0.125,0 -0.359375,0.015625 -0.359375,0.390625 C 9.578125,0 9.796875,0 9.890625,0 10.25,0 10.65625,-0.046875 11.015625,-0.046875 h 2.265625 c 0.375,0 0.765625,0.046875 1.109375,0.046875 0.15625,0 0.375,0 0.375,-0.390625 0,-0.203125 -0.203125,-0.203125 -0.390625,-0.203125 -1.234375,-0.03125 -1.28125,-0.125 -1.625,-0.890625 l -2.734375,-6.40625 2.625,-2.8125 c 0.203125,-0.203125 0.6875,-0.71875 0.875,-0.921875 0.875,-0.9375 1.703125,-1.78125 3.375,-1.890625 0.21875,-0.01563 0.421875,-0.01563 0.421875,-0.359375 0,-0.234375 -0.1875,-0.234375 -0.265625,-0.234375 -0.296875,0 -0.609375,0.04687 -0.890625,0.04687 h -0.953125 c -0.65625,0 -1.390625,-0.04687 -2.03125,-0.04687 -0.140625,0 -0.390625,0 -0.390625,0.375 0,0.203125 0.15625,0.21875 0.28125,0.21875 0.328125,0.04687 0.671875,0.21875 0.671875,0.609375 l -0.01563,0.03125 c -0.03125,0.15625 -0.0625,0.359375 -0.296875,0.609375 z m 0,0"
                   id="path4" />
              </g>
            </g>
            <g
               fill="#000000"
               fill-opacity="1"
               id="g4"
               transform="matrix(0.352778,0,0,0.352778,-0.884987,-0.706481)">
              <g
                 id="use3"
                 transform="translate(18.784,19.211)">
                <path
                   d="m 4.125,-9.1875 c 0,-0.34375 0,-0.34375 -0.28125,-0.34375 C 3.5,-9.15625 2.78125,-8.625 1.3125,-8.625 v 0.421875 c 0.328125,0 1.046875,0 1.828125,-0.375 v 7.46875 c 0,0.515625 -0.046875,0.6875 -1.296875,0.6875 H 1.390625 V 0 c 0.390625,-0.03125 1.78125,-0.03125 2.25,-0.03125 0.46875,0 1.859375,0 2.234375,0.03125 V -0.421875 H 5.4375 c -1.265625,0 -1.3125,-0.171875 -1.3125,-0.6875 z m 0,0"
                   id="path5" />
              </g>
            </g>
          </g>
        </g>
        <path
           id="rect5"
           style="fill-opacity:0;stroke:#010000;stroke-width:0.2"
           d="m 139.2183,62.544172 h 11.26807 V 73.472193 H 139.2183 Z"
           sodipodi:nodetypes="ccccc" />
        <g
           inkscape:label=""
           transform="translate(140.86809,64.972814)"
           id="g11">
          <g
             fill="#000000"
             fill-opacity="1"
             id="g8"
             transform="matrix(0.352778,0,0,0.352778,-0.884987,-0.706481)">
            <g
               id="g7"
               transform="translate(1.993,16.112)">
              <path
                 d="M 9.8125,-8.390625 7.875,-12.90625 c 0.265625,-0.5 0.890625,-0.578125 1.125,-0.609375 0.125,0 0.359375,-0.01563 0.359375,-0.359375 0,-0.234375 -0.1875,-0.234375 -0.3125,-0.234375 -0.34375,0 -0.765625,0.04687 -1.109375,0.04687 H 6.734375 c -1.265625,0 -2.171875,-0.04687 -2.1875,-0.04687 -0.171875,0 -0.375,0 -0.375,0.390625 0,0.203125 0.1875,0.203125 0.453125,0.203125 1.203125,0 1.28125,0.21875 1.484375,0.703125 l 2.46875,5.75 -4.484375,4.796875 C 3.34375,-1.46875 2.453125,-0.6875 0.921875,-0.59375 0.6875,-0.578125 0.515625,-0.578125 0.515625,-0.203125 0.515625,-0.140625 0.53125,0 0.765625,0 1.046875,0 1.359375,-0.046875 1.65625,-0.046875 H 2.625 C 3.28125,-0.046875 4,0 4.640625,0 c 0.15625,0 0.40625,0 0.40625,-0.375 0,-0.203125 -0.15625,-0.21875 -0.28125,-0.21875 C 4.359375,-0.640625 4.09375,-0.875 4.09375,-1.203125 c 0,-0.34375 0.25,-0.59375 0.84375,-1.21875 l 1.84375,-2 c 0.453125,-0.46875 1.546875,-1.671875 2,-2.125 l 2.171875,5.078125 c 0.01563,0.046875 0.09375,0.25 0.09375,0.265625 0,0.1875 -0.453125,0.5625 -1.109375,0.609375 -0.125,0 -0.359375,0.015625 -0.359375,0.390625 C 9.578125,0 9.796875,0 9.890625,0 10.25,0 10.65625,-0.046875 11.015625,-0.046875 h 2.265625 c 0.375,0 0.765625,0.046875 1.109375,0.046875 0.15625,0 0.375,0 0.375,-0.390625 0,-0.203125 -0.203125,-0.203125 -0.390625,-0.203125 -1.234375,-0.03125 -1.28125,-0.125 -1.625,-0.890625 l -2.734375,-6.40625 2.625,-2.8125 c 0.203125,-0.203125 0.6875,-0.71875 0.875,-0.921875 0.875,-0.9375 1.703125,-1.78125 3.375,-1.890625 0.21875,-0.01563 0.421875,-0.01563 0.421875,-0.359375 0,-0.234375 -0.1875,-0.234375 -0.265625,-0.234375 -0.296875,0 -0.609375,0.04687 -0.890625,0.04687 h -0.953125 c -0.65625,0 -1.390625,-0.04687 -2.03125,-0.04687 -0.140625,0 -0.390625,0 -0.390625,0.375 0,0.203125 0.15625,0.21875 0.28125,0.21875 0.328125,0.04687 0.671875,0.21875 0.671875,0.609375 l -0.01563,0.03125 c -0.03125,0.15625 -0.0625,0.359375 -0.296875,0.609375 z m 0,0"
                 id="path7" />
            </g>
          </g>
          <g
             fill="#000000"
             fill-opacity="1"
             id="g10"
             transform="matrix(0.352778,0,0,0.352778,-0.884987,-0.706481)">
            <g
               id="g9"
               transform="translate(18.784,19.211)">
              <path
                 d="M 6.3125,-2.40625 H 6 c -0.046875,0.234375 -0.15625,1.03125 -0.3125,1.265625 -0.09375,0.125 -0.90625,0.125 -1.34375,0.125 H 1.6875 c 0.390625,-0.328125 1.265625,-1.25 1.640625,-1.59375 2.1875,-2.015625 2.984375,-2.75 2.984375,-4.171875 0,-1.65625 -1.3125,-2.75 -2.96875,-2.75 -1.671875,0 -2.640625,1.40625 -2.640625,2.640625 0,0.734375 0.625,0.734375 0.671875,0.734375 0.296875,0 0.671875,-0.21875 0.671875,-0.671875 C 2.046875,-7.234375 1.78125,-7.5 1.375,-7.5 1.25,-7.5 1.21875,-7.5 1.171875,-7.484375 1.453125,-8.46875 2.21875,-9.125 3.15625,-9.125 4.375,-9.125 5.125,-8.109375 5.125,-6.78125 5.125,-5.5625 4.421875,-4.5 3.59375,-3.578125 L 0.703125,-0.34375 V 0 H 5.9375 Z m 0,0"
                 id="path8" />
            </g>
          </g>
        </g>
        <g
           inkscape:label=""
           transform="translate(152.45418,67.619576)"
           id="g18">
          <g
             fill="#000000"
             fill-opacity="1"
             id="g2"
             transform="matrix(0.352778,0,0,0.352778,-1.33147,-1.73192)">
            <g
               id="use1"
               transform="translate(1.993,11.175)">
              <path
                 d="m 3.96875,-5.171875 c 0,-0.59375 -0.5,-1.09375 -1.09375,-1.09375 -0.609375,0 -1.09375,0.5 -1.09375,1.09375 0,0.609375 0.484375,1.109375 1.09375,1.109375 0.59375,0 1.09375,-0.5 1.09375,-1.109375 z m 0,0"
                 id="path13" />
            </g>
          </g>
          <g
             fill="#000000"
             fill-opacity="1"
             id="g15"
             transform="matrix(0.352778,0,0,0.352778,-1.33147,-1.73192)">
            <g
               id="g14"
               transform="translate(11.18368,11.175)">
              <path
                 d="m 3.96875,-5.171875 c 0,-0.59375 -0.5,-1.09375 -1.09375,-1.09375 -0.609375,0 -1.09375,0.5 -1.09375,1.09375 0,0.609375 0.484375,1.109375 1.09375,1.109375 0.59375,0 1.09375,-0.5 1.09375,-1.109375 z m 0,0"
                 id="path14" />
            </g>
          </g>
          <g
             fill="#000000"
             fill-opacity="1"
             id="g17"
             transform="matrix(0.352778,0,0,0.352778,-1.33147,-1.73192)">
            <g
               id="g16"
               transform="translate(20.353697,11.175)">
              <path
                 d="m 3.96875,-5.171875 c 0,-0.59375 -0.5,-1.09375 -1.09375,-1.09375 -0.609375,0 -1.09375,0.5 -1.09375,1.09375 0,0.609375 0.484375,1.109375 1.09375,1.109375 0.59375,0 1.09375,-0.5 1.09375,-1.109375 z m 0,0"
                 id="path6" />
            </g>
          </g>
        </g>
        <g
           id="g28"
           transform="translate(79.677101,-24.428553)">
          <path
             id="rect7"
             style="fill-opacity:0;stroke:#010000;stroke-width:0.2"
             d="M 82.035851,86.972725 H 93.303922 V 97.900746 H 82.035851 Z" />
          <g
             inkscape:label=""
             transform="translate(83.396245,89.376562)"
             id="g23">
            <g
               fill="#000000"
               fill-opacity="1"
               id="g20"
               transform="matrix(0.352778,0,0,0.352778,-0.884987,-0.706481)">
              <g
                 id="g19"
                 transform="translate(1.993,16.112)">
                <path
                   d="M 9.8125,-8.390625 7.875,-12.90625 c 0.265625,-0.5 0.890625,-0.578125 1.125,-0.609375 0.125,0 0.359375,-0.01563 0.359375,-0.359375 0,-0.234375 -0.1875,-0.234375 -0.3125,-0.234375 -0.34375,0 -0.765625,0.04687 -1.109375,0.04687 H 6.734375 c -1.265625,0 -2.171875,-0.04687 -2.1875,-0.04687 -0.171875,0 -0.375,0 -0.375,0.390625 0,0.203125 0.1875,0.203125 0.453125,0.203125 1.203125,0 1.28125,0.21875 1.484375,0.703125 l 2.46875,5.75 -4.484375,4.796875 C 3.34375,-1.46875 2.453125,-0.6875 0.921875,-0.59375 0.6875,-0.578125 0.515625,-0.578125 0.515625,-0.203125 0.515625,-0.140625 0.53125,0 0.765625,0 1.046875,0 1.359375,-0.046875 1.65625,-0.046875 H 2.625 C 3.28125,-0.046875 4,0 4.640625,0 c 0.15625,0 0.40625,0 0.40625,-0.375 0,-0.203125 -0.15625,-0.21875 -0.28125,-0.21875 C 4.359375,-0.640625 4.09375,-0.875 4.09375,-1.203125 c 0,-0.34375 0.25,-0.59375 0.84375,-1.21875 l 1.84375,-2 c 0.453125,-0.46875 1.546875,-1.671875 2,-2.125 l 2.171875,5.078125 c 0.01563,0.046875 0.09375,0.25 0.09375,0.265625 0,0.1875 -0.453125,0.5625 -1.109375,0.609375 -0.125,0 -0.359375,0.015625 -0.359375,0.390625 C 9.578125,0 9.796875,0 9.890625,0 10.25,0 10.65625,-0.046875 11.015625,-0.046875 h 2.265625 c 0.375,0 0.765625,0.046875 1.109375,0.046875 0.15625,0 0.375,0 0.375,-0.390625 0,-0.203125 -0.203125,-0.203125 -0.390625,-0.203125 -1.234375,-0.03125 -1.28125,-0.125 -1.625,-0.890625 l -2.734375,-6.40625 2.625,-2.8125 c 0.203125,-0.203125 0.6875,-0.71875 0.875,-0.921875 0.875,-0.9375 1.703125,-1.78125 3.375,-1.890625 0.21875,-0.01563 0.421875,-0.01563 0.421875,-0.359375 0,-0.234375 -0.1875,-0.234375 -0.265625,-0.234375 -0.296875,0 -0.609375,0.04687 -0.890625,0.04687 h -0.953125 c -0.65625,0 -1.390625,-0.04687 -2.03125,-0.04687 -0.140625,0 -0.390625,0 -0.390625,0.375 0,0.203125 0.15625,0.21875 0.28125,0.21875 0.328125,0.04687 0.671875,0.21875 0.671875,0.609375 l -0.01563,0.03125 c -0.03125,0.15625 -0.0625,0.359375 -0.296875,0.609375 z m 0,0"
                   id="path18" />
              </g>
            </g>
            <g
               fill="#000000"
               fill-opacity="1"
               id="g22"
               transform="matrix(0.352778,0,0,0.352778,-0.884987,-0.706481)">
              <g
                 id="g21"
                 transform="translate(18.784,19.211)">
                <path
                   d="M 2.953125,-4.203125 C 2.984375,-4.28125 3.34375,-5 3.875,-5.46875 c 0.375,-0.34375 0.859375,-0.5625 1.421875,-0.5625 0.5625,0 0.765625,0.421875 0.765625,1 0,0.8125 -0.578125,2.453125 -0.875,3.21875 -0.125,0.34375 -0.203125,0.53125 -0.203125,0.796875 0,0.640625 0.453125,1.15625 1.140625,1.15625 1.328125,0 1.828125,-2.109375 1.828125,-2.1875 C 7.953125,-2.125 7.90625,-2.1875 7.8125,-2.1875 c -0.125,0 -0.140625,0.046875 -0.203125,0.296875 -0.34375,1.171875 -0.875,1.75 -1.4375,1.75 -0.140625,0 -0.375,-0.015625 -0.375,-0.46875 0,-0.359375 0.15625,-0.796875 0.234375,-1 C 6.328125,-2.390625 6.921875,-4 6.921875,-4.8125 c 0,-0.875 -0.5,-1.515625 -1.59375,-1.515625 -1.265625,0 -1.9375,0.90625 -2.203125,1.265625 C 3.078125,-5.875 2.5,-6.328125 1.859375,-6.328125 c -0.453125,0 -0.765625,0.28125 -1.015625,0.765625 -0.25,0.515625 -0.453125,1.375 -0.453125,1.4375 0,0.046875 0.046875,0.125 0.15625,0.125 0.109375,0 0.125,-0.015625 0.21875,-0.34375 0.21875,-0.875 0.484375,-1.6875 1.0625,-1.6875 0.328125,0 0.4375,0.21875 0.4375,0.65625 0,0.3125 -0.140625,0.875 -0.25,1.3125 L 1.625,-2.515625 c -0.0625,0.28125 -0.21875,0.921875 -0.296875,1.1875 -0.09375,0.359375 -0.25,1.046875 -0.25,1.109375 0,0.203125 0.15625,0.359375 0.375,0.359375 0.171875,0 0.375,-0.078125 0.484375,-0.296875 0.03125,-0.078125 0.15625,-0.578125 0.234375,-0.859375 l 0.3125,-1.296875 z m 0,0"
                   id="path20" />
              </g>
            </g>
          </g>
        </g>
        <g
           inkscape:label=""
           transform="translate(114.13655,66.365559)"
           id="g27">
          <g
             fill="#000000"
             fill-opacity="1"
             id="g12"
             transform="matrix(0.352778,0,0,0.352778,-0.99523,-0.627459)">
            <g
               id="g6"
               transform="translate(1.993,10.888)">
              <path
                 d="m 9.5625,-5.21875 c 0,-2.015625 -1.140625,-3.890625 -3.328125,-3.890625 -2.703125,0 -5.40625,2.953125 -5.40625,5.890625 0,1.796875 1.109375,3.421875 3.21875,3.421875 1.28125,0 2.8125,-0.5 4.28125,-1.734375 0.28125,1.15625 0.921875,1.734375 1.8125,1.734375 1.109375,0 1.671875,-1.15625 1.671875,-1.421875 0,-0.1875 -0.140625,-0.1875 -0.203125,-0.1875 -0.171875,0 -0.1875,0.0625 -0.25,0.234375 -0.1875,0.515625 -0.65625,0.96875 -1.15625,0.96875 -0.640625,0 -0.640625,-1.328125 -0.640625,-2.578125 2.109375,-2.53125 2.609375,-5.125 2.609375,-5.15625 0,-0.1875 -0.171875,-0.1875 -0.234375,-0.1875 -0.1875,0 -0.203125,0.0625 -0.28125,0.4375 -0.28125,0.90625 -0.8125,2.515625 -2.09375,4.21875 z m -1.296875,3.1875 C 6.4375,-0.390625 4.8125,-0.203125 4.09375,-0.203125 c -1.46875,0 -1.890625,-1.3125 -1.890625,-2.28125 0,-0.875 0.46875,-2.984375 1.109375,-4.125 0.84375,-1.453125 2,-2.09375 2.921875,-2.09375 2,0 2,2.625 2,4.359375 0,0.515625 -0.015625,1.0625 -0.015625,1.578125 0,0.40625 0.015625,0.515625 0.046875,0.734375 z m 0,0"
                 id="path1" />
            </g>
          </g>
          <g
             fill="#000000"
             fill-opacity="1"
             id="g26"
             transform="matrix(0.352778,0,0,0.352778,-0.99523,-0.627459)">
            <g
               id="g25"
               transform="translate(20.732,10.888)">
              <path
                 d="m 13.28125,-6.625 c 0.3125,0 0.625,0 0.625,-0.359375 0,-0.375 -0.359375,-0.375 -0.703125,-0.375 H 1.65625 c -0.359375,0 -0.703125,0 -0.703125,0.375 0,0.359375 0.3125,0.359375 0.609375,0.359375 z m -0.07813,3.671875 c 0.34375,0 0.703125,0 0.703125,-0.375 0,-0.34375 -0.3125,-0.34375 -0.625,-0.34375 H 1.5625 c -0.296875,0 -0.609375,0 -0.609375,0.34375 0,0.375 0.34375,0.375 0.703125,0.375 z m 0,0"
                 id="path9" />
            </g>
          </g>
        </g>
        <path
           style="fill:#000000;stroke:#000000;stroke-width:0.2;stroke-dasharray:none;stroke-opacity:1;marker-end:url(#ArrowWideRounded)"
           d="m 133.55037,73.466485 -0.0219,8.049927"
           id="path2" />
        <path
           style="fill:#000000;stroke:#000000;stroke-width:0.2;stroke-dasharray:none;stroke-opacity:1;marker-end:url(#ArrowWideRounded)"
           d="m 144.87274,73.466485 -0.0219,8.049927"
           id="path12" />
        <path
           style="fill:#000000;stroke:#000000;stroke-width:0.2;stroke-dasharray:none;stroke-opacity:1;marker-end:url(#ArrowWideRounded)"
           d="m 167.36739,73.466485 -0.0219,8.049927"
           id="path15" />
        <g
           inkscape:label=""
           transform="translate(132.08578,83.019934)"
           id="g30">
          <g
             fill="#000000"
             fill-opacity="1"
             id="g29"
             transform="matrix(0.352778,0,0,0.352778,-0.890499,-0.544777)">
            <g
               id="g24"
               transform="translate(1.993,10.888)">
              <path
                 d="m 2.875,-4.703125 c 0.65625,0.265625 1.359375,0.265625 1.75,0.265625 0.546875,0 1.609375,0 1.609375,-0.609375 0,-0.359375 -0.390625,-0.515625 -1.4375,-0.515625 C 4.28125,-5.5625 3.65625,-5.5 2.9375,-5.1875 2.296875,-5.5 2.046875,-5.96875 2.046875,-6.421875 c 0,-1.28125 2.015625,-2.03125 3.859375,-2.03125 0.359375,0 1.09375,0 1.96875,0.640625 0.125,0.09375 0.1875,0.15625 0.328125,0.15625 0.25,0 0.515625,-0.28125 0.515625,-0.53125 0,-0.359375 -1.203125,-1.15625 -2.625,-1.15625 -2.3125,0 -4.5,1.390625 -4.5,2.921875 0,0.765625 0.5,1.234375 0.84375,1.484375 -1.203125,0.6875 -1.90625,1.796875 -1.90625,2.8125 0,1.421875 1.28125,2.5625 3.265625,2.5625 2.734375,0 3.828125,-1.828125 3.828125,-2.109375 0,-0.109375 -0.078125,-0.1875 -0.1875,-0.1875 -0.109375,0 -0.140625,0.0625 -0.234375,0.1875 -0.21875,0.390625 -0.765625,1.21875 -3.21875,1.21875 -1.28125,0 -2.96875,-0.328125 -2.96875,-1.796875 0,-0.703125 0.515625,-1.75 1.859375,-2.453125 z m 0.640625,-0.25 c 0.546875,-0.1875 1.09375,-0.1875 1.234375,-0.1875 0.578125,0 0.6875,0.03125 1.015625,0.125 -0.359375,0.15625 -0.390625,0.15625 -1.140625,0.15625 -0.375,0 -0.703125,0 -1.109375,-0.09375 z m 0,0"
                 id="path16" />
            </g>
          </g>
        </g>
        <g
           inkscape:label=""
           transform="translate(143.40815,83.019934)"
           id="g33">
          <g
             fill="#000000"
             fill-opacity="1"
             id="g32"
             transform="matrix(0.352778,0,0,0.352778,-0.890499,-0.544777)">
            <g
               id="g31"
               transform="translate(1.993,10.888)">
              <path
                 d="m 2.875,-4.703125 c 0.65625,0.265625 1.359375,0.265625 1.75,0.265625 0.546875,0 1.609375,0 1.609375,-0.609375 0,-0.359375 -0.390625,-0.515625 -1.4375,-0.515625 C 4.28125,-5.5625 3.65625,-5.5 2.9375,-5.1875 2.296875,-5.5 2.046875,-5.96875 2.046875,-6.421875 c 0,-1.28125 2.015625,-2.03125 3.859375,-2.03125 0.359375,0 1.09375,0 1.96875,0.640625 0.125,0.09375 0.1875,0.15625 0.328125,0.15625 0.25,0 0.515625,-0.28125 0.515625,-0.53125 0,-0.359375 -1.203125,-1.15625 -2.625,-1.15625 -2.3125,0 -4.5,1.390625 -4.5,2.921875 0,0.765625 0.5,1.234375 0.84375,1.484375 -1.203125,0.6875 -1.90625,1.796875 -1.90625,2.8125 0,1.421875 1.28125,2.5625 3.265625,2.5625 2.734375,0 3.828125,-1.828125 3.828125,-2.109375 0,-0.109375 -0.078125,-0.1875 -0.1875,-0.1875 -0.109375,0 -0.140625,0.0625 -0.234375,0.1875 -0.21875,0.390625 -0.765625,1.21875 -3.21875,1.21875 -1.28125,0 -2.96875,-0.328125 -2.96875,-1.796875 0,-0.703125 0.515625,-1.75 1.859375,-2.453125 z m 0.640625,-0.25 c 0.546875,-0.1875 1.09375,-0.1875 1.234375,-0.1875 0.578125,0 0.6875,0.03125 1.015625,0.125 -0.359375,0.15625 -0.390625,0.15625 -1.140625,0.15625 -0.375,0 -0.703125,0 -1.109375,-0.09375 z m 0,0"
                 id="path30" />
            </g>
          </g>
        </g>
        <g
           inkscape:label=""
           transform="translate(165.9028,83.019934)"
           id="g36">
          <g
             fill="#000000"
             fill-opacity="1"
             id="g35"
             transform="matrix(0.352778,0,0,0.352778,-0.890499,-0.544777)">
            <g
               id="g34"
               transform="translate(1.993,10.888)">
              <path
                 d="m 2.875,-4.703125 c 0.65625,0.265625 1.359375,0.265625 1.75,0.265625 0.546875,0 1.609375,0 1.609375,-0.609375 0,-0.359375 -0.390625,-0.515625 -1.4375,-0.515625 C 4.28125,-5.5625 3.65625,-5.5 2.9375,-5.1875 2.296875,-5.5 2.046875,-5.96875 2.046875,-6.421875 c 0,-1.28125 2.015625,-2.03125 3.859375,-2.03125 0.359375,0 1.09375,0 1.96875,0.640625 0.125,0.09375 0.1875,0.15625 0.328125,0.15625 0.25,0 0.515625,-0.28125 0.515625,-0.53125 0,-0.359375 -1.203125,-1.15625 -2.625,-1.15625 -2.3125,0 -4.5,1.390625 -4.5,2.921875 0,0.765625 0.5,1.234375 0.84375,1.484375 -1.203125,0.6875 -1.90625,1.796875 -1.90625,2.8125 0,1.421875 1.28125,2.5625 3.265625,2.5625 2.734375,0 3.828125,-1.828125 3.828125,-2.109375 0,-0.109375 -0.078125,-0.1875 -0.1875,-0.1875 -0.109375,0 -0.140625,0.0625 -0.234375,0.1875 -0.21875,0.390625 -0.765625,1.21875 -3.21875,1.21875 -1.28125,0 -2.96875,-0.328125 -2.96875,-1.796875 0,-0.703125 0.515625,-1.75 1.859375,-2.453125 z m 0.640625,-0.25 c 0.546875,-0.1875 1.09375,-0.1875 1.234375,-0.1875 0.578125,0 0.6875,0.03125 1.015625,0.125 -0.359375,0.15625 -0.390625,0.15625 -1.140625,0.15625 -0.375,0 -0.703125,0 -1.109375,-0.09375 z m 0,0"
                 id="path33" />
            </g>
          </g>
        </g>
        <g
           inkscape:label=""
           transform="translate(152.47518,84.356633)"
           id="g44">
          <g
             fill="#000000"
             fill-opacity="1"
             id="g39"
             transform="matrix(0.352778,0,0,0.352778,-1.33147,-1.73192)">
            <g
               id="g38"
               transform="translate(1.993,11.175)">
              <path
                 d="m 3.96875,-5.171875 c 0,-0.59375 -0.5,-1.09375 -1.09375,-1.09375 -0.609375,0 -1.09375,0.5 -1.09375,1.09375 0,0.609375 0.484375,1.109375 1.09375,1.109375 0.59375,0 1.09375,-0.5 1.09375,-1.109375 z m 0,0"
                 id="path37" />
            </g>
          </g>
          <g
             fill="#000000"
             fill-opacity="1"
             id="g41"
             transform="matrix(0.352778,0,0,0.352778,-1.33147,-1.73192)">
            <g
               id="g40"
               transform="translate(11.18368,11.175)">
              <path
                 d="m 3.96875,-5.171875 c 0,-0.59375 -0.5,-1.09375 -1.09375,-1.09375 -0.609375,0 -1.09375,0.5 -1.09375,1.09375 0,0.609375 0.484375,1.109375 1.09375,1.109375 0.59375,0 1.09375,-0.5 1.09375,-1.109375 z m 0,0"
                 id="path39" />
            </g>
          </g>
          <g
             fill="#000000"
             fill-opacity="1"
             id="g43"
             transform="matrix(0.352778,0,0,0.352778,-1.33147,-1.73192)">
            <g
               id="g42"
               transform="translate(20.353697,11.175)">
              <path
                 d="m 3.96875,-5.171875 c 0,-0.59375 -0.5,-1.09375 -1.09375,-1.09375 -0.609375,0 -1.09375,0.5 -1.09375,1.09375 0,0.609375 0.484375,1.109375 1.09375,1.109375 0.59375,0 1.09375,-0.5 1.09375,-1.109375 z m 0,0"
                 id="path41" />
            </g>
          </g>
        </g>
      </g>
      <g
         id="g49"
         transform="translate(-0.31633672,-11.4776)">
        <g
           fill="#000000"
           fill-opacity="1"
           id="g66"
           transform="matrix(0.352778,0,0,0.352778,110.92352,102.99646)">
          <g
             id="g65"
             transform="translate(1.993,16.341999)">
            <path
               d="m 9.5625,-5.21875 c 0,-2.015625 -1.140625,-3.890625 -3.328125,-3.890625 -2.703125,0 -5.40625,2.953125 -5.40625,5.890625 0,1.796875 1.109375,3.421875 3.21875,3.421875 1.28125,0 2.8125,-0.5 4.28125,-1.734375 0.28125,1.15625 0.921875,1.734375 1.8125,1.734375 1.109375,0 1.671875,-1.15625 1.671875,-1.421875 0,-0.1875 -0.140625,-0.1875 -0.203125,-0.1875 -0.171875,0 -0.1875,0.0625 -0.25,0.234375 -0.1875,0.515625 -0.65625,0.96875 -1.15625,0.96875 -0.640625,0 -0.640625,-1.328125 -0.640625,-2.578125 2.109375,-2.53125 2.609375,-5.125 2.609375,-5.15625 0,-0.1875 -0.171875,-0.1875 -0.234375,-0.1875 -0.1875,0 -0.203125,0.0625 -0.28125,0.4375 -0.28125,0.90625 -0.8125,2.515625 -2.09375,4.21875 z m -1.296875,3.1875 C 6.4375,-0.390625 4.8125,-0.203125 4.09375,-0.203125 c -1.46875,0 -1.890625,-1.3125 -1.890625,-2.28125 0,-0.875 0.46875,-2.984375 1.109375,-4.125 0.84375,-1.453125 2,-2.09375 2.921875,-2.09375 2,0 2,2.625 2,4.359375 0,0.515625 -0.015625,1.0625 -0.015625,1.578125 0,0.40625 0.015625,0.515625 0.046875,0.734375 z m 0,0"
               id="path64" />
          </g>
        </g>
        <g
           fill="#000000"
           fill-opacity="1"
           id="g68"
           transform="matrix(0.352778,0,0,0.352778,110.92352,102.99646)">
          <g
             id="g67"
             transform="translate(20.732,16.341999)">
            <path
               d="m 13.28125,-6.625 c 0.3125,0 0.625,0 0.625,-0.359375 0,-0.375 -0.359375,-0.375 -0.703125,-0.375 H 1.65625 c -0.359375,0 -0.703125,0 -0.703125,0.375 0,0.359375 0.3125,0.359375 0.609375,0.359375 z m -0.07813,3.671875 c 0.34375,0 0.703125,0 0.703125,-0.375 0,-0.34375 -0.3125,-0.34375 -0.625,-0.34375 H 1.5625 c -0.296875,0 -0.609375,0 -0.609375,0.34375 0,0.375 0.34375,0.375 0.703125,0.375 z m 0,0"
               id="path66" />
          </g>
        </g>
        <g
           fill="#000000"
           fill-opacity="1"
           id="g70"
           transform="matrix(0.352778,0,0,0.352778,110.92352,102.99646)">
          <g
             id="g69"
             transform="translate(41.345001,16.341999)">
            <path
               d="M 9.8125,-8.390625 7.875,-12.90625 c 0.265625,-0.5 0.890625,-0.578125 1.125,-0.609375 0.125,0 0.359375,-0.01563 0.359375,-0.359375 0,-0.234375 -0.1875,-0.234375 -0.3125,-0.234375 -0.34375,0 -0.765625,0.04687 -1.109375,0.04687 H 6.734375 c -1.265625,0 -2.171875,-0.04687 -2.1875,-0.04687 -0.171875,0 -0.375,0 -0.375,0.390625 0,0.203125 0.1875,0.203125 0.453125,0.203125 1.203125,0 1.28125,0.21875 1.484375,0.703125 l 2.46875,5.75 -4.484375,4.796875 C 3.34375,-1.46875 2.453125,-0.6875 0.921875,-0.59375 0.6875,-0.578125 0.515625,-0.578125 0.515625,-0.203125 0.515625,-0.140625 0.53125,0 0.765625,0 1.046875,0 1.359375,-0.046875 1.65625,-0.046875 H 2.625 C 3.28125,-0.046875 4,0 4.640625,0 c 0.15625,0 0.40625,0 0.40625,-0.375 0,-0.203125 -0.15625,-0.21875 -0.28125,-0.21875 C 4.359375,-0.640625 4.09375,-0.875 4.09375,-1.203125 c 0,-0.34375 0.25,-0.59375 0.84375,-1.21875 l 1.84375,-2 c 0.453125,-0.46875 1.546875,-1.671875 2,-2.125 l 2.171875,5.078125 c 0.01563,0.046875 0.09375,0.25 0.09375,0.265625 0,0.1875 -0.453125,0.5625 -1.109375,0.609375 -0.125,0 -0.359375,0.015625 -0.359375,0.390625 C 9.578125,0 9.796875,0 9.890625,0 10.25,0 10.65625,-0.046875 11.015625,-0.046875 h 2.265625 c 0.375,0 0.765625,0.046875 1.109375,0.046875 0.15625,0 0.375,0 0.375,-0.390625 0,-0.203125 -0.203125,-0.203125 -0.390625,-0.203125 -1.234375,-0.03125 -1.28125,-0.125 -1.625,-0.890625 l -2.734375,-6.40625 2.625,-2.8125 c 0.203125,-0.203125 0.6875,-0.71875 0.875,-0.921875 0.875,-0.9375 1.703125,-1.78125 3.375,-1.890625 0.21875,-0.01563 0.421875,-0.01563 0.421875,-0.359375 0,-0.234375 -0.1875,-0.234375 -0.265625,-0.234375 -0.296875,0 -0.609375,0.04687 -0.890625,0.04687 h -0.953125 c -0.65625,0 -1.390625,-0.04687 -2.03125,-0.04687 -0.140625,0 -0.390625,0 -0.390625,0.375 0,0.203125 0.15625,0.21875 0.28125,0.21875 0.328125,0.04687 0.671875,0.21875 0.671875,0.609375 l -0.01563,0.03125 c -0.03125,0.15625 -0.0625,0.359375 -0.296875,0.609375 z m 0,0"
               id="path68" />
          </g>
        </g>
        <g
           fill="#000000"
           fill-opacity="1"
           id="g72"
           transform="matrix(0.352778,0,0,0.352778,110.92352,102.99646)">
          <g
             id="g71"
             transform="translate(58.136002,19.441)">
            <path
               d="m 4.125,-9.1875 c 0,-0.34375 0,-0.34375 -0.28125,-0.34375 C 3.5,-9.15625 2.78125,-8.625 1.3125,-8.625 v 0.421875 c 0.328125,0 1.046875,0 1.828125,-0.375 v 7.46875 c 0,0.515625 -0.046875,0.6875 -1.296875,0.6875 H 1.390625 V 0 c 0.390625,-0.03125 1.78125,-0.03125 2.25,-0.03125 0.46875,0 1.859375,0 2.234375,0.03125 V -0.421875 H 5.4375 c -1.265625,0 -1.3125,-0.171875 -1.3125,-0.6875 z m 0,0"
               id="path70" />
          </g>
        </g>
        <g
           fill="#000000"
           fill-opacity="1"
           id="g74"
           transform="matrix(0.352778,0,0,0.352778,110.92352,102.99646)">
          <g
             id="g73"
             transform="translate(65.657997,16.341999)">
            <path
               d="M 9.8125,-8.390625 7.875,-12.90625 c 0.265625,-0.5 0.890625,-0.578125 1.125,-0.609375 0.125,0 0.359375,-0.01563 0.359375,-0.359375 0,-0.234375 -0.1875,-0.234375 -0.3125,-0.234375 -0.34375,0 -0.765625,0.04687 -1.109375,0.04687 H 6.734375 c -1.265625,0 -2.171875,-0.04687 -2.1875,-0.04687 -0.171875,0 -0.375,0 -0.375,0.390625 0,0.203125 0.1875,0.203125 0.453125,0.203125 1.203125,0 1.28125,0.21875 1.484375,0.703125 l 2.46875,5.75 -4.484375,4.796875 C 3.34375,-1.46875 2.453125,-0.6875 0.921875,-0.59375 0.6875,-0.578125 0.515625,-0.578125 0.515625,-0.203125 0.515625,-0.140625 0.53125,0 0.765625,0 1.046875,0 1.359375,-0.046875 1.65625,-0.046875 H 2.625 C 3.28125,-0.046875 4,0 4.640625,0 c 0.15625,0 0.40625,0 0.40625,-0.375 0,-0.203125 -0.15625,-0.21875 -0.28125,-0.21875 C 4.359375,-0.640625 4.09375,-0.875 4.09375,-1.203125 c 0,-0.34375 0.25,-0.59375 0.84375,-1.21875 l 1.84375,-2 c 0.453125,-0.46875 1.546875,-1.671875 2,-2.125 l 2.171875,5.078125 c 0.01563,0.046875 0.09375,0.25 0.09375,0.265625 0,0.1875 -0.453125,0.5625 -1.109375,0.609375 -0.125,0 -0.359375,0.015625 -0.359375,0.390625 C 9.578125,0 9.796875,0 9.890625,0 10.25,0 10.65625,-0.046875 11.015625,-0.046875 h 2.265625 c 0.375,0 0.765625,0.046875 1.109375,0.046875 0.15625,0 0.375,0 0.375,-0.390625 0,-0.203125 -0.203125,-0.203125 -0.390625,-0.203125 -1.234375,-0.03125 -1.28125,-0.125 -1.625,-0.890625 l -2.734375,-6.40625 2.625,-2.8125 c 0.203125,-0.203125 0.6875,-0.71875 0.875,-0.921875 0.875,-0.9375 1.703125,-1.78125 3.375,-1.890625 0.21875,-0.01563 0.421875,-0.01563 0.421875,-0.359375 0,-0.234375 -0.1875,-0.234375 -0.265625,-0.234375 -0.296875,0 -0.609375,0.04687 -0.890625,0.04687 h -0.953125 c -0.65625,0 -1.390625,-0.04687 -2.03125,-0.04687 -0.140625,0 -0.390625,0 -0.390625,0.375 0,0.203125 0.15625,0.21875 0.28125,0.21875 0.328125,0.04687 0.671875,0.21875 0.671875,0.609375 l -0.01563,0.03125 c -0.03125,0.15625 -0.0625,0.359375 -0.296875,0.609375 z m 0,0"
               id="path72" />
          </g>
        </g>
        <g
           fill="#000000"
           fill-opacity="1"
           id="g76"
           transform="matrix(0.352778,0,0,0.352778,110.92352,102.99646)">
          <g
             id="g75"
             transform="translate(82.448997,19.441)">
            <path
               d="M 6.3125,-2.40625 H 6 c -0.046875,0.234375 -0.15625,1.03125 -0.3125,1.265625 -0.09375,0.125 -0.90625,0.125 -1.34375,0.125 H 1.6875 c 0.390625,-0.328125 1.265625,-1.25 1.640625,-1.59375 2.1875,-2.015625 2.984375,-2.75 2.984375,-4.171875 0,-1.65625 -1.3125,-2.75 -2.96875,-2.75 -1.671875,0 -2.640625,1.40625 -2.640625,2.640625 0,0.734375 0.625,0.734375 0.671875,0.734375 0.296875,0 0.671875,-0.21875 0.671875,-0.671875 C 2.046875,-7.234375 1.78125,-7.5 1.375,-7.5 1.25,-7.5 1.21875,-7.5 1.171875,-7.484375 1.453125,-8.46875 2.21875,-9.125 3.15625,-9.125 4.375,-9.125 5.125,-8.109375 5.125,-6.78125 5.125,-5.5625 4.421875,-4.5 3.59375,-3.578125 L 0.703125,-0.34375 V 0 H 5.9375 Z m 0,0"
               id="path74" />
          </g>
        </g>
        <g
           fill="#000000"
           fill-opacity="1"
           id="g78"
           transform="matrix(0.352778,0,0,0.352778,110.92352,102.99646)">
          <g
             id="g77"
             transform="translate(93.415001,16.341999)">
            <path
               d="m 3.96875,-5.171875 c 0,-0.59375 -0.5,-1.09375 -1.09375,-1.09375 -0.609375,0 -1.09375,0.5 -1.09375,1.09375 0,0.609375 0.484375,1.109375 1.09375,1.109375 0.59375,0 1.09375,-0.5 1.09375,-1.109375 z m 0,0"
               id="path76" />
          </g>
        </g>
        <g
           fill="#000000"
           fill-opacity="1"
           id="g80"
           transform="matrix(0.352778,0,0,0.352778,110.92352,102.99646)">
          <g
             id="g79"
             transform="translate(102.60568,16.341999)">
            <path
               d="m 3.96875,-5.171875 c 0,-0.59375 -0.5,-1.09375 -1.09375,-1.09375 -0.609375,0 -1.09375,0.5 -1.09375,1.09375 0,0.609375 0.484375,1.109375 1.09375,1.109375 0.59375,0 1.09375,-0.5 1.09375,-1.109375 z m 0,0"
               id="path78" />
          </g>
        </g>
        <g
           fill="#000000"
           fill-opacity="1"
           id="g82"
           transform="matrix(0.352778,0,0,0.352778,110.92352,102.99646)">
          <g
             id="g81"
             transform="translate(111.7757,16.341999)">
            <path
               d="m 3.96875,-5.171875 c 0,-0.59375 -0.5,-1.09375 -1.09375,-1.09375 -0.609375,0 -1.09375,0.5 -1.09375,1.09375 0,0.609375 0.484375,1.109375 1.09375,1.109375 0.59375,0 1.09375,-0.5 1.09375,-1.109375 z m 0,0"
               id="path80" />
          </g>
        </g>
        <g
           fill="#000000"
           fill-opacity="1"
           id="g84"
           transform="matrix(0.352778,0,0,0.352778,110.92352,102.99646)">
          <g
             id="g83"
             transform="translate(120.965,16.341999)">
            <path
               d="M 9.8125,-8.390625 7.875,-12.90625 c 0.265625,-0.5 0.890625,-0.578125 1.125,-0.609375 0.125,0 0.359375,-0.01563 0.359375,-0.359375 0,-0.234375 -0.1875,-0.234375 -0.3125,-0.234375 -0.34375,0 -0.765625,0.04687 -1.109375,0.04687 H 6.734375 c -1.265625,0 -2.171875,-0.04687 -2.1875,-0.04687 -0.171875,0 -0.375,0 -0.375,0.390625 0,0.203125 0.1875,0.203125 0.453125,0.203125 1.203125,0 1.28125,0.21875 1.484375,0.703125 l 2.46875,5.75 -4.484375,4.796875 C 3.34375,-1.46875 2.453125,-0.6875 0.921875,-0.59375 0.6875,-0.578125 0.515625,-0.578125 0.515625,-0.203125 0.515625,-0.140625 0.53125,0 0.765625,0 1.046875,0 1.359375,-0.046875 1.65625,-0.046875 H 2.625 C 3.28125,-0.046875 4,0 4.640625,0 c 0.15625,0 0.40625,0 0.40625,-0.375 0,-0.203125 -0.15625,-0.21875 -0.28125,-0.21875 C 4.359375,-0.640625 4.09375,-0.875 4.09375,-1.203125 c 0,-0.34375 0.25,-0.59375 0.84375,-1.21875 l 1.84375,-2 c 0.453125,-0.46875 1.546875,-1.671875 2,-2.125 l 2.171875,5.078125 c 0.01563,0.046875 0.09375,0.25 0.09375,0.265625 0,0.1875 -0.453125,0.5625 -1.109375,0.609375 -0.125,0 -0.359375,0.015625 -0.359375,0.390625 C 9.578125,0 9.796875,0 9.890625,0 10.25,0 10.65625,-0.046875 11.015625,-0.046875 h 2.265625 c 0.375,0 0.765625,0.046875 1.109375,0.046875 0.15625,0 0.375,0 0.375,-0.390625 0,-0.203125 -0.203125,-0.203125 -0.390625,-0.203125 -1.234375,-0.03125 -1.28125,-0.125 -1.625,-0.890625 l -2.734375,-6.40625 2.625,-2.8125 c 0.203125,-0.203125 0.6875,-0.71875 0.875,-0.921875 0.875,-0.9375 1.703125,-1.78125 3.375,-1.890625 0.21875,-0.01563 0.421875,-0.01563 0.421875,-0.359375 0,-0.234375 -0.1875,-0.234375 -0.265625,-0.234375 -0.296875,0 -0.609375,0.04687 -0.890625,0.04687 h -0.953125 c -0.65625,0 -1.390625,-0.04687 -2.03125,-0.04687 -0.140625,0 -0.390625,0 -0.390625,0.375 0,0.203125 0.15625,0.21875 0.28125,0.21875 0.328125,0.04687 0.671875,0.21875 0.671875,0.609375 l -0.01563,0.03125 c -0.03125,0.15625 -0.0625,0.359375 -0.296875,0.609375 z m 0,0"
               id="path82" />
          </g>
        </g>
        <g
           fill="#000000"
           fill-opacity="1"
           id="g86"
           transform="matrix(0.352778,0,0,0.352778,110.92352,102.99646)">
          <g
             id="g85"
             transform="translate(137.756,19.441)">
            <path
               d="M 2.953125,-4.203125 C 2.984375,-4.28125 3.34375,-5 3.875,-5.46875 c 0.375,-0.34375 0.859375,-0.5625 1.421875,-0.5625 0.5625,0 0.765625,0.421875 0.765625,1 0,0.8125 -0.578125,2.453125 -0.875,3.21875 -0.125,0.34375 -0.203125,0.53125 -0.203125,0.796875 0,0.640625 0.453125,1.15625 1.140625,1.15625 1.328125,0 1.828125,-2.109375 1.828125,-2.1875 C 7.953125,-2.125 7.90625,-2.1875 7.8125,-2.1875 c -0.125,0 -0.140625,0.046875 -0.203125,0.296875 -0.34375,1.171875 -0.875,1.75 -1.4375,1.75 -0.140625,0 -0.375,-0.015625 -0.375,-0.46875 0,-0.359375 0.15625,-0.796875 0.234375,-1 C 6.328125,-2.390625 6.921875,-4 6.921875,-4.8125 c 0,-0.875 -0.5,-1.515625 -1.59375,-1.515625 -1.265625,0 -1.9375,0.90625 -2.203125,1.265625 C 3.078125,-5.875 2.5,-6.328125 1.859375,-6.328125 c -0.453125,0 -0.765625,0.28125 -1.015625,0.765625 -0.25,0.515625 -0.453125,1.375 -0.453125,1.4375 0,0.046875 0.046875,0.125 0.15625,0.125 0.109375,0 0.125,-0.015625 0.21875,-0.34375 0.21875,-0.875 0.484375,-1.6875 1.0625,-1.6875 0.328125,0 0.4375,0.21875 0.4375,0.65625 0,0.3125 -0.140625,0.875 -0.25,1.3125 L 1.625,-2.515625 c -0.0625,0.28125 -0.21875,0.921875 -0.296875,1.1875 -0.09375,0.359375 -0.25,1.046875 -0.25,1.109375 0,0.203125 0.15625,0.359375 0.375,0.359375 0.171875,0 0.375,-0.078125 0.484375,-0.296875 0.03125,-0.078125 0.15625,-0.578125 0.234375,-0.859375 l 0.3125,-1.296875 z m 0,0"
               id="path84" />
          </g>
        </g>
        <g
           fill="#000000"
           fill-opacity="1"
           id="g88"
           transform="matrix(0.352778,0,0,0.352778,110.92352,102.99646)">
          <g
             id="g87"
             transform="translate(152.379,16.341999)">
            <path
               d="m 15,-6.75 c 0.859375,0.734375 1.921875,1.28125 2.59375,1.578125 -0.734375,0.34375 -1.75,0.875 -2.59375,1.59375 H 1.875 c -0.34375,0 -0.734375,0 -0.734375,0.421875 0,0.40625 0.375,0.40625 0.71875,0.40625 H 14.0625 C 13.078125,-1.796875 12,0.015625 12,0.296875 c 0,0.21875 0.265625,0.21875 0.390625,0.21875 0.171875,0 0.3125,0 0.390625,-0.171875 0.4375,-0.78125 1.015625,-1.875 2.359375,-3.078125 1.421875,-1.25 2.8125,-1.8125 3.890625,-2.125 0.34375,-0.125 0.359375,-0.140625 0.40625,-0.1875 0.04687,-0.015625 0.04687,-0.078125 0.04687,-0.125 0,-0.03125 0,-0.078125 -0.03125,-0.109375 l -0.0625,-0.046875 C 19.359375,-5.34375 19.328125,-5.375 18.9375,-5.5 c -2.78125,-0.828125 -4.84375,-2.703125 -6,-4.90625 -0.234375,-0.421875 -0.25,-0.4375 -0.546875,-0.4375 -0.125,0 -0.390625,0 -0.390625,0.21875 0,0.28125 1.0625,2.078125 2.0625,3.046875 H 1.859375 c -0.34375,0 -0.71875,0 -0.71875,0.40625 C 1.140625,-6.75 1.53125,-6.75 1.875,-6.75 Z m 0,0"
               id="path86" />
          </g>
        </g>
        <g
           fill="#000000"
           fill-opacity="1"
           id="g90"
           transform="matrix(0.352778,0,0,0.352778,110.92352,102.99646)">
          <g
             id="g89"
             transform="translate(173.041,8.8439999)">
            <path
               d="m 3.9375,-6.125 c 0.015625,-0.203125 0.015625,-0.546875 -0.359375,-0.546875 -0.21875,0 -0.40625,0.1875 -0.359375,0.375 v 0.1875 l 0.1875,2.21875 -1.828125,-1.328125 c -0.125,-0.078125 -0.15625,-0.109375 -0.265625,-0.109375 -0.1875,0 -0.375,0.203125 -0.375,0.40625 0,0.234375 0.140625,0.28125 0.28125,0.359375 L 3.25,-3.578125 1.28125,-2.625 c -0.234375,0.109375 -0.34375,0.171875 -0.34375,0.390625 0,0.21875 0.1875,0.390625 0.375,0.390625 0.109375,0 0.140625,0 0.5,-0.265625 l 1.59375,-1.15625 -0.203125,2.40625 c 0,0.296875 0.25,0.375 0.375,0.375 0.171875,0 0.375,-0.109375 0.375,-0.375 L 3.75,-3.265625 5.578125,-1.9375 c 0.125,0.078125 0.15625,0.09375 0.265625,0.09375 0.1875,0 0.375,-0.1875 0.375,-0.390625 0,-0.21875 -0.125,-0.296875 -0.296875,-0.375 C 5.0625,-3.046875 5.03125,-3.046875 3.90625,-3.578125 L 5.875,-4.53125 c 0.234375,-0.109375 0.34375,-0.171875 0.34375,-0.390625 0,-0.21875 -0.1875,-0.40625 -0.375,-0.40625 -0.109375,0 -0.140625,0 -0.5,0.28125 L 3.75,-3.890625 Z m 0,0"
               id="path88" />
          </g>
        </g>
        <g
           fill="#000000"
           fill-opacity="1"
           id="g95"
           transform="matrix(0.352778,0,0,0.352778,145.31962,111.11209)">
          <g
             id="g94"
             transform="translate(1.993,16.341999)">
            <path
               d="m 8.71875,-13.59375 c 0,-0.375 0,-0.734375 -0.421875,-0.734375 -0.40625,0 -0.40625,0.390625 -0.40625,0.734375 V -0.5 C 7.078125,0.453125 6.53125,1.59375 6.296875,2.109375 6.046875,1.546875 5.5,0.4375 4.703125,-0.5 v -13.09375 c 0,-0.375 0,-0.734375 -0.40625,-0.734375 -0.40625,0 -0.40625,0.359375 -0.40625,0.734375 V -1.453125 C 3.078125,-2.1875 2.78125,-2.375 2.453125,-2.609375 1.78125,-3.078125 0.984375,-3.515625 0.875,-3.515625 c -0.234375,0 -0.234375,0.234375 -0.234375,0.421875 0,0.28125 0,0.328125 0.25,0.453125 3.203125,1.65625 4.546875,4.15625 5.203125,6.46875 0.015625,0.125 0.125,0.15625 0.203125,0.15625 0.171875,0 0.203125,-0.140625 0.234375,-0.21875 0.78125,-2.71875 2.3125,-4.921875 5.265625,-6.453125 0.15625,-0.078125 0.15625,-0.1875 0.15625,-0.40625 0,-0.1875 0,-0.421875 -0.21875,-0.421875 -0.125,0 -0.953125,0.453125 -1.59375,0.890625 -0.4375,0.3125 -0.71875,0.53125 -1.421875,1.171875 z m 0,0"
               id="path93" />
          </g>
        </g>
        <g
           inkscape:label=""
           transform="translate(176.93022,105.21448)"
           id="g47">
          <g
             fill="#000000"
             fill-opacity="1"
             id="g46"
             transform="matrix(0.352778,0,0,0.352778,-0.890499,-0.544777)">
            <g
               id="g45"
               transform="translate(1.993,10.888)">
              <path
                 d="m 2.875,-4.703125 c 0.65625,0.265625 1.359375,0.265625 1.75,0.265625 0.546875,0 1.609375,0 1.609375,-0.609375 0,-0.359375 -0.390625,-0.515625 -1.4375,-0.515625 C 4.28125,-5.5625 3.65625,-5.5 2.9375,-5.1875 2.296875,-5.5 2.046875,-5.96875 2.046875,-6.421875 c 0,-1.28125 2.015625,-2.03125 3.859375,-2.03125 0.359375,0 1.09375,0 1.96875,0.640625 0.125,0.09375 0.1875,0.15625 0.328125,0.15625 0.25,0 0.515625,-0.28125 0.515625,-0.53125 0,-0.359375 -1.203125,-1.15625 -2.625,-1.15625 -2.3125,0 -4.5,1.390625 -4.5,2.921875 0,0.765625 0.5,1.234375 0.84375,1.484375 -1.203125,0.6875 -1.90625,1.796875 -1.90625,2.8125 0,1.421875 1.28125,2.5625 3.265625,2.5625 2.734375,0 3.828125,-1.828125 3.828125,-2.109375 0,-0.109375 -0.078125,-0.1875 -0.1875,-0.1875 -0.109375,0 -0.140625,0.0625 -0.234375,0.1875 -0.21875,0.390625 -0.765625,1.21875 -3.21875,1.21875 -1.28125,0 -2.96875,-0.328125 -2.96875,-1.796875 0,-0.703125 0.515625,-1.75 1.859375,-2.453125 z m 0.640625,-0.25 c 0.546875,-0.1875 1.09375,-0.1875 1.234375,-0.1875 0.578125,0 0.6875,0.03125 1.015625,0.125 -0.359375,0.15625 -0.390625,0.15625 -1.140625,0.15625 -0.375,0 -0.703125,0 -1.109375,-0.09375 z m 0,0"
                 id="path45" />
            </g>
          </g>
        </g>
      </g>
      <g
         inkscape:label=""
         transform="translate(122.59895,109.68427)"
         id="g59">
        <g
           fill="#000000"
           fill-opacity="1"
           id="g50"
           transform="matrix(0.352778,0,0,0.352778,-1.03933,-0.702028)">
          <g
             id="use12"
             transform="translate(1.993,17.49)">
            <path
               d="M 14.359375,-4.796875 C 14.375,-4.859375 14.4375,-5 14.4375,-5.078125 c 0,-0.109375 -0.07813,-0.203125 -0.203125,-0.203125 -0.07813,0 -0.125,0.015625 -0.1875,0.078125 C 14,-5.1875 14,-5.140625 13.8125,-4.734375 12.59375,-1.84375 11.71875,-0.59375 8.40625,-0.59375 H 5.390625 c -0.28125,0 -0.328125,0 -0.453125,-0.03125 -0.234375,-0.015625 -0.25,-0.0625 -0.25,-0.21875 0,-0.140625 0.046875,-0.265625 0.078125,-0.453125 L 6.203125,-7 h 2.03125 c 1.625,0 1.75,0.34375 1.75,0.96875 0,0.203125 0,0.390625 -0.15625,1.015625 -0.03125,0.078125 -0.0625,0.15625 -0.0625,0.21875 0,0.15625 0.109375,0.21875 0.234375,0.21875 0.1875,0 0.203125,-0.15625 0.28125,-0.4375 l 1.1875,-4.796875 c 0,-0.109375 -0.09375,-0.203125 -0.21875,-0.203125 -0.171875,0 -0.203125,0.078125 -0.28125,0.375 C 10.5625,-8.0625 10.140625,-7.59375 8.296875,-7.59375 H 6.34375 L 7.625,-12.6875 c 0.1875,-0.71875 0.21875,-0.78125 1.078125,-0.78125 h 2.953125 c 2.53125,0 3.046875,0.6875 3.046875,2.25 0,0.01563 0,0.59375 -0.07813,1.28125 -0.01563,0.078125 -0.04687,0.203125 -0.04687,0.25 0,0.171875 0.109375,0.234375 0.234375,0.234375 0.140625,0 0.21875,-0.09375 0.265625,-0.46875 l 0.4375,-3.609375 c 0,-0.0625 0.03125,-0.265625 0.03125,-0.3125 C 15.546875,-14.0625 15.375,-14.0625 15,-14.0625 H 4.921875 c -0.390625,0 -0.609375,0 -0.609375,0.375 0,0.21875 0.15625,0.21875 0.5,0.21875 1.28125,0 1.28125,0.140625 1.28125,0.375 0,0.09375 -0.015625,0.1875 -0.078125,0.40625 L 3.21875,-1.53125 C 3.03125,-0.8125 3,-0.59375 1.546875,-0.59375 c -0.390625,0 -0.59375,0 -0.59375,0.359375 C 0.953125,0 1.078125,0 1.484375,0 h 10.375 c 0.453125,0 0.46875,-0.015625 0.609375,-0.34375 z m 0,0"
               id="path23" />
          </g>
        </g>
        <g
           fill="#000000"
           fill-opacity="1"
           id="g51"
           transform="matrix(0.352778,0,0,0.352778,-1.03933,-0.702028)">
          <g
             id="use13"
             transform="translate(18.188267,17.49)">
            <path
               d="M 4.25,-6.046875 C 4.296875,-6.171875 4.8125,-7.203125 5.578125,-7.875 6.109375,-8.359375 6.8125,-8.703125 7.625,-8.703125 c 0.828125,0 1.109375,0.625 1.109375,1.453125 0,0.125 0,0.53125 -0.25,1.5 L 7.96875,-3.609375 C 7.8125,-3 7.421875,-1.46875 7.375,-1.234375 c -0.078125,0.3125 -0.203125,0.84375 -0.203125,0.921875 0,0.296875 0.21875,0.515625 0.53125,0.515625 0.625,0 0.71875,-0.46875 0.90625,-1.21875 l 1.25,-4.9375 c 0.03125,-0.15625 1.109375,-2.75 3.375,-2.75 0.828125,0 1.125,0.625 1.125,1.453125 0,1.15625 -0.8125,3.40625 -1.265625,4.640625 -0.1875,0.5 -0.28125,0.765625 -0.28125,1.140625 0,0.9375 0.640625,1.671875 1.625,1.671875 1.921875,0 2.640625,-3.03125 2.640625,-3.15625 0,-0.109375 -0.07813,-0.1875 -0.203125,-0.1875 -0.1875,0 -0.203125,0.0625 -0.3125,0.40625 -0.46875,1.65625 -1.234375,2.53125 -2.0625,2.53125 -0.203125,0 -0.53125,-0.03125 -0.53125,-0.6875 0,-0.53125 0.25,-1.203125 0.328125,-1.421875 0.375,-1 1.296875,-3.4375 1.296875,-4.625 0,-1.25 -0.71875,-2.171875 -2.296875,-2.171875 -1.375,0 -2.5,0.78125 -3.3125,2 -0.0625,-1.109375 -0.75,-2 -2.296875,-2 -1.84375,0 -2.8125,1.296875 -3.1875,1.8125 -0.0625,-1.171875 -0.90625,-1.8125 -1.8125,-1.8125 -0.59375,0 -1.078125,0.296875 -1.46875,1.078125 -0.375,0.734375 -0.65625,2 -0.65625,2.078125 0,0.09375 0.078125,0.1875 0.21875,0.1875 0.171875,0 0.1875,-0.015625 0.3125,-0.5 0.3125,-1.21875 0.703125,-2.4375 1.53125,-2.4375 0.46875,0 0.640625,0.34375 0.640625,0.953125 0,0.453125 -0.203125,1.265625 -0.359375,1.90625 l -0.578125,2.234375 c -0.078125,0.390625 -0.296875,1.3125 -0.40625,1.6875 -0.140625,0.53125 -0.375,1.515625 -0.375,1.609375 0,0.296875 0.234375,0.515625 0.546875,0.515625 0.234375,0 0.53125,-0.125 0.6875,-0.4375 0.046875,-0.09375 0.234375,-0.8125 0.34375,-1.234375 l 0.453125,-1.859375 z m 0,0"
               id="path24" />
          </g>
          <g
             id="use14"
             transform="translate(35.8857,17.49)">
            <path
               d="M 0.890625,2.625 C 0.75,3.25 0.65625,3.40625 -0.1875,3.40625 c -0.25,0 -0.453125,0 -0.453125,0.390625 C -0.640625,3.84375 -0.625,4 -0.390625,4 -0.125,4 0.171875,3.96875 0.4375,3.96875 H 1.328125 C 1.75,3.96875 2.8125,4 3.25,4 3.359375,4 3.609375,4 3.609375,3.640625 3.609375,3.40625 3.46875,3.40625 3.125,3.40625 c -0.953125,0 -1.015625,-0.140625 -1.015625,-0.3125 0,-0.25 0.921875,-3.796875 1.046875,-4.265625 0.234375,0.578125 0.796875,1.375 1.859375,1.375 2.34375,0 4.859375,-3.03125 4.859375,-6.0625 0,-1.90625 -1.078125,-3.25 -2.625,-3.25 -1.328125,0 -2.4375,1.28125 -2.671875,1.5625 -0.15625,-1.03125 -0.96875,-1.5625 -1.796875,-1.5625 -0.59375,0 -1.0625,0.296875 -1.453125,1.078125 -0.375,0.734375 -0.671875,2 -0.671875,2.078125 0,0.09375 0.09375,0.1875 0.234375,0.1875 0.15625,0 0.1875,-0.015625 0.3125,-0.5 0.3125,-1.21875 0.703125,-2.4375 1.53125,-2.4375 0.46875,0 0.625,0.34375 0.625,0.953125 0,0.5 -0.046875,0.703125 -0.140625,1.078125 z M 4.46875,-6.4375 C 4.609375,-7.015625 5.1875,-7.625 5.515625,-7.90625 5.75,-8.125 6.421875,-8.703125 7.203125,-8.703125 c 0.921875,0 1.328125,0.921875 1.328125,1.984375 0,1 -0.578125,3.328125 -1.09375,4.40625 -0.515625,1.109375 -1.46875,2.109375 -2.421875,2.109375 -1.40625,0 -1.625,-1.78125 -1.625,-1.859375 0,-0.0625 0.03125,-0.234375 0.0625,-0.328125 z m 0,0"
               id="path25" />
          </g>
          <g
             id="use15"
             transform="translate(46.039249,17.49)">
            <path
               d="m 4.15625,-8.296875 h 1.890625 c 0.390625,0 0.609375,0 0.609375,-0.375 0,-0.234375 -0.125,-0.234375 -0.546875,-0.234375 h -1.8125 L 5.0625,-11.921875 c 0.078125,-0.28125 0.078125,-0.328125 0.078125,-0.46875 0,-0.328125 -0.265625,-0.515625 -0.53125,-0.515625 -0.171875,0 -0.640625,0.0625 -0.8125,0.71875 L 3,-8.90625 H 1.046875 c -0.40625,0 -0.59375,0 -0.59375,0.390625 0,0.21875 0.140625,0.21875 0.53125,0.21875 h 1.84375 L 1.46875,-2.84375 c -0.171875,0.71875 -0.234375,0.921875 -0.234375,1.1875 0,0.96875 0.6875,1.859375 1.84375,1.859375 2.09375,0 3.203125,-3.015625 3.203125,-3.15625 0,-0.125 -0.078125,-0.1875 -0.203125,-0.1875 -0.046875,0 -0.125,0 -0.171875,0.078125 -0.015625,0.03125 -0.046875,0.046875 -0.1875,0.375 -0.4375,1.03125 -1.375,2.484375 -2.578125,2.484375 -0.625,0 -0.65625,-0.515625 -0.65625,-0.96875 0,-0.03125 0,-0.421875 0.0625,-0.671875 z m 0,0"
               id="path26" />
          </g>
          <g
             id="use16"
             transform="translate(53.345512,17.49)">
            <path
               d="m 5.4375,2.3125 c -0.5625,0.78125 -1.375,1.484375 -2.375,1.484375 -0.25,0 -1.25,-0.03125 -1.546875,-0.984375 C 1.5625,2.828125 1.671875,2.828125 1.71875,2.828125 2.328125,2.828125 2.75,2.296875 2.75,1.8125 2.75,1.34375 2.359375,1.171875 2.046875,1.171875 c -0.328125,0 -1.0625,0.25 -1.0625,1.265625 0,1.046875 0.890625,1.78125 2.078125,1.78125 2.0625,0 4.140625,-1.90625 4.71875,-4.203125 L 9.8125,-8.03125 c 0.015625,-0.109375 0.0625,-0.234375 0.0625,-0.359375 0,-0.3125 -0.25,-0.515625 -0.5625,-0.515625 -0.1875,0 -0.609375,0.09375 -0.78125,0.703125 L 7,-2.125 c -0.09375,0.375 -0.09375,0.40625 -0.265625,0.640625 -0.40625,0.578125 -1.09375,1.28125 -2.09375,1.28125 -1.15625,0 -1.25,-1.140625 -1.25,-1.703125 0,-1.171875 0.5625,-2.765625 1.109375,-4.25 0.234375,-0.59375 0.359375,-0.890625 0.359375,-1.296875 0,-0.875 -0.625,-1.65625 -1.640625,-1.65625 -1.890625,0 -2.65625,3 -2.65625,3.15625 0,0.09375 0.078125,0.1875 0.21875,0.1875 0.1875,0 0.203125,-0.078125 0.296875,-0.375 0.484375,-1.734375 1.28125,-2.5625 2.078125,-2.5625 0.1875,0 0.546875,0 0.546875,0.6875 0,0.53125 -0.234375,1.140625 -0.546875,1.921875 -1.015625,2.703125 -1.015625,3.390625 -1.015625,3.890625 0,1.953125 1.40625,2.40625 2.4375,2.40625 0.609375,0 1.34375,-0.1875 2.078125,-0.953125 l 0.015625,0.03125 C 6.359375,0.5 6.15625,1.296875 5.4375,2.3125 Z m 0,0"
               id="path27" />
          </g>
        </g>
        <g
           fill="#000000"
           fill-opacity="1"
           id="g52"
           transform="matrix(0.352778,0,0,0.352778,-1.03933,-0.702028)">
          <g
             id="use17"
             transform="translate(63.944,17.49)">
            <path
               d="m 6.328125,5.046875 c 0,-0.03125 0,-0.0625 -0.0625,-0.125 -0.953125,-0.96875 -3.5,-3.625 -3.5,-10.0625 0,-6.453125 2.5,-9.078125 3.515625,-10.109375 0,-0.01563 0.046875,-0.0625 0.046875,-0.125 0,-0.0625 -0.0625,-0.09375 -0.15625,-0.09375 -0.21875,0 -1.984375,1.53125 -2.984375,3.796875 -1.046875,2.296875 -1.328125,4.53125 -1.328125,6.5 0,1.5 0.140625,4.015625 1.390625,6.6875 0.984375,2.140625 2.671875,3.65625 2.921875,3.65625 0.109375,0 0.15625,-0.046875 0.15625,-0.125 z m 0,0"
               id="path28" />
          </g>
        </g>
        <g
           fill="#000000"
           fill-opacity="1"
           id="g53"
           transform="matrix(0.352778,0,0,0.352778,-1.03933,-0.702028)">
          <g
             id="use18"
             transform="translate(71.261002,17.49)">
            <path
               d="m 9.5625,-5.21875 c 0,-2.015625 -1.140625,-3.890625 -3.328125,-3.890625 -2.703125,0 -5.40625,2.953125 -5.40625,5.890625 0,1.796875 1.109375,3.421875 3.21875,3.421875 1.28125,0 2.8125,-0.5 4.28125,-1.734375 0.28125,1.15625 0.921875,1.734375 1.8125,1.734375 1.109375,0 1.671875,-1.15625 1.671875,-1.421875 0,-0.1875 -0.140625,-0.1875 -0.203125,-0.1875 -0.171875,0 -0.1875,0.0625 -0.25,0.234375 -0.1875,0.515625 -0.65625,0.96875 -1.15625,0.96875 -0.640625,0 -0.640625,-1.328125 -0.640625,-2.578125 2.109375,-2.53125 2.609375,-5.125 2.609375,-5.15625 0,-0.1875 -0.171875,-0.1875 -0.234375,-0.1875 -0.1875,0 -0.203125,0.0625 -0.28125,0.4375 -0.28125,0.90625 -0.8125,2.515625 -2.09375,4.21875 z m -1.296875,3.1875 C 6.4375,-0.390625 4.8125,-0.203125 4.09375,-0.203125 c -1.46875,0 -1.890625,-1.3125 -1.890625,-2.28125 0,-0.875 0.46875,-2.984375 1.109375,-4.125 0.84375,-1.453125 2,-2.09375 2.921875,-2.09375 2,0 2,2.625 2,4.359375 0,0.515625 -0.015625,1.0625 -0.015625,1.578125 0,0.40625 0.015625,0.515625 0.046875,0.734375 z m 0,0"
               id="path29" />
          </g>
        </g>
        <g
           fill="#000000"
           fill-opacity="1"
           id="g54"
           transform="matrix(0.352778,0,0,0.352778,-1.03933,-0.702028)">
          <g
             id="use19"
             transform="translate(84.261002,17.49)">
            <path
               d="m 5.4375,-5.140625 c 0,-1.484375 -0.15625,-4.015625 -1.390625,-6.671875 -0.984375,-2.15625 -2.6875,-3.65625 -2.9375,-3.65625 -0.0625,0 -0.140625,0.01563 -0.140625,0.125 0,0.03125 0.015625,0.0625 0.046875,0.09375 C 2,-14.21875 4.53125,-11.59375 4.53125,-5.171875 4.53125,1.28125 2.03125,3.90625 1.015625,4.9375 0.984375,4.984375 0.96875,5 0.96875,5.046875 c 0,0.09375 0.078125,0.125 0.140625,0.125 0.234375,0 1.984375,-1.53125 3,-3.8125 1.03125,-2.28125 1.328125,-4.515625 1.328125,-6.5 z m 0,0"
               id="path53" />
          </g>
        </g>
        <g
           fill="#000000"
           fill-opacity="1"
           id="g55"
           transform="matrix(0.352778,0,0,0.352778,-1.03933,-0.702028)">
          <g
             id="use20"
             transform="translate(97.32177,17.49)">
            <path
               d="m 13.28125,-6.625 c 0.3125,0 0.625,0 0.625,-0.359375 0,-0.375 -0.359375,-0.375 -0.703125,-0.375 H 1.65625 c -0.359375,0 -0.703125,0 -0.703125,0.375 0,0.359375 0.3125,0.359375 0.609375,0.359375 z m -0.07813,3.671875 c 0.34375,0 0.703125,0 0.703125,-0.375 0,-0.34375 -0.3125,-0.34375 -0.625,-0.34375 H 1.5625 c -0.296875,0 -0.609375,0 -0.609375,0.34375 0,0.375 0.34375,0.375 0.703125,0.375 z m 0,0"
               id="path31" />
          </g>
        </g>
        <g
           fill="#000000"
           fill-opacity="1"
           id="g56"
           transform="matrix(0.352778,0,0,0.352778,-1.03933,-0.702028)">
          <g
             id="use21"
             transform="translate(117.931,17.49)">
            <path
               d="m 5.84375,-12.75 c 0,-0.828125 0.53125,-2.140625 2.796875,-2.28125 C 8.734375,-15.0625 8.8125,-15.140625 8.8125,-15.265625 8.8125,-15.5 8.65625,-15.5 8.421875,-15.5 c -2.0625,0 -3.9375,1.0625 -3.953125,2.59375 v 4.703125 c 0,0.8125 0,1.46875 -0.828125,2.15625 -0.734375,0.59375 -1.515625,0.640625 -1.96875,0.65625 -0.109375,0.015625 -0.1875,0.109375 -0.1875,0.21875 0,0.21875 0.125,0.21875 0.328125,0.234375 1.375,0.078125 2.359375,0.828125 2.59375,1.84375 0.0625,0.21875 0.0625,0.265625 0.0625,1 V 2 c 0,0.875 0,1.53125 0.984375,2.3125 0.8125,0.625 2.171875,0.859375 2.96875,0.859375 0.234375,0 0.390625,0 0.390625,-0.234375 C 8.8125,4.734375 8.703125,4.734375 8.484375,4.703125 7.1875,4.625 6.171875,3.96875 5.90625,2.90625 5.84375,2.734375 5.84375,2.6875 5.84375,1.9375 v -4.328125 c 0,-0.953125 -0.15625,-1.3125 -0.828125,-1.96875 C 4.578125,-4.796875 3.984375,-5 3.40625,-5.171875 5.109375,-5.640625 5.84375,-6.59375 5.84375,-7.78125 Z m 0,0"
               id="path32" />
          </g>
        </g>
        <g
           fill="#000000"
           fill-opacity="1"
           id="g57"
           transform="matrix(0.352778,0,0,0.352778,-1.03933,-0.702028)">
          <g
             id="use22"
             transform="translate(128.26199,17.49)">
            <path
               d="m 2.875,-4.703125 c 0.65625,0.265625 1.359375,0.265625 1.75,0.265625 0.546875,0 1.609375,0 1.609375,-0.609375 0,-0.359375 -0.390625,-0.515625 -1.4375,-0.515625 C 4.28125,-5.5625 3.65625,-5.5 2.9375,-5.1875 2.296875,-5.5 2.046875,-5.96875 2.046875,-6.421875 c 0,-1.28125 2.015625,-2.03125 3.859375,-2.03125 0.359375,0 1.09375,0 1.96875,0.640625 0.125,0.09375 0.1875,0.15625 0.328125,0.15625 0.25,0 0.515625,-0.28125 0.515625,-0.53125 0,-0.359375 -1.203125,-1.15625 -2.625,-1.15625 -2.3125,0 -4.5,1.390625 -4.5,2.921875 0,0.765625 0.5,1.234375 0.84375,1.484375 -1.203125,0.6875 -1.90625,1.796875 -1.90625,2.8125 0,1.421875 1.28125,2.5625 3.265625,2.5625 2.734375,0 3.828125,-1.828125 3.828125,-2.109375 0,-0.109375 -0.078125,-0.1875 -0.1875,-0.1875 -0.109375,0 -0.140625,0.0625 -0.234375,0.1875 -0.21875,0.390625 -0.765625,1.21875 -3.21875,1.21875 -1.28125,0 -2.96875,-0.328125 -2.96875,-1.796875 0,-0.703125 0.515625,-1.75 1.859375,-2.453125 z m 0.640625,-0.25 c 0.546875,-0.1875 1.09375,-0.1875 1.234375,-0.1875 0.578125,0 0.6875,0.03125 1.015625,0.125 -0.359375,0.15625 -0.390625,0.15625 -1.140625,0.15625 -0.375,0 -0.703125,0 -1.109375,-0.09375 z m 0,0"
               id="path56" />
          </g>
        </g>
        <g
           fill="#000000"
           fill-opacity="1"
           id="g58"
           transform="matrix(0.352778,0,0,0.352778,-1.03933,-0.702028)">
          <g
             id="use23"
             transform="translate(137.73,17.49)">
            <path
               d="M 4.46875,2.421875 C 4.46875,3.25 3.921875,4.5625 1.671875,4.703125 1.5625,4.734375 1.484375,4.8125 1.484375,4.9375 c 0,0.234375 0.234375,0.234375 0.421875,0.234375 2,0 3.921875,-1.015625 3.9375,-2.59375 V -2.125 c 0,-0.8125 0,-1.46875 0.828125,-2.15625 C 7.390625,-4.875 8.1875,-4.921875 8.640625,-4.9375 8.734375,-4.953125 8.8125,-5.046875 8.8125,-5.171875 8.8125,-5.375 8.703125,-5.375 8.484375,-5.390625 7.125,-5.46875 6.140625,-6.21875 5.90625,-7.234375 c -0.0625,-0.21875 -0.0625,-0.265625 -0.0625,-1 v -4.09375 c 0,-0.875 0,-1.53125 -0.984375,-2.3125 C 4.03125,-15.28125 2.609375,-15.5 1.90625,-15.5 c -0.1875,0 -0.421875,0 -0.421875,0.234375 0,0.203125 0.125,0.203125 0.328125,0.234375 1.3125,0.07813 2.3125,0.734375 2.59375,1.796875 0.0625,0.171875 0.0625,0.21875 0.0625,0.96875 V -7.9375 c 0,0.953125 0.15625,1.3125 0.8125,1.96875 0.4375,0.4375 1.046875,0.640625 1.625,0.796875 -1.703125,0.484375 -2.4375,1.4375 -2.4375,2.625 z m 0,0"
               id="path34" />
          </g>
        </g>
      </g>
    </g>
  </g>
</svg>
