<?xml version="1.0" encoding="UTF-8" standalone="no"?>
<!-- Created with Inkscape (http://www.inkscape.org/) -->

<svg
   width="210mm"
   height="297mm"
   viewBox="0 0 210 297"
   version="1.1"
   id="svg1"
   inkscape:version="1.3.2 (091e20ef0f, 2023-11-25)"
   sodipodi:docname="faktorizace.svg"
   xmlns:inkscape="http://www.inkscape.org/namespaces/inkscape"
   xmlns:sodipodi="http://sodipodi.sourceforge.net/DTD/sodipodi-0.dtd"
   xmlns="http://www.w3.org/2000/svg"
   xmlns:svg="http://www.w3.org/2000/svg">
  <sodipodi:namedview
     id="namedview1"
     pagecolor="#ffffff"
     bordercolor="#000000"
     borderopacity="0.25"
     inkscape:showpageshadow="2"
     inkscape:pageopacity="0.0"
     inkscape:pagecheckerboard="0"
     inkscape:deskcolor="#d1d1d1"
     inkscape:document-units="mm"
     inkscape:zoom="2"
     inkscape:cx="423.75"
     inkscape:cy="370.5"
     inkscape:window-width="1920"
     inkscape:window-height="1012"
     inkscape:window-x="0"
     inkscape:window-y="0"
     inkscape:window-maximized="1"
     inkscape:current-layer="layer1" />
  <defs
     id="defs1" />
  <g
     inkscape:label="Layer 1"
     inkscape:groupmode="layer"
     id="layer1">
    <g
       id="g57">
      <g
         id="g10">
        <g
           inkscape:label=""
           transform="translate(71.269151,89.45636)"
           id="g1">
          <g
             fill="#000000"
             fill-opacity="1"
             id="g2"
             transform="matrix(0.352778,0,0,0.352778,-0.951133,-0.480131)">
            <g
               id="use1"
               transform="translate(1.993,16.111)">
              <path
                 d="M 3.515625,-2.296875 C 2.78125,-1.078125 2.09375,-0.65625 1.09375,-0.59375 0.875,-0.578125 0.703125,-0.578125 0.703125,-0.203125 0.703125,-0.078125 0.8125,0 0.953125,0 1.328125,0 2.25,-0.046875 2.625,-0.046875 3.21875,-0.046875 3.890625,0 4.46875,0 c 0.109375,0 0.359375,0 0.359375,-0.390625 0,-0.1875 -0.15625,-0.203125 -0.28125,-0.203125 -0.484375,-0.046875 -0.875,-0.21875 -0.875,-0.703125 0,-0.296875 0.125,-0.515625 0.390625,-0.96875 L 5.640625,-4.875 h 5.265625 c 0.01563,0.1875 0.01563,0.34375 0.04687,0.53125 0.0625,0.546875 0.296875,2.6875 0.296875,3.078125 0,0.625 -1.046875,0.671875 -1.375,0.671875 -0.234375,0 -0.453125,0 -0.453125,0.359375 C 9.421875,0 9.609375,0 9.734375,0 10.078125,0 10.5,-0.046875 10.84375,-0.046875 h 1.171875 C 13.28125,-0.046875 14.1875,0 14.21875,0 c 0.140625,0 0.359375,0 0.359375,-0.390625 0,-0.203125 -0.1875,-0.203125 -0.484375,-0.203125 -1.140625,0 -1.15625,-0.1875 -1.21875,-0.8125 L 11.609375,-14.296875 C 11.5625,-14.703125 11.484375,-14.75 11.25,-14.75 c -0.203125,0 -0.328125,0.04687 -0.515625,0.359375 z m 2.46875,-3.171875 4.15625,-6.953125 0.703125,6.953125 z m 0,0"
                 id="path2" />
            </g>
          </g>
        </g>
        <g
           inkscape:label=""
           transform="translate(71.269151,89.45636)"
           id="g5">
          <g
             fill="#000000"
             fill-opacity="1"
             id="g4"
             transform="matrix(0.352778,0,0,0.352778,-0.951133,-0.480131)">
            <g
               id="g3"
               transform="translate(1.993,16.111)">
              <path
                 d="M 3.515625,-2.296875 C 2.78125,-1.078125 2.09375,-0.65625 1.09375,-0.59375 0.875,-0.578125 0.703125,-0.578125 0.703125,-0.203125 0.703125,-0.078125 0.8125,0 0.953125,0 1.328125,0 2.25,-0.046875 2.625,-0.046875 3.21875,-0.046875 3.890625,0 4.46875,0 c 0.109375,0 0.359375,0 0.359375,-0.390625 0,-0.1875 -0.15625,-0.203125 -0.28125,-0.203125 -0.484375,-0.046875 -0.875,-0.21875 -0.875,-0.703125 0,-0.296875 0.125,-0.515625 0.390625,-0.96875 L 5.640625,-4.875 h 5.265625 c 0.01563,0.1875 0.01563,0.34375 0.04687,0.53125 0.0625,0.546875 0.296875,2.6875 0.296875,3.078125 0,0.625 -1.046875,0.671875 -1.375,0.671875 -0.234375,0 -0.453125,0 -0.453125,0.359375 C 9.421875,0 9.609375,0 9.734375,0 10.078125,0 10.5,-0.046875 10.84375,-0.046875 h 1.171875 C 13.28125,-0.046875 14.1875,0 14.21875,0 c 0.140625,0 0.359375,0 0.359375,-0.390625 0,-0.203125 -0.1875,-0.203125 -0.484375,-0.203125 -1.140625,0 -1.15625,-0.1875 -1.21875,-0.8125 L 11.609375,-14.296875 C 11.5625,-14.703125 11.484375,-14.75 11.25,-14.75 c -0.203125,0 -0.328125,0.04687 -0.515625,0.359375 z m 2.46875,-3.171875 4.15625,-6.953125 0.703125,6.953125 z m 0,0"
                 id="path1" />
            </g>
          </g>
        </g>
        <path
           style="fill:none;stroke:#000000;stroke-width:0.2"
           d="m 70.462613,101.45462 3.245262,-5.491039 3.262771,5.481209"
           id="path8"
           sodipodi:nodetypes="ccc" />
      </g>
      <g
         inkscape:label=""
         transform="translate(75.053258,102.61322)"
         id="g18">
        <g
           fill="#000000"
           fill-opacity="1"
           id="g16"
           transform="matrix(0.352778,0,0,0.352778,-0.907036,-0.649773)">
          <g
             id="use2"
             transform="translate(1.993,8.1700001)" />
        </g>
        <g
           fill="#000000"
           fill-opacity="1"
           id="g17"
           transform="matrix(0.352778,0,0,0.352778,-0.907036,-0.649773)">
          <g
             id="use3"
             transform="translate(9.3660002,10.321)">
            <g
               id="g129">
              <path
                 d="M 4.3125,-1.703125 C 4.25,-1.46875 4.25,-1.4375 4.046875,-1.15625 c -0.3125,0.390625 -0.953125,1.015625 -1.625,1.015625 -0.578125,0 -0.921875,-0.53125 -0.921875,-1.375 0,-0.796875 0.453125,-2.40625 0.71875,-3 0.5,-1 1.171875,-1.515625 1.71875,-1.515625 0.953125,0 1.140625,1.171875 1.140625,1.28125 0,0.015625 -0.046875,0.203125 -0.0625,0.234375 z M 5.234375,-5.375 C 5.078125,-5.75 4.6875,-6.328125 3.9375,-6.328125 c -1.609375,0 -3.359375,2.09375 -3.359375,4.21875 0,1.421875 0.828125,2.25 1.796875,2.25 0.796875,0 1.46875,-0.609375 1.875,-1.09375 0.140625,0.859375 0.8125,1.09375 1.25,1.09375 0.421875,0 0.765625,-0.25 1.03125,-0.765625 C 6.75,-1.125 6.953125,-2 6.953125,-2.046875 6.953125,-2.125 6.90625,-2.1875 6.8125,-2.1875 c -0.125,0 -0.140625,0.078125 -0.203125,0.296875 -0.21875,0.84375 -0.484375,1.75 -1.078125,1.75 -0.40625,0 -0.4375,-0.375 -0.4375,-0.65625 0,-0.34375 0.046875,-0.5 0.171875,-1.046875 0.09375,-0.359375 0.171875,-0.6875 0.28125,-1.09375 0.53125,-2.15625 0.65625,-2.671875 0.65625,-2.75 0,-0.203125 -0.15625,-0.359375 -0.359375,-0.359375 -0.46875,0 -0.578125,0.5 -0.609375,0.671875 z m 0,0"
                 id="path4"
                 transform="translate(-7.3730035,-2.1509986)" />
              <path
                 d="m 3.203125,-6.984375 c 0,-0.25 0,-0.28125 -0.25,-0.28125 C 2.28125,-6.5625 1.3125,-6.5625 0.96875,-6.5625 v 0.328125 c 0.21875,0 0.859375,0 1.4375,-0.28125 v 5.65625 c 0,0.390625 -0.046875,0.515625 -1.015625,0.515625 H 1.03125 V 0 c 0.390625,-0.03125 1.328125,-0.03125 1.765625,-0.03125 0.4375,0 1.390625,0 1.765625,0.03125 V -0.34375 H 4.21875 c -0.984375,0 -1.015625,-0.109375 -1.015625,-0.515625 z m 0,0"
                 id="path16" />
              <path
                 d="m 132.75533,27.188249 c -0.0625,0.234375 -0.0625,0.265625 -0.26563,0.546875 -0.3125,0.390625 -0.95312,1.015625 -1.625,1.015625 -0.57812,0 -0.92187,-0.53125 -0.92187,-1.375 0,-0.796875 0.45312,-2.40625 0.71875,-3 0.5,-1 1.17187,-1.515625 1.71875,-1.515625 0.95312,0 1.14062,1.171875 1.14062,1.28125 0,0.01563 -0.0469,0.203125 -0.0625,0.234375 z m 0.92187,-3.671875 c -0.15625,-0.375 -0.54687,-0.953125 -1.29687,-0.953125 -1.60938,0 -3.35938,2.09375 -3.35938,4.21875 0,1.421875 0.82813,2.25 1.79688,2.25 0.79687,0 1.46875,-0.609375 1.875,-1.09375 0.14062,0.859375 0.8125,1.09375 1.25,1.09375 0.42187,0 0.76562,-0.25 1.03125,-0.765625 0.21875,-0.5 0.42187,-1.375 0.42187,-1.421875 0,-0.07813 -0.0469,-0.140625 -0.14062,-0.140625 -0.125,0 -0.14063,0.07813 -0.20313,0.296875 -0.21875,0.84375 -0.48437,1.75 -1.07812,1.75 -0.40625,0 -0.4375,-0.375 -0.4375,-0.65625 0,-0.34375 0.0469,-0.5 0.17187,-1.046875 0.0937,-0.359375 0.17188,-0.6875 0.28125,-1.09375 0.53125,-2.15625 0.65625,-2.671875 0.65625,-2.75 0,-0.203125 -0.15625,-0.359375 -0.35937,-0.359375 -0.46875,0 -0.57813,0.5 -0.60938,0.671875 z m 0,0"
                 id="path130" />
              <path
                 d="m 139.01896,24.057997 c 0,-0.25 0,-0.28125 -0.25,-0.28125 -0.67188,0.703125 -1.64063,0.703125 -1.98438,0.703125 v 0.328125 c 0.21875,0 0.85938,0 1.4375,-0.28125 v 5.65625 c 0,0.390625 -0.0469,0.515625 -1.01562,0.515625 h -0.35938 v 0.34375 c 0.39063,-0.03125 1.32813,-0.03125 1.76563,-0.03125 0.4375,0 1.39062,0 1.76562,0.03125 v -0.34375 h -0.34375 c -0.98437,0 -1.01562,-0.109375 -1.01562,-0.515625 z m 0,0"
                 id="path131" />
            </g>
          </g>
        </g>
      </g>
      <g
         inkscape:label=""
         transform="translate(68.98746,102.61322)"
         id="g21">
        <g
           fill="#000000"
           fill-opacity="1"
           id="g20"
           transform="matrix(0.352778,0,0,0.352778,-0.907036,-0.64942)">
          <g
             id="g19"
             transform="translate(1.993,8.1689997)">
            <path
               d="m 6.640625,-3.625 c 0,-1.390625 -0.78125,-2.703125 -2.3125,-2.703125 -1.875,0 -3.75,2.046875 -3.75,4.09375 0,1.25 0.765625,2.375 2.234375,2.375 0.890625,0 1.953125,-0.34375 2.96875,-1.203125 0.203125,0.796875 0.640625,1.203125 1.265625,1.203125 0.765625,0 1.15625,-0.796875 1.15625,-0.984375 0,-0.125 -0.09375,-0.125 -0.140625,-0.125 -0.109375,0 -0.125,0.03125 -0.171875,0.15625 -0.125,0.359375 -0.453125,0.671875 -0.8125,0.671875 -0.4375,0 -0.4375,-0.921875 -0.4375,-1.796875 1.46875,-1.75 1.8125,-3.5625 1.8125,-3.578125 0,-0.125 -0.125,-0.125 -0.15625,-0.125 -0.140625,0 -0.15625,0.046875 -0.203125,0.3125 -0.1875,0.625 -0.5625,1.75 -1.453125,2.921875 z m -0.90625,2.21875 C 4.46875,-0.265625 3.34375,-0.140625 2.84375,-0.140625 c -1.015625,0 -1.3125,-0.90625 -1.3125,-1.578125 0,-0.625 0.3125,-2.078125 0.765625,-2.875 0.59375,-1 1.390625,-1.4375 2.03125,-1.4375 1.390625,0 1.390625,1.8125 1.390625,3.015625 0,0.359375 -0.015625,0.734375 -0.015625,1.09375 0,0.28125 0.015625,0.359375 0.03125,0.515625 z m 0,0"
               id="path18" />
          </g>
        </g>
      </g>
    </g>
    <g
       id="g58"
       transform="translate(-0.38446662)">
      <g
         id="g35"
         transform="translate(-3.3612935)">
        <g
           id="g9"
           transform="translate(-2.5475014)">
          <g
             inkscape:label=""
             transform="translate(89.294289,89.45636)"
             id="g8">
            <g
               fill="#000000"
               fill-opacity="1"
               id="g7"
               transform="matrix(0.352778,0,0,0.352778,-0.951133,-0.480131)">
              <g
                 id="g6"
                 transform="translate(1.993,16.111)">
                <path
                   d="M 3.515625,-2.296875 C 2.78125,-1.078125 2.09375,-0.65625 1.09375,-0.59375 0.875,-0.578125 0.703125,-0.578125 0.703125,-0.203125 0.703125,-0.078125 0.8125,0 0.953125,0 1.328125,0 2.25,-0.046875 2.625,-0.046875 3.21875,-0.046875 3.890625,0 4.46875,0 c 0.109375,0 0.359375,0 0.359375,-0.390625 0,-0.1875 -0.15625,-0.203125 -0.28125,-0.203125 -0.484375,-0.046875 -0.875,-0.21875 -0.875,-0.703125 0,-0.296875 0.125,-0.515625 0.390625,-0.96875 L 5.640625,-4.875 h 5.265625 c 0.01563,0.1875 0.01563,0.34375 0.04687,0.53125 0.0625,0.546875 0.296875,2.6875 0.296875,3.078125 0,0.625 -1.046875,0.671875 -1.375,0.671875 -0.234375,0 -0.453125,0 -0.453125,0.359375 C 9.421875,0 9.609375,0 9.734375,0 10.078125,0 10.5,-0.046875 10.84375,-0.046875 h 1.171875 C 13.28125,-0.046875 14.1875,0 14.21875,0 c 0.140625,0 0.359375,0 0.359375,-0.390625 0,-0.203125 -0.1875,-0.203125 -0.484375,-0.203125 -1.140625,0 -1.15625,-0.1875 -1.21875,-0.8125 L 11.609375,-14.296875 C 11.5625,-14.703125 11.484375,-14.75 11.25,-14.75 c -0.203125,0 -0.328125,0.04687 -0.515625,0.359375 z m 2.46875,-3.171875 4.15625,-6.953125 0.703125,6.953125 z m 0,0"
                   id="path5" />
              </g>
            </g>
          </g>
          <path
             style="fill:none;stroke:#000000;stroke-width:0.2"
             d="m 88.487751,101.45462 3.245262,-5.491039 3.262771,5.481209"
             id="path9"
             sodipodi:nodetypes="ccc" />
        </g>
        <g
           inkscape:label=""
           transform="translate(84.465097,102.61322)"
           id="g24">
          <g
             fill="#000000"
             fill-opacity="1"
             id="g23"
             transform="matrix(0.352778,0,0,0.352778,-0.907036,-0.64942)">
            <g
               id="g22"
               transform="translate(1.993,8.1689997)">
              <path
                 d="m 6.640625,-3.625 c 0,-1.390625 -0.78125,-2.703125 -2.3125,-2.703125 -1.875,0 -3.75,2.046875 -3.75,4.09375 0,1.25 0.765625,2.375 2.234375,2.375 0.890625,0 1.953125,-0.34375 2.96875,-1.203125 0.203125,0.796875 0.640625,1.203125 1.265625,1.203125 0.765625,0 1.15625,-0.796875 1.15625,-0.984375 0,-0.125 -0.09375,-0.125 -0.140625,-0.125 -0.109375,0 -0.125,0.03125 -0.171875,0.15625 -0.125,0.359375 -0.453125,0.671875 -0.8125,0.671875 -0.4375,0 -0.4375,-0.921875 -0.4375,-1.796875 1.46875,-1.75 1.8125,-3.5625 1.8125,-3.578125 0,-0.125 -0.125,-0.125 -0.15625,-0.125 -0.140625,0 -0.15625,0.046875 -0.203125,0.3125 -0.1875,0.625 -0.5625,1.75 -1.453125,2.921875 z m -0.90625,2.21875 C 4.46875,-0.265625 3.34375,-0.140625 2.84375,-0.140625 c -1.015625,0 -1.3125,-0.90625 -1.3125,-1.578125 0,-0.625 0.3125,-2.078125 0.765625,-2.875 0.59375,-1 1.390625,-1.4375 2.03125,-1.4375 1.390625,0 1.390625,1.8125 1.390625,3.015625 0,0.359375 -0.015625,0.734375 -0.015625,1.09375 0,0.28125 0.015625,0.359375 0.03125,0.515625 z m 0,0"
                 id="path21" />
            </g>
          </g>
        </g>
      </g>
      <g
         inkscape:label=""
         transform="translate(87.111723,102.61322)"
         id="g29">
        <g
           fill="#000000"
           fill-opacity="1"
           id="g26"
           transform="matrix(0.352778,0,0,0.352778,-0.907036,-0.649773)">
          <g
             id="g25"
             transform="translate(1.993,8.1700001)" />
        </g>
        <g
           fill="#000000"
           fill-opacity="1"
           id="g28"
           transform="matrix(0.352778,0,0,0.352778,-0.907036,-0.649773)">
          <g
             id="g27"
             transform="translate(9.3660002,10.321)">
            <g
               id="g133">
              <g
                 id="g134">
                <path
                   d="M 4.3125,-1.703125 C 4.25,-1.46875 4.25,-1.4375 4.046875,-1.15625 c -0.3125,0.390625 -0.953125,1.015625 -1.625,1.015625 -0.578125,0 -0.921875,-0.53125 -0.921875,-1.375 0,-0.796875 0.453125,-2.40625 0.71875,-3 0.5,-1 1.171875,-1.515625 1.71875,-1.515625 0.953125,0 1.140625,1.171875 1.140625,1.28125 0,0.015625 -0.046875,0.203125 -0.0625,0.234375 z M 5.234375,-5.375 C 5.078125,-5.75 4.6875,-6.328125 3.9375,-6.328125 c -1.609375,0 -3.359375,2.09375 -3.359375,4.21875 0,1.421875 0.828125,2.25 1.796875,2.25 0.796875,0 1.46875,-0.609375 1.875,-1.09375 0.140625,0.859375 0.8125,1.09375 1.25,1.09375 0.421875,0 0.765625,-0.25 1.03125,-0.765625 C 6.75,-1.125 6.953125,-2 6.953125,-2.046875 6.953125,-2.125 6.90625,-2.1875 6.8125,-2.1875 c -0.125,0 -0.140625,0.078125 -0.203125,0.296875 -0.21875,0.84375 -0.484375,1.75 -1.078125,1.75 -0.40625,0 -0.4375,-0.375 -0.4375,-0.65625 0,-0.34375 0.046875,-0.5 0.171875,-1.046875 0.09375,-0.359375 0.171875,-0.6875 0.28125,-1.09375 0.53125,-2.15625 0.65625,-2.671875 0.65625,-2.75 0,-0.203125 -0.15625,-0.359375 -0.359375,-0.359375 -0.46875,0 -0.578125,0.5 -0.609375,0.671875 z m 0,0"
                   id="path24"
                   transform="translate(-7.3730025,-2.1509986)" />
                <path
                   d="m 1.390625,-0.84375 1.15625,-1.125 c 1.703125,-1.5 2.34375,-2.09375 2.34375,-3.171875 0,-1.25 -0.96875,-2.125 -2.3125,-2.125 -1.21875,0 -2.03125,1 -2.03125,1.96875 0,0.625 0.546875,0.625 0.578125,0.625 0.1875,0 0.5625,-0.140625 0.5625,-0.578125 0,-0.296875 -0.1875,-0.578125 -0.578125,-0.578125 -0.078125,0 -0.109375,0 -0.140625,0.015625 0.25,-0.703125 0.84375,-1.109375 1.46875,-1.109375 1,0 1.46875,0.875 1.46875,1.78125 0,0.859375 -0.546875,1.734375 -1.140625,2.40625 l -2.09375,2.328125 c -0.125,0.125 -0.125,0.140625 -0.125,0.40625 H 4.59375 L 4.890625,-1.890625 H 4.625 C 4.5625,-1.578125 4.5,-1.09375 4.390625,-0.921875 4.3125,-0.84375 3.59375,-0.84375 3.34375,-0.84375 Z m 0,0"
                   id="path26" />
              </g>
            </g>
          </g>
        </g>
      </g>
    </g>
    <g
       id="g56"
       transform="translate(-3.9388379)">
      <g
         id="g43"
         transform="translate(18.674183)">
        <g
           id="g39"
           transform="translate(-2.5475014)">
          <g
             inkscape:label=""
             transform="translate(89.294289,89.45636)"
             id="g38">
            <g
               fill="#000000"
               fill-opacity="1"
               id="g37"
               transform="matrix(0.352778,0,0,0.352778,-0.951133,-0.480131)">
              <g
                 id="g36"
                 transform="translate(1.993,16.111)">
                <path
                   d="M 3.515625,-2.296875 C 2.78125,-1.078125 2.09375,-0.65625 1.09375,-0.59375 0.875,-0.578125 0.703125,-0.578125 0.703125,-0.203125 0.703125,-0.078125 0.8125,0 0.953125,0 1.328125,0 2.25,-0.046875 2.625,-0.046875 3.21875,-0.046875 3.890625,0 4.46875,0 c 0.109375,0 0.359375,0 0.359375,-0.390625 0,-0.1875 -0.15625,-0.203125 -0.28125,-0.203125 -0.484375,-0.046875 -0.875,-0.21875 -0.875,-0.703125 0,-0.296875 0.125,-0.515625 0.390625,-0.96875 L 5.640625,-4.875 h 5.265625 c 0.01563,0.1875 0.01563,0.34375 0.04687,0.53125 0.0625,0.546875 0.296875,2.6875 0.296875,3.078125 0,0.625 -1.046875,0.671875 -1.375,0.671875 -0.234375,0 -0.453125,0 -0.453125,0.359375 C 9.421875,0 9.609375,0 9.734375,0 10.078125,0 10.5,-0.046875 10.84375,-0.046875 h 1.171875 C 13.28125,-0.046875 14.1875,0 14.21875,0 c 0.140625,0 0.359375,0 0.359375,-0.390625 0,-0.203125 -0.1875,-0.203125 -0.484375,-0.203125 -1.140625,0 -1.15625,-0.1875 -1.21875,-0.8125 L 11.609375,-14.296875 C 11.5625,-14.703125 11.484375,-14.75 11.25,-14.75 c -0.203125,0 -0.328125,0.04687 -0.515625,0.359375 z m 2.46875,-3.171875 4.15625,-6.953125 0.703125,6.953125 z m 0,0"
                   id="path35" />
              </g>
            </g>
          </g>
          <path
             style="fill:none;stroke:#000000;stroke-width:0.2"
             d="m 88.487751,101.45462 3.245262,-5.491039 3.262771,5.481209"
             id="path38"
             sodipodi:nodetypes="ccc" />
        </g>
        <g
           inkscape:label=""
           transform="translate(84.465097,102.61322)"
           id="g42">
          <g
             fill="#000000"
             fill-opacity="1"
             id="g41"
             transform="matrix(0.352778,0,0,0.352778,-0.907036,-0.64942)">
            <g
               id="g40"
               transform="translate(1.993,8.1689997)">
              <path
                 d="m 6.640625,-3.625 c 0,-1.390625 -0.78125,-2.703125 -2.3125,-2.703125 -1.875,0 -3.75,2.046875 -3.75,4.09375 0,1.25 0.765625,2.375 2.234375,2.375 0.890625,0 1.953125,-0.34375 2.96875,-1.203125 0.203125,0.796875 0.640625,1.203125 1.265625,1.203125 0.765625,0 1.15625,-0.796875 1.15625,-0.984375 0,-0.125 -0.09375,-0.125 -0.140625,-0.125 -0.109375,0 -0.125,0.03125 -0.171875,0.15625 -0.125,0.359375 -0.453125,0.671875 -0.8125,0.671875 -0.4375,0 -0.4375,-0.921875 -0.4375,-1.796875 1.46875,-1.75 1.8125,-3.5625 1.8125,-3.578125 0,-0.125 -0.125,-0.125 -0.15625,-0.125 -0.140625,0 -0.15625,0.046875 -0.203125,0.3125 -0.1875,0.625 -0.5625,1.75 -1.453125,2.921875 z m -0.90625,2.21875 C 4.46875,-0.265625 3.34375,-0.140625 2.84375,-0.140625 c -1.015625,0 -1.3125,-0.90625 -1.3125,-1.578125 0,-0.625 0.3125,-2.078125 0.765625,-2.875 0.59375,-1 1.390625,-1.4375 2.03125,-1.4375 1.390625,0 1.390625,1.8125 1.390625,3.015625 0,0.359375 -0.015625,0.734375 -0.015625,1.09375 0,0.28125 0.015625,0.359375 0.03125,0.515625 z m 0,0"
                 id="path39" />
            </g>
          </g>
        </g>
      </g>
      <g
         inkscape:label=""
         transform="translate(108.91018,102.61322)"
         id="g48">
        <g
           fill="#000000"
           fill-opacity="1"
           id="g45"
           transform="matrix(0.352778,0,0,0.352778,-0.907036,-0.649773)">
          <g
             id="g44"
             transform="translate(1.993,8.1700001)">
            <path
               d="M 4.3125,-1.703125 C 4.25,-1.46875 4.25,-1.4375 4.046875,-1.15625 c -0.3125,0.390625 -0.953125,1.015625 -1.625,1.015625 -0.578125,0 -0.921875,-0.53125 -0.921875,-1.375 0,-0.796875 0.453125,-2.40625 0.71875,-3 0.5,-1 1.171875,-1.515625 1.71875,-1.515625 0.953125,0 1.140625,1.171875 1.140625,1.28125 0,0.015625 -0.046875,0.203125 -0.0625,0.234375 z M 5.234375,-5.375 C 5.078125,-5.75 4.6875,-6.328125 3.9375,-6.328125 c -1.609375,0 -3.359375,2.09375 -3.359375,4.21875 0,1.421875 0.828125,2.25 1.796875,2.25 0.796875,0 1.46875,-0.609375 1.875,-1.09375 0.140625,0.859375 0.8125,1.09375 1.25,1.09375 0.421875,0 0.765625,-0.25 1.03125,-0.765625 C 6.75,-1.125 6.953125,-2 6.953125,-2.046875 6.953125,-2.125 6.90625,-2.1875 6.8125,-2.1875 c -0.125,0 -0.140625,0.078125 -0.203125,0.296875 -0.21875,0.84375 -0.484375,1.75 -1.078125,1.75 -0.40625,0 -0.4375,-0.375 -0.4375,-0.65625 0,-0.34375 0.046875,-0.5 0.171875,-1.046875 0.09375,-0.359375 0.171875,-0.6875 0.28125,-1.09375 0.53125,-2.15625 0.65625,-2.671875 0.65625,-2.75 0,-0.203125 -0.15625,-0.359375 -0.359375,-0.359375 -0.46875,0 -0.578125,0.5 -0.609375,0.671875 z m 0,0"
               id="path43" />
          </g>
        </g>
        <g
           fill="#000000"
           fill-opacity="1"
           id="g47"
           transform="matrix(0.352778,0,0,0.352778,-0.907036,-0.649773)">
          <g
             id="g46"
             transform="translate(9.3660002,10.321)">
            <path
               d="m 0.953125,-0.640625 c -0.03125,0.15625 -0.09375,0.40625 -0.09375,0.46875 0,0.1875 0.15625,0.296875 0.3125,0.296875 C 1.3125,0.125 1.5,0.03125 1.578125,-0.1875 1.59375,-0.203125 1.71875,-0.71875 1.78125,-1 l 0.25,-0.96875 c 0.0625,-0.25 0.125,-0.484375 0.1875,-0.734375 0.03125,-0.1875 0.125,-0.5 0.140625,-0.546875 0.15625,-0.34375 0.734375,-1.328125 1.78125,-1.328125 0.484375,0 0.578125,0.40625 0.578125,0.765625 0,0.671875 -0.53125,2.0625 -0.703125,2.53125 -0.09375,0.25 -0.109375,0.390625 -0.109375,0.5 0,0.515625 0.375,0.90625 0.890625,0.90625 1.03125,0 1.4375,-1.59375 1.4375,-1.6875 0,-0.109375 -0.109375,-0.109375 -0.140625,-0.109375 -0.109375,0 -0.109375,0.03125 -0.15625,0.203125 C 5.71875,-0.734375 5.359375,-0.125 4.828125,-0.125 4.640625,-0.125 4.5625,-0.234375 4.5625,-0.484375 4.5625,-0.75 4.65625,-1.015625 4.75,-1.25 c 0.21875,-0.578125 0.671875,-1.78125 0.671875,-2.40625 0,-0.734375 -0.46875,-1.171875 -1.25,-1.171875 -0.984375,0 -1.515625,0.703125 -1.703125,0.953125 -0.0625,-0.609375 -0.5,-0.953125 -1,-0.953125 -0.515625,0 -0.71875,0.4375 -0.828125,0.625 -0.171875,0.375 -0.328125,1.015625 -0.328125,1.0625 0,0.109375 0.109375,0.109375 0.140625,0.109375 0.109375,0 0.109375,-0.015625 0.171875,-0.25 0.1875,-0.78125 0.40625,-1.296875 0.796875,-1.296875 0.21875,0 0.34375,0.140625 0.34375,0.5 0,0.234375 -0.03125,0.34375 -0.171875,0.921875 z m 0,0"
               id="path45" />
          </g>
        </g>
      </g>
    </g>
    <g
       inkscape:label=""
       transform="translate(92.509094,95.500223)"
       id="g55">
      <g
         fill="#000000"
         fill-opacity="1"
         id="g50"
         transform="matrix(0.352778,0,0,0.352778,-1.13855,-1.41967)">
        <g
           id="g49"
           transform="translate(1.993,8.368)">
          <path
             d="M 2.75,-3.578125 C 2.75,-4 2.40625,-4.34375 2,-4.34375 c -0.421875,0 -0.765625,0.34375 -0.765625,0.765625 0,0.40625 0.34375,0.75 0.765625,0.75 0.40625,0 0.75,-0.34375 0.75,-0.75 z m 0,0"
             id="path48" />
        </g>
      </g>
      <g
         fill="#000000"
         fill-opacity="1"
         id="g52"
         transform="matrix(0.352778,0,0,0.352778,-1.13855,-1.41967)">
        <g
           id="g51"
           transform="translate(8.3741903,8.368)">
          <path
             d="M 2.75,-3.578125 C 2.75,-4 2.40625,-4.34375 2,-4.34375 c -0.421875,0 -0.765625,0.34375 -0.765625,0.765625 0,0.40625 0.34375,0.75 0.765625,0.75 0.40625,0 0.75,-0.34375 0.75,-0.75 z m 0,0"
             id="path50" />
        </g>
      </g>
      <g
         fill="#000000"
         fill-opacity="1"
         id="g54"
         transform="matrix(0.352778,0,0,0.352778,-1.13855,-1.41967)">
        <g
           id="g53"
           transform="translate(14.741033,8.368)">
          <path
             d="M 2.75,-3.578125 C 2.75,-4 2.40625,-4.34375 2,-4.34375 c -0.421875,0 -0.765625,0.34375 -0.765625,0.765625 0,0.40625 0.34375,0.75 0.765625,0.75 0.40625,0 0.75,-0.34375 0.75,-0.75 z m 0,0"
             id="path6" />
        </g>
      </g>
    </g>
    <g
       inkscape:label=""
       transform="translate(111.22722,94.714738)"
       id="g61">
      <g
         fill="#000000"
         fill-opacity="1"
         id="g60"
         transform="matrix(0.352778,0,0,0.352778,-0.978694,0.0257968)">
        <g
           id="g59"
           transform="translate(1.993,7.2550001)">
          <path
             d="m 11.96875,-3.296875 c -0.796875,0.59375 -1.1875,1.1875 -1.296875,1.375 -0.640625,0.984375 -0.765625,1.890625 -0.765625,1.90625 0,0.171875 0.171875,0.171875 0.296875,0.171875 0.234375,0 0.25,-0.03125 0.3125,-0.28125 0.328125,-1.40625 1.171875,-2.609375 2.796875,-3.28125 0.171875,-0.046875 0.21875,-0.078125 0.21875,-0.171875 0,-0.109375 -0.09375,-0.15625 -0.125,-0.171875 -0.625,-0.234375 -2.359375,-0.953125 -2.90625,-3.359375 -0.04687,-0.171875 -0.0625,-0.21875 -0.296875,-0.21875 -0.125,0 -0.296875,0 -0.296875,0.171875 0,0.03125 0.140625,0.9375 0.734375,1.890625 0.296875,0.4375 0.703125,0.9375 1.328125,1.390625 H 1.3125 c -0.265625,0 -0.53125,0 -0.53125,0.296875 0,0.28125 0.265625,0.28125 0.53125,0.28125 z m 0,0"
             id="path58" />
        </g>
      </g>
    </g>
    <g
       id="g68"
       transform="translate(48.397128)">
      <g
         inkscape:label=""
         transform="translate(71.269151,89.45636)"
         id="g64">
        <g
           fill="#000000"
           fill-opacity="1"
           id="g63"
           transform="matrix(0.352778,0,0,0.352778,-0.951133,-0.480131)">
          <g
             id="g62"
             transform="translate(1.993,16.111)">
            <path
               d="M 3.515625,-2.296875 C 2.78125,-1.078125 2.09375,-0.65625 1.09375,-0.59375 0.875,-0.578125 0.703125,-0.578125 0.703125,-0.203125 0.703125,-0.078125 0.8125,0 0.953125,0 1.328125,0 2.25,-0.046875 2.625,-0.046875 3.21875,-0.046875 3.890625,0 4.46875,0 c 0.109375,0 0.359375,0 0.359375,-0.390625 0,-0.1875 -0.15625,-0.203125 -0.28125,-0.203125 -0.484375,-0.046875 -0.875,-0.21875 -0.875,-0.703125 0,-0.296875 0.125,-0.515625 0.390625,-0.96875 L 5.640625,-4.875 h 5.265625 c 0.01563,0.1875 0.01563,0.34375 0.04687,0.53125 0.0625,0.546875 0.296875,2.6875 0.296875,3.078125 0,0.625 -1.046875,0.671875 -1.375,0.671875 -0.234375,0 -0.453125,0 -0.453125,0.359375 C 9.421875,0 9.609375,0 9.734375,0 10.078125,0 10.5,-0.046875 10.84375,-0.046875 h 1.171875 C 13.28125,-0.046875 14.1875,0 14.21875,0 c 0.140625,0 0.359375,0 0.359375,-0.390625 0,-0.203125 -0.1875,-0.203125 -0.484375,-0.203125 -1.140625,0 -1.15625,-0.1875 -1.21875,-0.8125 L 11.609375,-14.296875 C 11.5625,-14.703125 11.484375,-14.75 11.25,-14.75 c -0.203125,0 -0.328125,0.04687 -0.515625,0.359375 z m 2.46875,-3.171875 4.15625,-6.953125 0.703125,6.953125 z m 0,0"
               id="path61" />
          </g>
        </g>
      </g>
      <g
         inkscape:label=""
         transform="translate(71.269151,89.45636)"
         id="g67">
        <g
           fill="#000000"
           fill-opacity="1"
           id="g66"
           transform="matrix(0.352778,0,0,0.352778,-0.951133,-0.480131)">
          <g
             id="g65"
             transform="translate(1.993,16.111)">
            <path
               d="M 3.515625,-2.296875 C 2.78125,-1.078125 2.09375,-0.65625 1.09375,-0.59375 0.875,-0.578125 0.703125,-0.578125 0.703125,-0.203125 0.703125,-0.078125 0.8125,0 0.953125,0 1.328125,0 2.25,-0.046875 2.625,-0.046875 3.21875,-0.046875 3.890625,0 4.46875,0 c 0.109375,0 0.359375,0 0.359375,-0.390625 0,-0.1875 -0.15625,-0.203125 -0.28125,-0.203125 -0.484375,-0.046875 -0.875,-0.21875 -0.875,-0.703125 0,-0.296875 0.125,-0.515625 0.390625,-0.96875 L 5.640625,-4.875 h 5.265625 c 0.01563,0.1875 0.01563,0.34375 0.04687,0.53125 0.0625,0.546875 0.296875,2.6875 0.296875,3.078125 0,0.625 -1.046875,0.671875 -1.375,0.671875 -0.234375,0 -0.453125,0 -0.453125,0.359375 C 9.421875,0 9.609375,0 9.734375,0 10.078125,0 10.5,-0.046875 10.84375,-0.046875 h 1.171875 C 13.28125,-0.046875 14.1875,0 14.21875,0 c 0.140625,0 0.359375,0 0.359375,-0.390625 0,-0.203125 -0.1875,-0.203125 -0.484375,-0.203125 -1.140625,0 -1.15625,-0.1875 -1.21875,-0.8125 L 11.609375,-14.296875 C 11.5625,-14.703125 11.484375,-14.75 11.25,-14.75 c -0.203125,0 -0.328125,0.04687 -0.515625,0.359375 z m 2.46875,-3.171875 4.15625,-6.953125 0.703125,6.953125 z m 0,0"
               id="path64" />
          </g>
        </g>
      </g>
      <path
         style="fill:none;stroke:#000000;stroke-width:0.2"
         d="m 70.462613,101.45462 3.245262,-5.491039 3.262771,5.481209"
         id="path67"
         sodipodi:nodetypes="ccc" />
    </g>
    <g
       inkscape:label=""
       transform="translate(117.38459,102.61322)"
       id="g76">
      <g
         fill="#000000"
         fill-opacity="1"
         id="g75"
         transform="matrix(0.352778,0,0,0.352778,-0.907036,-0.64942)">
        <g
           id="g74"
           transform="translate(1.993,8.1689997)">
          <path
             d="m 6.640625,-3.625 c 0,-1.390625 -0.78125,-2.703125 -2.3125,-2.703125 -1.875,0 -3.75,2.046875 -3.75,4.09375 0,1.25 0.765625,2.375 2.234375,2.375 0.890625,0 1.953125,-0.34375 2.96875,-1.203125 0.203125,0.796875 0.640625,1.203125 1.265625,1.203125 0.765625,0 1.15625,-0.796875 1.15625,-0.984375 0,-0.125 -0.09375,-0.125 -0.140625,-0.125 -0.109375,0 -0.125,0.03125 -0.171875,0.15625 -0.125,0.359375 -0.453125,0.671875 -0.8125,0.671875 -0.4375,0 -0.4375,-0.921875 -0.4375,-1.796875 1.46875,-1.75 1.8125,-3.5625 1.8125,-3.578125 0,-0.125 -0.125,-0.125 -0.15625,-0.125 -0.140625,0 -0.15625,0.046875 -0.203125,0.3125 -0.1875,0.625 -0.5625,1.75 -1.453125,2.921875 z m -0.90625,2.21875 C 4.46875,-0.265625 3.34375,-0.140625 2.84375,-0.140625 c -1.015625,0 -1.3125,-0.90625 -1.3125,-1.578125 0,-0.625 0.3125,-2.078125 0.765625,-2.875 0.59375,-1 1.390625,-1.4375 2.03125,-1.4375 1.390625,0 1.390625,1.8125 1.390625,3.015625 0,0.359375 -0.015625,0.734375 -0.015625,1.09375 0,0.28125 0.015625,0.359375 0.03125,0.515625 z m 0,0"
             id="path73" />
        </g>
      </g>
    </g>
    <g
       id="g85"
       transform="translate(44.651367)">
      <g
         id="g81"
         transform="translate(-2.5475014)">
        <g
           inkscape:label=""
           transform="translate(89.294289,89.45636)"
           id="g80">
          <g
             fill="#000000"
             fill-opacity="1"
             id="g79"
             transform="matrix(0.352778,0,0,0.352778,-0.951133,-0.480131)">
            <g
               id="g78"
               transform="translate(1.993,16.111)">
              <path
                 d="M 3.515625,-2.296875 C 2.78125,-1.078125 2.09375,-0.65625 1.09375,-0.59375 0.875,-0.578125 0.703125,-0.578125 0.703125,-0.203125 0.703125,-0.078125 0.8125,0 0.953125,0 1.328125,0 2.25,-0.046875 2.625,-0.046875 3.21875,-0.046875 3.890625,0 4.46875,0 c 0.109375,0 0.359375,0 0.359375,-0.390625 0,-0.1875 -0.15625,-0.203125 -0.28125,-0.203125 -0.484375,-0.046875 -0.875,-0.21875 -0.875,-0.703125 0,-0.296875 0.125,-0.515625 0.390625,-0.96875 L 5.640625,-4.875 h 5.265625 c 0.01563,0.1875 0.01563,0.34375 0.04687,0.53125 0.0625,0.546875 0.296875,2.6875 0.296875,3.078125 0,0.625 -1.046875,0.671875 -1.375,0.671875 -0.234375,0 -0.453125,0 -0.453125,0.359375 C 9.421875,0 9.609375,0 9.734375,0 10.078125,0 10.5,-0.046875 10.84375,-0.046875 h 1.171875 C 13.28125,-0.046875 14.1875,0 14.21875,0 c 0.140625,0 0.359375,0 0.359375,-0.390625 0,-0.203125 -0.1875,-0.203125 -0.484375,-0.203125 -1.140625,0 -1.15625,-0.1875 -1.21875,-0.8125 L 11.609375,-14.296875 C 11.5625,-14.703125 11.484375,-14.75 11.25,-14.75 c -0.203125,0 -0.328125,0.04687 -0.515625,0.359375 z m 2.46875,-3.171875 4.15625,-6.953125 0.703125,6.953125 z m 0,0"
                 id="path77" />
            </g>
          </g>
        </g>
        <path
           style="fill:none;stroke:#000000;stroke-width:0.2"
           d="m 88.487751,101.45462 3.245262,-5.491039 3.262771,5.481209"
           id="path80"
           sodipodi:nodetypes="ccc" />
      </g>
      <g
         inkscape:label=""
         transform="translate(84.465097,102.61322)"
         id="g84">
        <g
           fill="#000000"
           fill-opacity="1"
           id="g83"
           transform="matrix(0.352778,0,0,0.352778,-0.907036,-0.64942)">
          <g
             id="g82"
             transform="translate(1.993,8.1689997)">
            <path
               d="m 6.640625,-3.625 c 0,-1.390625 -0.78125,-2.703125 -2.3125,-2.703125 -1.875,0 -3.75,2.046875 -3.75,4.09375 0,1.25 0.765625,2.375 2.234375,2.375 0.890625,0 1.953125,-0.34375 2.96875,-1.203125 0.203125,0.796875 0.640625,1.203125 1.265625,1.203125 0.765625,0 1.15625,-0.796875 1.15625,-0.984375 0,-0.125 -0.09375,-0.125 -0.140625,-0.125 -0.109375,0 -0.125,0.03125 -0.171875,0.15625 -0.125,0.359375 -0.453125,0.671875 -0.8125,0.671875 -0.4375,0 -0.4375,-0.921875 -0.4375,-1.796875 1.46875,-1.75 1.8125,-3.5625 1.8125,-3.578125 0,-0.125 -0.125,-0.125 -0.15625,-0.125 -0.140625,0 -0.15625,0.046875 -0.203125,0.3125 -0.1875,0.625 -0.5625,1.75 -1.453125,2.921875 z m -0.90625,2.21875 C 4.46875,-0.265625 3.34375,-0.140625 2.84375,-0.140625 c -1.015625,0 -1.3125,-0.90625 -1.3125,-1.578125 0,-0.625 0.3125,-2.078125 0.765625,-2.875 0.59375,-1 1.390625,-1.4375 2.03125,-1.4375 1.390625,0 1.390625,1.8125 1.390625,3.015625 0,0.359375 -0.015625,0.734375 -0.015625,1.09375 0,0.28125 0.015625,0.359375 0.03125,0.515625 z m 0,0"
               id="path81" />
          </g>
        </g>
      </g>
    </g>
    <g
       id="g99"
       transform="translate(63.132473)">
      <g
         id="g95"
         transform="translate(-2.5475014)">
        <g
           inkscape:label=""
           transform="translate(89.294289,89.45636)"
           id="g94">
          <g
             fill="#000000"
             fill-opacity="1"
             id="g93"
             transform="matrix(0.352778,0,0,0.352778,-0.951133,-0.480131)">
            <g
               id="g92"
               transform="translate(1.993,16.111)">
              <path
                 d="M 3.515625,-2.296875 C 2.78125,-1.078125 2.09375,-0.65625 1.09375,-0.59375 0.875,-0.578125 0.703125,-0.578125 0.703125,-0.203125 0.703125,-0.078125 0.8125,0 0.953125,0 1.328125,0 2.25,-0.046875 2.625,-0.046875 3.21875,-0.046875 3.890625,0 4.46875,0 c 0.109375,0 0.359375,0 0.359375,-0.390625 0,-0.1875 -0.15625,-0.203125 -0.28125,-0.203125 -0.484375,-0.046875 -0.875,-0.21875 -0.875,-0.703125 0,-0.296875 0.125,-0.515625 0.390625,-0.96875 L 5.640625,-4.875 h 5.265625 c 0.01563,0.1875 0.01563,0.34375 0.04687,0.53125 0.0625,0.546875 0.296875,2.6875 0.296875,3.078125 0,0.625 -1.046875,0.671875 -1.375,0.671875 -0.234375,0 -0.453125,0 -0.453125,0.359375 C 9.421875,0 9.609375,0 9.734375,0 10.078125,0 10.5,-0.046875 10.84375,-0.046875 h 1.171875 C 13.28125,-0.046875 14.1875,0 14.21875,0 c 0.140625,0 0.359375,0 0.359375,-0.390625 0,-0.203125 -0.1875,-0.203125 -0.484375,-0.203125 -1.140625,0 -1.15625,-0.1875 -1.21875,-0.8125 L 11.609375,-14.296875 C 11.5625,-14.703125 11.484375,-14.75 11.25,-14.75 c -0.203125,0 -0.328125,0.04687 -0.515625,0.359375 z m 2.46875,-3.171875 4.15625,-6.953125 0.703125,6.953125 z m 0,0"
                 id="path91" />
            </g>
          </g>
        </g>
        <path
           style="fill:none;stroke:#000000;stroke-width:0.2"
           d="m 88.487751,101.45462 3.245262,-5.491039 3.262771,5.481209"
           id="path94"
           sodipodi:nodetypes="ccc" />
      </g>
      <g
         inkscape:label=""
         transform="translate(84.465097,102.61322)"
         id="g98">
        <g
           fill="#000000"
           fill-opacity="1"
           id="g97"
           transform="matrix(0.352778,0,0,0.352778,-0.907036,-0.64942)">
          <g
             id="g96"
             transform="translate(1.993,8.1689997)">
            <path
               d="m 6.640625,-3.625 c 0,-1.390625 -0.78125,-2.703125 -2.3125,-2.703125 -1.875,0 -3.75,2.046875 -3.75,4.09375 0,1.25 0.765625,2.375 2.234375,2.375 0.890625,0 1.953125,-0.34375 2.96875,-1.203125 0.203125,0.796875 0.640625,1.203125 1.265625,1.203125 0.765625,0 1.15625,-0.796875 1.15625,-0.984375 0,-0.125 -0.09375,-0.125 -0.140625,-0.125 -0.109375,0 -0.125,0.03125 -0.171875,0.15625 -0.125,0.359375 -0.453125,0.671875 -0.8125,0.671875 -0.4375,0 -0.4375,-0.921875 -0.4375,-1.796875 1.46875,-1.75 1.8125,-3.5625 1.8125,-3.578125 0,-0.125 -0.125,-0.125 -0.15625,-0.125 -0.140625,0 -0.15625,0.046875 -0.203125,0.3125 -0.1875,0.625 -0.5625,1.75 -1.453125,2.921875 z m -0.90625,2.21875 C 4.46875,-0.265625 3.34375,-0.140625 2.84375,-0.140625 c -1.015625,0 -1.3125,-0.90625 -1.3125,-1.578125 0,-0.625 0.3125,-2.078125 0.765625,-2.875 0.59375,-1 1.390625,-1.4375 2.03125,-1.4375 1.390625,0 1.390625,1.8125 1.390625,3.015625 0,0.359375 -0.015625,0.734375 -0.015625,1.09375 0,0.28125 0.015625,0.359375 0.03125,0.515625 z m 0,0"
               id="path95" />
          </g>
        </g>
      </g>
    </g>
    <g
       inkscape:label=""
       transform="translate(140.90622,95.500223)"
       id="g112">
      <g
         fill="#000000"
         fill-opacity="1"
         id="g107"
         transform="matrix(0.352778,0,0,0.352778,-1.13855,-1.41967)">
        <g
           id="g106"
           transform="translate(1.993,8.368)">
          <path
             d="M 2.75,-3.578125 C 2.75,-4 2.40625,-4.34375 2,-4.34375 c -0.421875,0 -0.765625,0.34375 -0.765625,0.765625 0,0.40625 0.34375,0.75 0.765625,0.75 0.40625,0 0.75,-0.34375 0.75,-0.75 z m 0,0"
             id="path105" />
        </g>
      </g>
      <g
         fill="#000000"
         fill-opacity="1"
         id="g109"
         transform="matrix(0.352778,0,0,0.352778,-1.13855,-1.41967)">
        <g
           id="g108"
           transform="translate(8.3741903,8.368)">
          <path
             d="M 2.75,-3.578125 C 2.75,-4 2.40625,-4.34375 2,-4.34375 c -0.421875,0 -0.765625,0.34375 -0.765625,0.765625 0,0.40625 0.34375,0.75 0.765625,0.75 0.40625,0 0.75,-0.34375 0.75,-0.75 z m 0,0"
             id="path107" />
        </g>
      </g>
      <g
         fill="#000000"
         fill-opacity="1"
         id="g111"
         transform="matrix(0.352778,0,0,0.352778,-1.13855,-1.41967)">
        <g
           id="g110"
           transform="translate(14.741033,8.368)">
          <path
             d="M 2.75,-3.578125 C 2.75,-4 2.40625,-4.34375 2,-4.34375 c -0.421875,0 -0.765625,0.34375 -0.765625,0.765625 0,0.40625 0.34375,0.75 0.765625,0.75 0.40625,0 0.75,-0.34375 0.75,-0.75 z m 0,0"
             id="path109" />
        </g>
      </g>
    </g>
    <g
       inkscape:label=""
       transform="translate(123.1774,101.76108)"
       id="g117">
      <g
         fill="#000000"
         fill-opacity="1"
         id="g114"
         transform="matrix(0.352778,0,0,0.352778,-0.873963,-0.69118)">
        <g
           id="g113"
           transform="translate(1.993,13.259)">
          <path
             d="M 2.4375,-1.59375 C 1.9375,-0.75 1.453125,-0.453125 0.765625,-0.421875 0.609375,-0.40625 0.484375,-0.40625 0.484375,-0.140625 0.484375,-0.0625 0.5625,0 0.65625,0 0.921875,0 1.5625,-0.03125 1.828125,-0.03125 2.234375,-0.03125 2.703125,0 3.09375,0 3.1875,0 3.359375,0 3.359375,-0.265625 c 0,-0.140625 -0.125,-0.15625 -0.203125,-0.15625 C 2.828125,-0.4375 2.546875,-0.5625 2.546875,-0.90625 c 0,-0.203125 0.09375,-0.359375 0.28125,-0.671875 l 1.09375,-1.8125 h 3.65625 c 0.015625,0.140625 0.015625,0.25 0.03125,0.375 0.03125,0.375 0.203125,1.875 0.203125,2.140625 0,0.4375 -0.734375,0.453125 -0.953125,0.453125 -0.15625,0 -0.3125,0 -0.3125,0.265625 C 6.546875,0 6.671875,0 6.75,0 7,0 7.28125,-0.03125 7.53125,-0.03125 h 0.8125 C 9.21875,-0.03125 9.859375,0 9.875,0 c 0.09375,0 0.25,0 0.25,-0.265625 0,-0.15625 -0.125,-0.15625 -0.34375,-0.15625 -0.78125,0 -0.796875,-0.125 -0.84375,-0.546875 l -0.875,-8.953125 c -0.03125,-0.296875 -0.09375,-0.3125 -0.25,-0.3125 -0.140625,0 -0.21875,0.01563 -0.359375,0.234375 z M 4.15625,-3.796875 7.046875,-8.625 7.53125,-3.796875 Z m 0,0"
             id="path112" />
        </g>
      </g>
      <g
         fill="#000000"
         fill-opacity="1"
         id="g116"
         transform="matrix(0.352778,0,0,0.352778,-0.873963,-0.69118)">
        <g
           id="g115"
           transform="translate(12.523,8.0530005)">
          <path
             d="m 2.765625,-5.1875 c 0.046875,-0.125 0.09375,-0.21875 0.09375,-0.328125 0,-0.3125 -0.28125,-0.578125 -0.625,-0.578125 -0.296875,0 -0.5,0.203125 -0.578125,0.484375 L 0.359375,-0.84375 c 0,0.03125 -0.046875,0.140625 -0.046875,0.15625 0,0.125 0.28125,0.203125 0.375,0.203125 0.0625,0 0.078125,-0.046875 0.140625,-0.1875 z m 0,0"
             id="path114" />
        </g>
      </g>
    </g>
    <g
       inkscape:label=""
       transform="translate(134.90928,101.76108)"
       id="g122">
      <g
         fill="#000000"
         fill-opacity="1"
         id="g119"
         transform="matrix(0.352778,0,0,0.352778,-0.873963,-0.69118)">
        <g
           id="g118"
           transform="translate(1.993,13.259)">
          <path
             d="M 2.4375,-1.59375 C 1.9375,-0.75 1.453125,-0.453125 0.765625,-0.421875 0.609375,-0.40625 0.484375,-0.40625 0.484375,-0.140625 0.484375,-0.0625 0.5625,0 0.65625,0 0.921875,0 1.5625,-0.03125 1.828125,-0.03125 2.234375,-0.03125 2.703125,0 3.09375,0 3.1875,0 3.359375,0 3.359375,-0.265625 c 0,-0.140625 -0.125,-0.15625 -0.203125,-0.15625 C 2.828125,-0.4375 2.546875,-0.5625 2.546875,-0.90625 c 0,-0.203125 0.09375,-0.359375 0.28125,-0.671875 l 1.09375,-1.8125 h 3.65625 c 0.015625,0.140625 0.015625,0.25 0.03125,0.375 0.03125,0.375 0.203125,1.875 0.203125,2.140625 0,0.4375 -0.734375,0.453125 -0.953125,0.453125 -0.15625,0 -0.3125,0 -0.3125,0.265625 C 6.546875,0 6.671875,0 6.75,0 7,0 7.28125,-0.03125 7.53125,-0.03125 h 0.8125 C 9.21875,-0.03125 9.859375,0 9.875,0 c 0.09375,0 0.25,0 0.25,-0.265625 0,-0.15625 -0.125,-0.15625 -0.34375,-0.15625 -0.78125,0 -0.796875,-0.125 -0.84375,-0.546875 l -0.875,-8.953125 c -0.03125,-0.296875 -0.09375,-0.3125 -0.25,-0.3125 -0.140625,0 -0.21875,0.01563 -0.359375,0.234375 z M 4.15625,-3.796875 7.046875,-8.625 7.53125,-3.796875 Z m 0,0"
             id="path117" />
        </g>
      </g>
      <g
         fill="#000000"
         fill-opacity="1"
         id="g121"
         transform="matrix(0.352778,0,0,0.352778,-0.873963,-0.69118)">
        <g
           id="g120"
           transform="translate(12.523,8.0530005)">
          <path
             d="m 2.765625,-5.1875 c 0.046875,-0.125 0.09375,-0.21875 0.09375,-0.328125 0,-0.3125 -0.28125,-0.578125 -0.625,-0.578125 -0.296875,0 -0.5,0.203125 -0.578125,0.484375 L 0.359375,-0.84375 c 0,0.03125 -0.046875,0.140625 -0.046875,0.15625 0,0.125 0.28125,0.203125 0.375,0.203125 0.0625,0 0.078125,-0.046875 0.140625,-0.1875 z m 0,0"
             id="path119" />
        </g>
      </g>
    </g>
    <g
       inkscape:label=""
       transform="translate(153.39038,101.76108)"
       id="g127">
      <g
         fill="#000000"
         fill-opacity="1"
         id="g124"
         transform="matrix(0.352778,0,0,0.352778,-0.873963,-0.69118)">
        <g
           id="g123"
           transform="translate(1.993,13.259)">
          <path
             d="M 2.4375,-1.59375 C 1.9375,-0.75 1.453125,-0.453125 0.765625,-0.421875 0.609375,-0.40625 0.484375,-0.40625 0.484375,-0.140625 0.484375,-0.0625 0.5625,0 0.65625,0 0.921875,0 1.5625,-0.03125 1.828125,-0.03125 2.234375,-0.03125 2.703125,0 3.09375,0 3.1875,0 3.359375,0 3.359375,-0.265625 c 0,-0.140625 -0.125,-0.15625 -0.203125,-0.15625 C 2.828125,-0.4375 2.546875,-0.5625 2.546875,-0.90625 c 0,-0.203125 0.09375,-0.359375 0.28125,-0.671875 l 1.09375,-1.8125 h 3.65625 c 0.015625,0.140625 0.015625,0.25 0.03125,0.375 0.03125,0.375 0.203125,1.875 0.203125,2.140625 0,0.4375 -0.734375,0.453125 -0.953125,0.453125 -0.15625,0 -0.3125,0 -0.3125,0.265625 C 6.546875,0 6.671875,0 6.75,0 7,0 7.28125,-0.03125 7.53125,-0.03125 h 0.8125 C 9.21875,-0.03125 9.859375,0 9.875,0 c 0.09375,0 0.25,0 0.25,-0.265625 0,-0.15625 -0.125,-0.15625 -0.34375,-0.15625 -0.78125,0 -0.796875,-0.125 -0.84375,-0.546875 l -0.875,-8.953125 c -0.03125,-0.296875 -0.09375,-0.3125 -0.25,-0.3125 -0.140625,0 -0.21875,0.01563 -0.359375,0.234375 z M 4.15625,-3.796875 7.046875,-8.625 7.53125,-3.796875 Z m 0,0"
             id="path122" />
        </g>
      </g>
      <g
         fill="#000000"
         fill-opacity="1"
         id="g126"
         transform="matrix(0.352778,0,0,0.352778,-0.873963,-0.69118)">
        <g
           id="g125"
           transform="translate(12.523,8.0530005)">
          <path
             d="m 2.765625,-5.1875 c 0.046875,-0.125 0.09375,-0.21875 0.09375,-0.328125 0,-0.3125 -0.28125,-0.578125 -0.625,-0.578125 -0.296875,0 -0.5,0.203125 -0.578125,0.484375 L 0.359375,-0.84375 c 0,0.03125 -0.046875,0.140625 -0.046875,0.15625 0,0.125 0.28125,0.203125 0.375,0.203125 0.0625,0 0.078125,-0.046875 0.140625,-0.1875 z m 0,0"
             id="path124" />
        </g>
      </g>
    </g>
    <path
       style="fill:none;stroke:#000000;stroke-width:0.2;marker-end:"
       d="m 124.8779,107.08739 v 5.13689"
       id="path127" />
    <path
       style="fill:none;stroke:#000000;stroke-width:0.2"
       d="m 136.60978,107.08739 v 5.13689"
       id="path128" />
    <path
       style="fill:none;stroke:#000000;stroke-width:0.2"
       d="m 155.09088,107.08739 v 5.13689"
       id="path129" />
    <g
       inkscape:label=""
       transform="translate(134.64859,113.56429)"
       id="g139">
      <g
         fill="#000000"
         fill-opacity="1"
         id="g136"
         transform="matrix(0.352778,0,0,0.352778,-0.907036,-0.649773)">
        <g
           id="g135"
           transform="translate(1.993,8.1700001)">
          <path
             d="M 4.3125,-1.703125 C 4.25,-1.46875 4.25,-1.4375 4.046875,-1.15625 c -0.3125,0.390625 -0.953125,1.015625 -1.625,1.015625 -0.578125,0 -0.921875,-0.53125 -0.921875,-1.375 0,-0.796875 0.453125,-2.40625 0.71875,-3 0.5,-1 1.171875,-1.515625 1.71875,-1.515625 0.953125,0 1.140625,1.171875 1.140625,1.28125 0,0.015625 -0.046875,0.203125 -0.0625,0.234375 z M 5.234375,-5.375 C 5.078125,-5.75 4.6875,-6.328125 3.9375,-6.328125 c -1.609375,0 -3.359375,2.09375 -3.359375,4.21875 0,1.421875 0.828125,2.25 1.796875,2.25 0.796875,0 1.46875,-0.609375 1.875,-1.09375 0.140625,0.859375 0.8125,1.09375 1.25,1.09375 0.421875,0 0.765625,-0.25 1.03125,-0.765625 C 6.75,-1.125 6.953125,-2 6.953125,-2.046875 6.953125,-2.125 6.90625,-2.1875 6.8125,-2.1875 c -0.125,0 -0.140625,0.078125 -0.203125,0.296875 -0.21875,0.84375 -0.484375,1.75 -1.078125,1.75 -0.40625,0 -0.4375,-0.375 -0.4375,-0.65625 0,-0.34375 0.046875,-0.5 0.171875,-1.046875 0.09375,-0.359375 0.171875,-0.6875 0.28125,-1.09375 0.53125,-2.15625 0.65625,-2.671875 0.65625,-2.75 0,-0.203125 -0.15625,-0.359375 -0.359375,-0.359375 -0.46875,0 -0.578125,0.5 -0.609375,0.671875 z m 0,0"
             id="path135" />
        </g>
      </g>
      <g
         fill="#000000"
         fill-opacity="1"
         id="g138"
         transform="matrix(0.352778,0,0,0.352778,-0.907036,-0.649773)">
        <g
           id="g137"
           transform="translate(9.3660002,10.321)">
          <path
             d="m 1.390625,-0.84375 1.15625,-1.125 c 1.703125,-1.5 2.34375,-2.09375 2.34375,-3.171875 0,-1.25 -0.96875,-2.125 -2.3125,-2.125 -1.21875,0 -2.03125,1 -2.03125,1.96875 0,0.625 0.546875,0.625 0.578125,0.625 0.1875,0 0.5625,-0.140625 0.5625,-0.578125 0,-0.296875 -0.1875,-0.578125 -0.578125,-0.578125 -0.078125,0 -0.109375,0 -0.140625,0.015625 0.25,-0.703125 0.84375,-1.109375 1.46875,-1.109375 1,0 1.46875,0.875 1.46875,1.78125 0,0.859375 -0.546875,1.734375 -1.140625,2.40625 l -2.09375,2.328125 c -0.125,0.125 -0.125,0.140625 -0.125,0.40625 H 4.59375 L 4.890625,-1.890625 H 4.625 C 4.5625,-1.578125 4.5,-1.09375 4.390625,-0.921875 4.3125,-0.84375 3.59375,-0.84375 3.34375,-0.84375 Z m 0,0"
             id="path136" />
        </g>
      </g>
    </g>
    <g
       inkscape:label=""
       transform="translate(152.89266,113.56429)"
       id="g144">
      <g
         fill="#000000"
         fill-opacity="1"
         id="g141"
         transform="matrix(0.352778,0,0,0.352778,-0.907036,-0.649773)">
        <g
           id="g140"
           transform="translate(1.993,8.1700001)">
          <path
             d="M 4.3125,-1.703125 C 4.25,-1.46875 4.25,-1.4375 4.046875,-1.15625 c -0.3125,0.390625 -0.953125,1.015625 -1.625,1.015625 -0.578125,0 -0.921875,-0.53125 -0.921875,-1.375 0,-0.796875 0.453125,-2.40625 0.71875,-3 0.5,-1 1.171875,-1.515625 1.71875,-1.515625 0.953125,0 1.140625,1.171875 1.140625,1.28125 0,0.015625 -0.046875,0.203125 -0.0625,0.234375 z M 5.234375,-5.375 C 5.078125,-5.75 4.6875,-6.328125 3.9375,-6.328125 c -1.609375,0 -3.359375,2.09375 -3.359375,4.21875 0,1.421875 0.828125,2.25 1.796875,2.25 0.796875,0 1.46875,-0.609375 1.875,-1.09375 0.140625,0.859375 0.8125,1.09375 1.25,1.09375 0.421875,0 0.765625,-0.25 1.03125,-0.765625 C 6.75,-1.125 6.953125,-2 6.953125,-2.046875 6.953125,-2.125 6.90625,-2.1875 6.8125,-2.1875 c -0.125,0 -0.140625,0.078125 -0.203125,0.296875 -0.21875,0.84375 -0.484375,1.75 -1.078125,1.75 -0.40625,0 -0.4375,-0.375 -0.4375,-0.65625 0,-0.34375 0.046875,-0.5 0.171875,-1.046875 0.09375,-0.359375 0.171875,-0.6875 0.28125,-1.09375 0.53125,-2.15625 0.65625,-2.671875 0.65625,-2.75 0,-0.203125 -0.15625,-0.359375 -0.359375,-0.359375 -0.46875,0 -0.578125,0.5 -0.609375,0.671875 z m 0,0"
             id="path139" />
        </g>
      </g>
      <g
         fill="#000000"
         fill-opacity="1"
         id="g143"
         transform="matrix(0.352778,0,0,0.352778,-0.907036,-0.649773)">
        <g
           id="g142"
           transform="translate(9.3660002,10.321)">
          <path
             d="m 0.953125,-0.640625 c -0.03125,0.15625 -0.09375,0.40625 -0.09375,0.46875 0,0.1875 0.15625,0.296875 0.3125,0.296875 C 1.3125,0.125 1.5,0.03125 1.578125,-0.1875 1.59375,-0.203125 1.71875,-0.71875 1.78125,-1 l 0.25,-0.96875 c 0.0625,-0.25 0.125,-0.484375 0.1875,-0.734375 0.03125,-0.1875 0.125,-0.5 0.140625,-0.546875 0.15625,-0.34375 0.734375,-1.328125 1.78125,-1.328125 0.484375,0 0.578125,0.40625 0.578125,0.765625 0,0.671875 -0.53125,2.0625 -0.703125,2.53125 -0.09375,0.25 -0.109375,0.390625 -0.109375,0.5 0,0.515625 0.375,0.90625 0.890625,0.90625 1.03125,0 1.4375,-1.59375 1.4375,-1.6875 0,-0.109375 -0.109375,-0.109375 -0.140625,-0.109375 -0.109375,0 -0.109375,0.03125 -0.15625,0.203125 C 5.71875,-0.734375 5.359375,-0.125 4.828125,-0.125 4.640625,-0.125 4.5625,-0.234375 4.5625,-0.484375 4.5625,-0.75 4.65625,-1.015625 4.75,-1.25 c 0.21875,-0.578125 0.671875,-1.78125 0.671875,-2.40625 0,-0.734375 -0.46875,-1.171875 -1.25,-1.171875 -0.984375,0 -1.515625,0.703125 -1.703125,0.953125 -0.0625,-0.609375 -0.5,-0.953125 -1,-0.953125 -0.515625,0 -0.71875,0.4375 -0.828125,0.625 -0.171875,0.375 -0.328125,1.015625 -0.328125,1.0625 0,0.109375 0.109375,0.109375 0.140625,0.109375 0.109375,0 0.109375,-0.015625 0.171875,-0.25 0.1875,-0.78125 0.40625,-1.296875 0.796875,-1.296875 0.21875,0 0.34375,0.140625 0.34375,0.5 0,0.234375 -0.03125,0.34375 -0.171875,0.921875 z m 0,0"
             id="path141" />
        </g>
      </g>
    </g>
  </g>
</svg>
