<?xml version="1.0" encoding="UTF-8" standalone="no"?>
<!-- Created with Inkscape (http://www.inkscape.org/) -->

<svg
   width="210mm"
   height="297mm"
   viewBox="0 0 210 297"
   version="1.1"
   id="svg1"
   inkscape:version="1.3.2 (091e20ef0f, 2023-11-25)"
   sodipodi:docname="leva_rekurze.svg"
   xmlns:inkscape="http://www.inkscape.org/namespaces/inkscape"
   xmlns:sodipodi="http://sodipodi.sourceforge.net/DTD/sodipodi-0.dtd"
   xmlns="http://www.w3.org/2000/svg"
   xmlns:svg="http://www.w3.org/2000/svg">
  <sodipodi:namedview
     id="namedview1"
     pagecolor="#ffffff"
     bordercolor="#000000"
     borderopacity="0.25"
     inkscape:showpageshadow="2"
     inkscape:pageopacity="0.0"
     inkscape:pagecheckerboard="0"
     inkscape:deskcolor="#d1d1d1"
     inkscape:document-units="mm"
     inkscape:zoom="2.0359279"
     inkscape:cx="301.3368"
     inkscape:cy="500.01771"
     inkscape:window-width="1920"
     inkscape:window-height="1012"
     inkscape:window-x="0"
     inkscape:window-y="0"
     inkscape:window-maximized="1"
     inkscape:current-layer="layer1" />
  <defs
     id="defs1" />
  <g
     inkscape:label="Layer 1"
     inkscape:groupmode="layer"
     id="layer1">
    <g
       id="g99">
      <path
         style="fill:none;stroke:#000000;stroke-width:0.2;stroke-dasharray:none"
         d="m 67.591664,130.11788 -5.253377,1.69765"
         id="path20" />
      <path
         style="fill:none;stroke:#000000;stroke-width:0.2;stroke-dasharray:none"
         d="m 57.517988,133.57527 -5.253377,1.69765"
         id="path21" />
      <g
         inkscape:label=""
         transform="translate(46.453432,135.84094)"
         id="g25">
        <g
           fill="#000000"
           fill-opacity="1"
           id="g22"
           transform="matrix(0.352778,0,0,0.352778,-1.14406,-0.704277)">
          <g
             id="g21"
             transform="translate(1.993,3.3870001)">
            <path
               d="m 2.640625,-0.6875 c 0,-0.421875 -0.34375,-0.703125 -0.6875,-0.703125 -0.421875,0 -0.703125,0.34375 -0.703125,0.6875 C 1.25,-0.28125 1.59375,0 1.9375,0 2.359375,0 2.640625,-0.34375 2.640625,-0.6875 Z m 0,0"
               id="path4" />
          </g>
        </g>
        <g
           fill="#000000"
           fill-opacity="1"
           id="g23"
           transform="matrix(0.352778,0,0,0.352778,-1.14406,-0.704277)">
          <g
             id="use2"
             transform="translate(8.2909822,3.3870001)">
            <path
               d="m 2.640625,-0.6875 c 0,-0.421875 -0.34375,-0.703125 -0.6875,-0.703125 -0.421875,0 -0.703125,0.34375 -0.703125,0.6875 C 1.25,-0.28125 1.59375,0 1.9375,0 2.359375,0 2.640625,-0.34375 2.640625,-0.6875 Z m 0,0"
               id="path22" />
          </g>
        </g>
        <g
           fill="#000000"
           fill-opacity="1"
           id="g24"
           transform="matrix(0.352778,0,0,0.352778,-1.14406,-0.704277)">
          <g
             id="use3"
             transform="translate(14.574617,3.3870001)">
            <path
               d="m 2.640625,-0.6875 c 0,-0.421875 -0.34375,-0.703125 -0.6875,-0.703125 -0.421875,0 -0.703125,0.34375 -0.703125,0.6875 C 1.25,-0.28125 1.59375,0 1.9375,0 2.359375,0 2.640625,-0.34375 2.640625,-0.6875 Z m 0,0"
               id="path6" />
          </g>
        </g>
      </g>
      <path
         style="fill:none;stroke:#000000;stroke-width:0.2;stroke-dasharray:none"
         d="m 45.526028,136.95726 -5.253377,1.69765"
         id="path25" />
      <g
         inkscape:label=""
         transform="translate(67.611728,126.6113)"
         id="g1">
        <g
           fill="#000000"
           fill-opacity="1"
           id="g2"
           transform="matrix(0.352778,0,0,0.352778,-0.951133,-0.480131)">
          <g
             id="use1"
             transform="translate(1.993,16.111)">
            <path
               d="M 3.515625,-2.296875 C 2.78125,-1.078125 2.09375,-0.65625 1.09375,-0.59375 0.875,-0.578125 0.703125,-0.578125 0.703125,-0.203125 0.703125,-0.078125 0.8125,0 0.953125,0 1.328125,0 2.25,-0.046875 2.625,-0.046875 3.21875,-0.046875 3.890625,0 4.46875,0 c 0.109375,0 0.359375,0 0.359375,-0.390625 0,-0.1875 -0.15625,-0.203125 -0.28125,-0.203125 -0.484375,-0.046875 -0.875,-0.21875 -0.875,-0.703125 0,-0.296875 0.125,-0.515625 0.390625,-0.96875 L 5.640625,-4.875 h 5.265625 c 0.01563,0.1875 0.01563,0.34375 0.04687,0.53125 0.0625,0.546875 0.296875,2.6875 0.296875,3.078125 0,0.625 -1.046875,0.671875 -1.375,0.671875 -0.234375,0 -0.453125,0 -0.453125,0.359375 C 9.421875,0 9.609375,0 9.734375,0 10.078125,0 10.5,-0.046875 10.84375,-0.046875 h 1.171875 C 13.28125,-0.046875 14.1875,0 14.21875,0 c 0.140625,0 0.359375,0 0.359375,-0.390625 0,-0.203125 -0.1875,-0.203125 -0.484375,-0.203125 -1.140625,0 -1.15625,-0.1875 -1.21875,-0.8125 L 11.609375,-14.296875 C 11.5625,-14.703125 11.484375,-14.75 11.25,-14.75 c -0.203125,0 -0.328125,0.04687 -0.515625,0.359375 z m 2.46875,-3.171875 4.15625,-6.953125 0.703125,6.953125 z m 0,0"
               id="path2" />
          </g>
        </g>
      </g>
      <g
         inkscape:label=""
         transform="translate(68.550717,147.10837)"
         id="g11">
        <g
           fill="#000000"
           fill-opacity="1"
           id="g10"
           transform="matrix(0.352778,0,0,0.352778,-0.907036,-0.64942)">
          <g
             id="g9"
             transform="translate(1.993,8.1689997)">
            <path
               d="m 6.640625,-3.625 c 0,-1.390625 -0.78125,-2.703125 -2.3125,-2.703125 -1.875,0 -3.75,2.046875 -3.75,4.09375 0,1.25 0.765625,2.375 2.234375,2.375 0.890625,0 1.953125,-0.34375 2.96875,-1.203125 0.203125,0.796875 0.640625,1.203125 1.265625,1.203125 0.765625,0 1.15625,-0.796875 1.15625,-0.984375 0,-0.125 -0.09375,-0.125 -0.140625,-0.125 -0.109375,0 -0.125,0.03125 -0.171875,0.15625 -0.125,0.359375 -0.453125,0.671875 -0.8125,0.671875 -0.4375,0 -0.4375,-0.921875 -0.4375,-1.796875 1.46875,-1.75 1.8125,-3.5625 1.8125,-3.578125 0,-0.125 -0.125,-0.125 -0.15625,-0.125 -0.140625,0 -0.15625,0.046875 -0.203125,0.3125 -0.1875,0.625 -0.5625,1.75 -1.453125,2.921875 z m -0.90625,2.21875 C 4.46875,-0.265625 3.34375,-0.140625 2.84375,-0.140625 c -1.015625,0 -1.3125,-0.90625 -1.3125,-1.578125 0,-0.625 0.3125,-2.078125 0.765625,-2.875 0.59375,-1 1.390625,-1.4375 2.03125,-1.4375 1.390625,0 1.390625,1.8125 1.390625,3.015625 0,0.359375 -0.015625,0.734375 -0.015625,1.09375 0,0.28125 0.015625,0.359375 0.03125,0.515625 z m 0,0"
               id="path8" />
          </g>
        </g>
      </g>
      <path
         style="fill:none;stroke:#000000;stroke-width:0.2;stroke-dasharray:none"
         d="m 70.059125,133.2108 v 12.64117"
         id="path44" />
      <g
         inkscape:label=""
         transform="translate(57.423427,130.05579)"
         id="g17">
        <g
           fill="#000000"
           fill-opacity="1"
           id="g16"
           transform="matrix(0.352778,0,0,0.352778,-0.951133,-0.480131)">
          <g
             id="g15"
             transform="translate(1.993,16.111)">
            <path
               d="M 3.515625,-2.296875 C 2.78125,-1.078125 2.09375,-0.65625 1.09375,-0.59375 0.875,-0.578125 0.703125,-0.578125 0.703125,-0.203125 0.703125,-0.078125 0.8125,0 0.953125,0 1.328125,0 2.25,-0.046875 2.625,-0.046875 3.21875,-0.046875 3.890625,0 4.46875,0 c 0.109375,0 0.359375,0 0.359375,-0.390625 0,-0.1875 -0.15625,-0.203125 -0.28125,-0.203125 -0.484375,-0.046875 -0.875,-0.21875 -0.875,-0.703125 0,-0.296875 0.125,-0.515625 0.390625,-0.96875 L 5.640625,-4.875 h 5.265625 c 0.01563,0.1875 0.01563,0.34375 0.04687,0.53125 0.0625,0.546875 0.296875,2.6875 0.296875,3.078125 0,0.625 -1.046875,0.671875 -1.375,0.671875 -0.234375,0 -0.453125,0 -0.453125,0.359375 C 9.421875,0 9.609375,0 9.734375,0 10.078125,0 10.5,-0.046875 10.84375,-0.046875 h 1.171875 C 13.28125,-0.046875 14.1875,0 14.21875,0 c 0.140625,0 0.359375,0 0.359375,-0.390625 0,-0.203125 -0.1875,-0.203125 -0.484375,-0.203125 -1.140625,0 -1.15625,-0.1875 -1.21875,-0.8125 L 11.609375,-14.296875 C 11.5625,-14.703125 11.484375,-14.75 11.25,-14.75 c -0.203125,0 -0.328125,0.04687 -0.515625,0.359375 z m 2.46875,-3.171875 4.15625,-6.953125 0.703125,6.953125 z m 0,0"
               id="path14" />
          </g>
        </g>
      </g>
      <path
         style="fill:none;stroke:#000000;stroke-width:0.2;stroke-dasharray:none"
         d="m 59.870825,136.59141 v 9.26056"
         id="path45" />
      <g
         inkscape:label=""
         transform="translate(58.548957,147.10837)"
         id="g50">
        <g
           fill="#000000"
           fill-opacity="1"
           id="g49"
           transform="matrix(0.352778,0,0,0.352778,-0.907036,-0.64942)">
          <g
             id="g48"
             transform="translate(1.993,8.1689997)">
            <path
               d="m 6.640625,-3.625 c 0,-1.390625 -0.78125,-2.703125 -2.3125,-2.703125 -1.875,0 -3.75,2.046875 -3.75,4.09375 0,1.25 0.765625,2.375 2.234375,2.375 0.890625,0 1.953125,-0.34375 2.96875,-1.203125 0.203125,0.796875 0.640625,1.203125 1.265625,1.203125 0.765625,0 1.15625,-0.796875 1.15625,-0.984375 0,-0.125 -0.09375,-0.125 -0.140625,-0.125 -0.109375,0 -0.125,0.03125 -0.171875,0.15625 -0.125,0.359375 -0.453125,0.671875 -0.8125,0.671875 -0.4375,0 -0.4375,-0.921875 -0.4375,-1.796875 1.46875,-1.75 1.8125,-3.5625 1.8125,-3.578125 0,-0.125 -0.125,-0.125 -0.15625,-0.125 -0.140625,0 -0.15625,0.046875 -0.203125,0.3125 -0.1875,0.625 -0.5625,1.75 -1.453125,2.921875 z m -0.90625,2.21875 C 4.46875,-0.265625 3.34375,-0.140625 2.84375,-0.140625 c -1.015625,0 -1.3125,-0.90625 -1.3125,-1.578125 0,-0.625 0.3125,-2.078125 0.765625,-2.875 0.59375,-1 1.390625,-1.4375 2.03125,-1.4375 1.390625,0 1.390625,1.8125 1.390625,3.015625 0,0.359375 -0.015625,0.734375 -0.015625,1.09375 0,0.28125 0.015625,0.359375 0.03125,0.515625 z m 0,0"
               id="path48" />
          </g>
        </g>
      </g>
      <g
         inkscape:label=""
         transform="translate(35.357791,136.89517)"
         id="g20">
        <g
           fill="#000000"
           fill-opacity="1"
           id="g19"
           transform="matrix(0.352778,0,0,0.352778,-0.951133,-0.480131)">
          <g
             id="g18"
             transform="translate(1.993,16.111)">
            <path
               d="M 3.515625,-2.296875 C 2.78125,-1.078125 2.09375,-0.65625 1.09375,-0.59375 0.875,-0.578125 0.703125,-0.578125 0.703125,-0.203125 0.703125,-0.078125 0.8125,0 0.953125,0 1.328125,0 2.25,-0.046875 2.625,-0.046875 3.21875,-0.046875 3.890625,0 4.46875,0 c 0.109375,0 0.359375,0 0.359375,-0.390625 0,-0.1875 -0.15625,-0.203125 -0.28125,-0.203125 -0.484375,-0.046875 -0.875,-0.21875 -0.875,-0.703125 0,-0.296875 0.125,-0.515625 0.390625,-0.96875 L 5.640625,-4.875 h 5.265625 c 0.01563,0.1875 0.01563,0.34375 0.04687,0.53125 0.0625,0.546875 0.296875,2.6875 0.296875,3.078125 0,0.625 -1.046875,0.671875 -1.375,0.671875 -0.234375,0 -0.453125,0 -0.453125,0.359375 C 9.421875,0 9.609375,0 9.734375,0 10.078125,0 10.5,-0.046875 10.84375,-0.046875 h 1.171875 C 13.28125,-0.046875 14.1875,0 14.21875,0 c 0.140625,0 0.359375,0 0.359375,-0.390625 0,-0.203125 -0.1875,-0.203125 -0.484375,-0.203125 -1.140625,0 -1.15625,-0.1875 -1.21875,-0.8125 L 11.609375,-14.296875 C 11.5625,-14.703125 11.484375,-14.75 11.25,-14.75 c -0.203125,0 -0.328125,0.04687 -0.515625,0.359375 z m 2.46875,-3.171875 4.15625,-6.953125 0.703125,6.953125 z m 0,0"
               id="path17" />
          </g>
        </g>
      </g>
      <path
         style="fill:none;stroke:#000000;stroke-width:0.2;stroke-dasharray:none"
         d="m 37.805189,143.18425 v 2.66772"
         id="path47" />
      <g
         inkscape:label=""
         transform="translate(36.680709,147.10837)"
         id="g53">
        <g
           fill="#000000"
           fill-opacity="1"
           id="g52"
           transform="matrix(0.352778,0,0,0.352778,-0.907036,-0.64942)">
          <g
             id="g51"
             transform="translate(1.993,8.1689997)">
            <path
               d="M 4.3125,-1.703125 C 4.25,-1.46875 4.25,-1.4375 4.046875,-1.15625 c -0.3125,0.390625 -0.953125,1.015625 -1.625,1.015625 -0.578125,0 -0.921875,-0.53125 -0.921875,-1.375 0,-0.796875 0.453125,-2.40625 0.71875,-3 0.5,-1 1.171875,-1.515625 1.71875,-1.515625 0.953125,0 1.140625,1.171875 1.140625,1.28125 0,0.015625 -0.046875,0.203125 -0.0625,0.234375 z M 5.234375,-5.375 C 5.078125,-5.75 4.6875,-6.328125 3.9375,-6.328125 c -1.609375,0 -3.359375,2.09375 -3.359375,4.21875 0,1.421875 0.828125,2.25 1.796875,2.25 0.796875,0 1.46875,-0.609375 1.875,-1.09375 0.140625,0.859375 0.8125,1.09375 1.25,1.09375 0.421875,0 0.765625,-0.25 1.03125,-0.765625 C 6.75,-1.125 6.953125,-2 6.953125,-2.046875 6.953125,-2.125 6.90625,-2.1875 6.8125,-2.1875 c -0.125,0 -0.140625,0.078125 -0.203125,0.296875 -0.21875,0.84375 -0.484375,1.75 -1.078125,1.75 -0.40625,0 -0.4375,-0.375 -0.4375,-0.65625 0,-0.34375 0.046875,-0.5 0.171875,-1.046875 0.09375,-0.359375 0.171875,-0.6875 0.28125,-1.09375 0.53125,-2.15625 0.65625,-2.671875 0.65625,-2.75 0,-0.203125 -0.15625,-0.359375 -0.359375,-0.359375 -0.46875,0 -0.578125,0.5 -0.609375,0.671875 z m 0,0"
               id="path50" />
          </g>
        </g>
      </g>
    </g>
    <g
       inkscape:label=""
       transform="translate(81.731063,136.0964)"
       id="g69">
      <g
         fill="#000000"
         fill-opacity="1"
         id="g68"
         transform="matrix(0.352778,0,0,0.352778,-1.10547,0.349074)">
        <g
           id="g67"
           transform="translate(1.993,9.573)">
          <path
             d="m 17.234375,-4.75 c -1.140625,0.859375 -1.703125,1.71875 -1.859375,1.984375 -0.9375,1.421875 -1.09375,2.71875 -1.09375,2.75 0,0.25 0.234375,0.25 0.40625,0.25 0.34375,0 0.375,-0.046875 0.453125,-0.421875 0.46875,-2.015625 1.6875,-3.765625 4.03125,-4.703125 0.25,-0.09375 0.3125,-0.125 0.3125,-0.28125 0,-0.140625 -0.125,-0.203125 -0.171875,-0.21875 C 18.40625,-5.75 15.90625,-6.78125 15.125,-10.25 c -0.0625,-0.25 -0.09375,-0.3125 -0.4375,-0.3125 -0.171875,0 -0.40625,0 -0.40625,0.25 0,0.04687 0.171875,1.34375 1.046875,2.734375 0.40625,0.609375 1.015625,1.34375 1.90625,2 H 1.875 c -0.359375,0 -0.734375,0 -0.734375,0.40625 0,0.421875 0.375,0.421875 0.734375,0.421875 z m 0,0"
             id="path66" />
        </g>
      </g>
    </g>
    <g
       id="g100"
       transform="translate(0,0.03945322)">
      <g
         inkscape:label=""
         transform="translate(107.43439,129.32604)"
         id="g5">
        <g
           fill="#000000"
           fill-opacity="1"
           id="g4"
           transform="matrix(0.352778,0,0,0.352778,-1.05035,-0.706129)">
          <g
             id="g3"
             transform="translate(1.993,16.111)">
            <path
               d="m 7.5625,-12.703125 c 0.1875,-0.765625 0.265625,-0.8125 1.078125,-0.8125 H 11.3125 c 2.34375,0 2.34375,1.984375 2.34375,2.171875 0,1.671875 -1.671875,3.796875 -4.40625,3.796875 H 6.28125 Z M 11.046875,-7.375 c 2.25,-0.40625 4.296875,-1.984375 4.296875,-3.875 0,-1.625 -1.421875,-2.859375 -3.75,-2.859375 H 4.953125 c -0.390625,0 -0.578125,0 -0.578125,0.390625 0,0.203125 0.1875,0.203125 0.5,0.203125 1.265625,0 1.265625,0.171875 1.265625,0.40625 0,0.03125 0,0.15625 -0.09375,0.46875 L 3.265625,-1.53125 c -0.1875,0.71875 -0.234375,0.9375 -1.671875,0.9375 -0.390625,0 -0.609375,0 -0.609375,0.359375 C 0.984375,0 1.109375,0 1.53125,0 h 7.078125 c 3.171875,0 5.609375,-2.390625 5.609375,-4.484375 0,-1.6875 -1.5,-2.71875 -3.171875,-2.890625 z M 8.125,-0.59375 H 5.328125 c -0.28125,0 -0.328125,0 -0.453125,-0.03125 -0.234375,-0.015625 -0.25,-0.0625 -0.25,-0.21875 0,-0.140625 0.046875,-0.265625 0.078125,-0.453125 L 6.15625,-7.125 h 3.875 c 2.4375,0 2.4375,2.265625 2.4375,2.4375 0,1.984375 -1.796875,4.09375 -4.34375,4.09375 z m 0,0"
               id="path1" />
          </g>
        </g>
      </g>
      <g
         inkscape:label=""
         transform="translate(131.49066,146.91922)"
         id="g14">
        <g
           fill="#000000"
           fill-opacity="1"
           id="g13"
           transform="matrix(0.352778,0,0,0.352778,-0.835378,-0.594298)">
          <g
             id="g12"
             transform="translate(1.993,8.1689997)">
            <path
               d="m 2,-3.265625 c 0.453125,0.1875 0.9375,0.1875 1.21875,0.1875 0.359375,0 1.109375,0 1.109375,-0.421875 0,-0.265625 -0.265625,-0.359375 -1,-0.359375 -0.359375,0 -0.796875,0.046875 -1.296875,0.265625 -0.4375,-0.21875 -0.609375,-0.546875 -0.609375,-0.859375 0,-0.890625 1.40625,-1.40625 2.6875,-1.40625 0.234375,0 0.75,0 1.359375,0.4375 0.078125,0.0625 0.125,0.09375 0.21875,0.09375 0.171875,0 0.359375,-0.1875 0.359375,-0.359375 0,-0.25 -0.828125,-0.796875 -1.8125,-0.796875 -1.609375,0 -3.125,0.96875 -3.125,2.03125 0,0.515625 0.34375,0.859375 0.578125,1.03125 -0.828125,0.46875 -1.3125,1.234375 -1.3125,1.9375 0,1 0.890625,1.78125 2.265625,1.78125 1.890625,0 2.65625,-1.265625 2.65625,-1.453125 0,-0.078125 -0.0625,-0.140625 -0.140625,-0.140625 C 5.09375,-1.296875 5.0625,-1.25 5,-1.15625 4.84375,-0.890625 4.46875,-0.3125 2.765625,-0.3125 c -0.890625,0 -2.0625,-0.234375 -2.0625,-1.25 C 0.703125,-2.046875 1.0625,-2.78125 2,-3.265625 Z M 2.4375,-3.4375 c 0.390625,-0.140625 0.765625,-0.140625 0.859375,-0.140625 0.40625,0 0.46875,0.03125 0.703125,0.09375 C 3.765625,-3.375 3.734375,-3.375 3.21875,-3.375 c -0.265625,0 -0.5,0 -0.78125,-0.0625 z m 0,0"
               id="path11" />
          </g>
        </g>
      </g>
      <g
         inkscape:label=""
         transform="translate(97.426882,126.6113)"
         id="g72">
        <g
           fill="#000000"
           fill-opacity="1"
           id="g71"
           transform="matrix(0.352778,0,0,0.352778,-0.951133,-0.480131)">
          <g
             id="g70"
             transform="translate(1.993,16.111)">
            <path
               d="M 3.515625,-2.296875 C 2.78125,-1.078125 2.09375,-0.65625 1.09375,-0.59375 0.875,-0.578125 0.703125,-0.578125 0.703125,-0.203125 0.703125,-0.078125 0.8125,0 0.953125,0 1.328125,0 2.25,-0.046875 2.625,-0.046875 3.21875,-0.046875 3.890625,0 4.46875,0 c 0.109375,0 0.359375,0 0.359375,-0.390625 0,-0.1875 -0.15625,-0.203125 -0.28125,-0.203125 -0.484375,-0.046875 -0.875,-0.21875 -0.875,-0.703125 0,-0.296875 0.125,-0.515625 0.390625,-0.96875 L 5.640625,-4.875 h 5.265625 c 0.01563,0.1875 0.01563,0.34375 0.04687,0.53125 0.0625,0.546875 0.296875,2.6875 0.296875,3.078125 0,0.625 -1.046875,0.671875 -1.375,0.671875 -0.234375,0 -0.453125,0 -0.453125,0.359375 C 9.421875,0 9.609375,0 9.734375,0 10.078125,0 10.5,-0.046875 10.84375,-0.046875 h 1.171875 C 13.28125,-0.046875 14.1875,0 14.21875,0 c 0.140625,0 0.359375,0 0.359375,-0.390625 0,-0.203125 -0.1875,-0.203125 -0.484375,-0.203125 -1.140625,0 -1.15625,-0.1875 -1.21875,-0.8125 L 11.609375,-14.296875 C 11.5625,-14.703125 11.484375,-14.75 11.25,-14.75 c -0.203125,0 -0.328125,0.04687 -0.515625,0.359375 z m 2.46875,-3.171875 4.15625,-6.953125 0.703125,6.953125 z m 0,0"
               id="path69" />
          </g>
        </g>
      </g>
      <path
         style="fill:none;stroke:#000000;stroke-width:0.130501;stroke-dasharray:none"
         d="m 102.33535,130.11959 5.39838,1.15649"
         id="path76" />
      <path
         style="fill:none;stroke:#000000;stroke-width:0.2;stroke-dasharray:none"
         d="m 100.00053,133.13189 v 12.64117"
         id="path79" />
      <path
         style="fill:none;stroke:#000000;stroke-width:0.2;stroke-dasharray:none"
         d="m 109.90003,136.5125 v 9.26056"
         id="path80" />
      <g
         inkscape:label=""
         transform="translate(108.57816,147.02946)"
         id="g83">
        <g
           fill="#000000"
           fill-opacity="1"
           id="g82"
           transform="matrix(0.352778,0,0,0.352778,-0.907036,-0.64942)">
          <g
             id="g81"
             transform="translate(1.993,8.1689997)">
            <path
               d="m 6.640625,-3.625 c 0,-1.390625 -0.78125,-2.703125 -2.3125,-2.703125 -1.875,0 -3.75,2.046875 -3.75,4.09375 0,1.25 0.765625,2.375 2.234375,2.375 0.890625,0 1.953125,-0.34375 2.96875,-1.203125 0.203125,0.796875 0.640625,1.203125 1.265625,1.203125 0.765625,0 1.15625,-0.796875 1.15625,-0.984375 0,-0.125 -0.09375,-0.125 -0.140625,-0.125 -0.109375,0 -0.125,0.03125 -0.171875,0.15625 -0.125,0.359375 -0.453125,0.671875 -0.8125,0.671875 -0.4375,0 -0.4375,-0.921875 -0.4375,-1.796875 1.46875,-1.75 1.8125,-3.5625 1.8125,-3.578125 0,-0.125 -0.125,-0.125 -0.15625,-0.125 -0.140625,0 -0.15625,0.046875 -0.203125,0.3125 -0.1875,0.625 -0.5625,1.75 -1.453125,2.921875 z m -0.90625,2.21875 C 4.46875,-0.265625 3.34375,-0.140625 2.84375,-0.140625 c -1.015625,0 -1.3125,-0.90625 -1.3125,-1.578125 0,-0.625 0.3125,-2.078125 0.765625,-2.875 0.59375,-1 1.390625,-1.4375 2.03125,-1.4375 1.390625,0 1.390625,1.8125 1.390625,3.015625 0,0.359375 -0.015625,0.734375 -0.015625,1.09375 0,0.28125 0.015625,0.359375 0.03125,0.515625 z m 0,0"
               id="path81" />
          </g>
        </g>
      </g>
      <g
         inkscape:label=""
         transform="translate(98.954558,147.02946)"
         id="g86">
        <g
           fill="#000000"
           fill-opacity="1"
           id="g85"
           transform="matrix(0.352778,0,0,0.352778,-0.907036,-0.64942)">
          <g
             id="g84"
             transform="translate(1.993,8.1689997)">
            <path
               d="M 4.3125,-1.703125 C 4.25,-1.46875 4.25,-1.4375 4.046875,-1.15625 c -0.3125,0.390625 -0.953125,1.015625 -1.625,1.015625 -0.578125,0 -0.921875,-0.53125 -0.921875,-1.375 0,-0.796875 0.453125,-2.40625 0.71875,-3 0.5,-1 1.171875,-1.515625 1.71875,-1.515625 0.953125,0 1.140625,1.171875 1.140625,1.28125 0,0.015625 -0.046875,0.203125 -0.0625,0.234375 z M 5.234375,-5.375 C 5.078125,-5.75 4.6875,-6.328125 3.9375,-6.328125 c -1.609375,0 -3.359375,2.09375 -3.359375,4.21875 0,1.421875 0.828125,2.25 1.796875,2.25 0.796875,0 1.46875,-0.609375 1.875,-1.09375 0.140625,0.859375 0.8125,1.09375 1.25,1.09375 0.421875,0 0.765625,-0.25 1.03125,-0.765625 C 6.75,-1.125 6.953125,-2 6.953125,-2.046875 6.953125,-2.125 6.90625,-2.1875 6.8125,-2.1875 c -0.125,0 -0.140625,0.078125 -0.203125,0.296875 -0.21875,0.84375 -0.484375,1.75 -1.078125,1.75 -0.40625,0 -0.4375,-0.375 -0.4375,-0.65625 0,-0.34375 0.046875,-0.5 0.171875,-1.046875 0.09375,-0.359375 0.171875,-0.6875 0.28125,-1.09375 0.53125,-2.15625 0.65625,-2.671875 0.65625,-2.75 0,-0.203125 -0.15625,-0.359375 -0.359375,-0.359375 -0.46875,0 -0.578125,0.5 -0.609375,0.671875 z m 0,0"
               id="path83" />
          </g>
        </g>
      </g>
      <path
         style="fill:none;stroke:#000000;stroke-width:0.130501;stroke-dasharray:none"
         d="m 112.77174,132.55364 5.39838,1.15649"
         id="path86" />
      <g
         inkscape:label=""
         transform="translate(118.82929,134.1788)"
         id="g93">
        <g
           fill="#000000"
           fill-opacity="1"
           id="g88"
           transform="matrix(0.352778,0,0,0.352778,-1.14406,-0.704277)">
          <g
             id="g87"
             transform="translate(1.993,3.3870001)">
            <path
               d="m 2.640625,-0.6875 c 0,-0.421875 -0.34375,-0.703125 -0.6875,-0.703125 -0.421875,0 -0.703125,0.34375 -0.703125,0.6875 C 1.25,-0.28125 1.59375,0 1.9375,0 2.359375,0 2.640625,-0.34375 2.640625,-0.6875 Z m 0,0"
               id="path87" />
          </g>
        </g>
        <g
           fill="#000000"
           fill-opacity="1"
           id="g90"
           transform="matrix(0.352778,0,0,0.352778,-1.14406,-0.704277)">
          <g
             id="g89"
             transform="translate(8.2909822,3.3870001)">
            <path
               d="m 2.640625,-0.6875 c 0,-0.421875 -0.34375,-0.703125 -0.6875,-0.703125 -0.421875,0 -0.703125,0.34375 -0.703125,0.6875 C 1.25,-0.28125 1.59375,0 1.9375,0 2.359375,0 2.640625,-0.34375 2.640625,-0.6875 Z m 0,0"
               id="path88" />
          </g>
        </g>
        <g
           fill="#000000"
           fill-opacity="1"
           id="g92"
           transform="matrix(0.352778,0,0,0.352778,-1.14406,-0.704277)">
          <g
             id="g91"
             transform="translate(14.574617,3.3870001)">
            <path
               d="m 2.640625,-0.6875 c 0,-0.421875 -0.34375,-0.703125 -0.6875,-0.703125 -0.421875,0 -0.703125,0.34375 -0.703125,0.6875 C 1.25,-0.28125 1.59375,0 1.9375,0 2.359375,0 2.640625,-0.34375 2.640625,-0.6875 Z m 0,0"
               id="path90" />
          </g>
        </g>
      </g>
      <path
         style="fill:none;stroke:#000000;stroke-width:0.130501;stroke-dasharray:none"
         d="m 124.69721,134.9647 5.39838,1.15649"
         id="path93" />
      <g
         inkscape:label=""
         transform="translate(130.09267,134.02376)"
         id="g96">
        <g
           fill="#000000"
           fill-opacity="1"
           id="g95"
           transform="matrix(0.352778,0,0,0.352778,-1.05035,-0.706129)">
          <g
             id="g94"
             transform="translate(1.993,16.111)">
            <path
               d="m 7.5625,-12.703125 c 0.1875,-0.765625 0.265625,-0.8125 1.078125,-0.8125 H 11.3125 c 2.34375,0 2.34375,1.984375 2.34375,2.171875 0,1.671875 -1.671875,3.796875 -4.40625,3.796875 H 6.28125 Z M 11.046875,-7.375 c 2.25,-0.40625 4.296875,-1.984375 4.296875,-3.875 0,-1.625 -1.421875,-2.859375 -3.75,-2.859375 H 4.953125 c -0.390625,0 -0.578125,0 -0.578125,0.390625 0,0.203125 0.1875,0.203125 0.5,0.203125 1.265625,0 1.265625,0.171875 1.265625,0.40625 0,0.03125 0,0.15625 -0.09375,0.46875 L 3.265625,-1.53125 c -0.1875,0.71875 -0.234375,0.9375 -1.671875,0.9375 -0.390625,0 -0.609375,0 -0.609375,0.359375 C 0.984375,0 1.109375,0 1.53125,0 h 7.078125 c 3.171875,0 5.609375,-2.390625 5.609375,-4.484375 0,-1.6875 -1.5,-2.71875 -3.171875,-2.890625 z M 8.125,-0.59375 H 5.328125 c -0.28125,0 -0.328125,0 -0.453125,-0.03125 -0.234375,-0.015625 -0.25,-0.0625 -0.25,-0.21875 0,-0.140625 0.046875,-0.265625 0.078125,-0.453125 L 6.15625,-7.125 h 3.875 c 2.4375,0 2.4375,2.265625 2.4375,2.4375 0,1.984375 -1.796875,4.09375 -4.34375,4.09375 z m 0,0"
               id="path94" />
          </g>
        </g>
      </g>
      <path
         style="fill:none;stroke:#000000;stroke-width:0.2;stroke-dasharray:none"
         d="m 132.55831,140.88271 v 4.89035"
         id="path96" />
    </g>
  </g>
</svg>
